<svg xmlns="http://www.w3.org/2000/svg" xmlns:xlink="http://www.w3.org/1999/xlink" width="23" height="27.677" viewBox="0 0 23 27.677"><defs><style>.a{fill:none;}.b{fill:#fff;}.c{clip-path:url(#a);}.d{clip-path:url(#b);}</style><clipPath id="a"><rect class="a" width="10" height="5"/></clipPath><clipPath id="b"><rect class="a" width="10" height="9"/></clipPath></defs><g transform="translate(4199 -18740.306)"><path class="b" d="M23.064,19.714v.821A2.389,2.389,0,0,1,20.758,23H2.306A2.389,2.389,0,0,1,0,20.536V7.393A2.389,2.389,0,0,1,2.306,4.929h.769V7.393h-.48a.3.3,0,0,0-.288.308V20.228a.3.3,0,0,0,.288.308H20.469a.3.3,0,0,0,.288-.308v-.513Zm2.018-17.25H7.207a.3.3,0,0,0-.288.308V15.3a.3.3,0,0,0,.288.308H25.082a.3.3,0,0,0,.288-.308V2.772A.3.3,0,0,0,25.082,2.464ZM25.37,0a2.389,2.389,0,0,1,2.306,2.464V15.607a2.389,2.389,0,0,1-2.306,2.464H6.919a2.389,2.389,0,0,1-2.306-2.464V2.464A2.389,2.389,0,0,1,6.919,0Z" transform="translate(-4199 18767.982) rotate(-90)"/><g class="c" transform="translate(-4195 18744.203)"><g transform="translate(4195 -18744.203)"><rect class="b" width="10" height="1" transform="translate(-4195 18744.203)"/></g><g transform="translate(4195 -18742.203)"><rect class="b" width="10" height="1" transform="translate(-4195 18744.203)"/></g><g transform="translate(4195 -18740.203)"><rect class="b" width="10" height="1" transform="translate(-4195 18744.203)"/></g></g><g class="d" transform="translate(-4195 18750.203)"><g transform="translate(4195 -18744.203)"><rect class="b" width="10" height="4" transform="translate(-4195 18745.203)"/></g><g transform="translate(4195 -18742.203)"><rect class="b" width="10" height="4" transform="translate(-4195 18745.203)"/></g><g transform="translate(4195 -18740.203)"><rect class="b" width="10" height="4" transform="translate(-4195 18745.203)"/></g><g transform="translate(4195 -18738.203)"><rect class="b" width="10" height="4" transform="translate(-4195 18745.203)"/></g><g transform="translate(4195 -18736.203)"><rect class="b" width="10" height="4" transform="translate(-4195 18745.203)"/></g></g></g></svg>