<svg xmlns="http://www.w3.org/2000/svg" xmlns:xlink="http://www.w3.org/1999/xlink" width="26.109" height="19" viewBox="0 0 26.109 19"><defs><style>.a{fill:none;}.b{fill:#fff;}.c{clip-path:url(#a);}</style><clipPath id="a"><rect class="a" width="17" height="12"/></clipPath></defs><g transform="translate(-30.333 -289)"><path class="b" d="M23.661,4.5H2.448A2.412,2.412,0,0,0,0,6.875v14.25A2.412,2.412,0,0,0,2.448,23.5H23.661a2.412,2.412,0,0,0,2.448-2.375V6.875A2.412,2.412,0,0,0,23.661,4.5Zm-.306,16.625H2.754a.3.3,0,0,1-.306-.3V7.172a.3.3,0,0,1,.306-.3h20.6a.3.3,0,0,1,.306.3V20.828A.3.3,0,0,1,23.355,21.125Z" transform="translate(30.333 284.5)"/><g class="c" transform="translate(35 293)"><g transform="translate(-34 -297)"><rect class="b" width="5" height="5" transform="translate(34 297)"/></g><g transform="translate(-28 -297)"><rect class="b" width="5" height="5" transform="translate(34 297)"/></g><g transform="translate(-22 -297)"><rect class="b" width="5" height="5" transform="translate(34 297)"/></g><g transform="translate(-34 -291)"><rect class="b" width="5" height="5" transform="translate(34 297)"/></g><g transform="translate(-28 -291)"><rect class="b" width="5" height="5" transform="translate(34 297)"/></g><g transform="translate(-22 -291)"><rect class="b" width="5" height="5" transform="translate(34 297)"/></g></g></g></svg>