<svg xmlns="http://www.w3.org/2000/svg" width="25.56" height="25.559" viewBox="0 0 25.56 25.559"><defs><style>.a{fill:#fff;}</style></defs><path class="a" d="M25.212,22.1l-4.978-4.976a1.2,1.2,0,0,0-.848-.349h-.814a10.388,10.388,0,1,0-1.8,1.8v.814a1.2,1.2,0,0,0,.349.848L22.1,25.207a1.193,1.193,0,0,0,1.693,0l1.413-1.413a1.2,1.2,0,0,0,0-1.7ZM10.385,17.571a7.188,7.188,0,1,1,7.189-7.188A7.184,7.184,0,0,1,10.385,17.571Zm1.353-7.615L9.491,9.282a.652.652,0,0,1-.438-.635.628.628,0,0,1,.589-.658h1.4a1.193,1.193,0,0,1,.64.186.41.41,0,0,0,.506-.036l.586-.559a.4.4,0,0,0-.028-.606,2.862,2.862,0,0,0-1.566-.567V5.591a.4.4,0,0,0-.4-.4h-.8a.4.4,0,0,0-.4.4v.8a2.223,2.223,0,0,0-2.131,2.25A2.259,2.259,0,0,0,9.03,10.812l2.247.674a.652.652,0,0,1,.438.635.628.628,0,0,1-.589.658h-1.4a1.193,1.193,0,0,1-.64-.186.41.41,0,0,0-.506.036l-.586.559a.4.4,0,0,0,.028.606,2.862,2.862,0,0,0,1.566.567v.814a.4.4,0,0,0,.4.4h.8a.4.4,0,0,0,.4-.4v-.8a2.223,2.223,0,0,0,2.131-2.25,2.259,2.259,0,0,0-1.577-2.166Z"/></svg>