<svg xmlns="http://www.w3.org/2000/svg" width="22.5" height="22.5" viewBox="0 0 22.5 22.5"><defs><style>.a{fill:#fff;}</style></defs><path class="a" d="M20.089,2.25H2.411A2.412,2.412,0,0,0,0,4.661V22.339A2.412,2.412,0,0,0,2.411,24.75H20.089A2.412,2.412,0,0,0,22.5,22.339V4.661A2.412,2.412,0,0,0,20.089,2.25ZM8.036,19.125a.8.8,0,0,1-.8.8H5.625a.8.8,0,0,1-.8-.8V12.7a.8.8,0,0,1,.8-.8H7.232a.8.8,0,0,1,.8.8Zm4.821,0a.8.8,0,0,1-.8.8H10.446a.8.8,0,0,1-.8-.8V7.875a.8.8,0,0,1,.8-.8h1.607a.8.8,0,0,1,.8.8Zm4.821,0a.8.8,0,0,1-.8.8H15.268a.8.8,0,0,1-.8-.8V15.911a.8.8,0,0,1,.8-.8h1.607a.8.8,0,0,1,.8.8Z" transform="translate(0 -2.25)"/></svg>