<svg width="257" height="206" viewBox="0 0 257 206" fill="none" xmlns="http://www.w3.org/2000/svg">
<path d="M223.046 110.972C224.362 135.235 176.927 184.57 118.46 166.31C91.2675 157.816 93.5708 143.718 72.8934 125.139C60.5686 114.066 42.8605 105.692 37.935 89.5963C33.6806 75.7029 36.2896 60.7696 43.6661 51.0563C60.2556 29.2123 93.7464 14.2541 126.746 48.6715C159.745 83.0889 219.643 48.3971 223.046 110.972Z" fill="url(#paint0_linear_2832_47611)"/>
<path d="M202.462 48.8222C198.115 56.58 188.595 57.6458 173.343 56.1717C161.873 55.0609 151.413 54.2012 139.942 47.9471C131.913 43.5725 125.557 37.6542 120.918 31.9055C115.891 25.6785 108.875 18.5712 112.315 11.5107C117.042 1.81121 144.376 -6.35752 170.919 7.00126C200.076 21.68 206.714 41.24 202.462 48.8222Z" fill="url(#paint1_linear_2832_47611)"/>
<path d="M72.7071 173.131C62.0449 158.216 51.1259 142.362 36.8306 134.554C22.0857 126.496 19.3664 131.463 18.3457 139.358C17.3251 147.253 21.8745 165.96 41.997 176.604C62.1252 187.251 82.6831 187.091 72.7071 173.131Z" fill="url(#paint2_linear_2832_47611)"/>
<path d="M234.216 69.3317C226.671 71.1193 218.691 64.7201 218.691 64.7201C218.691 64.7201 222.949 55.4267 230.497 53.6448C238.042 51.8572 246.02 58.2504 246.02 58.2504C246.02 58.2504 241.761 67.5442 234.216 69.3317Z" fill="url(#paint3_linear_2832_47611)"/>
<path d="M238.075 142.813C244.916 147.525 255.367 144.232 255.367 144.232C255.367 144.232 254.72 133.3 247.874 128.592C241.034 123.881 230.587 127.17 230.587 127.17C230.587 127.17 231.234 138.102 238.075 142.813Z" fill="url(#paint4_linear_2832_47611)"/>
<path d="M7.32412 93.5653C14.7401 101.113 28.6077 99.5218 28.6077 99.5218C28.6077 99.5218 30.443 85.6924 23.0201 78.1493C15.6041 70.601 1.74333 72.188 1.74333 72.188C1.74333 72.188 -0.0918937 86.0174 7.32412 93.5653Z" fill="url(#paint5_linear_2832_47611)"/>
<path d="M232.567 97.7376C230.472 97.7376 228.774 99.4357 228.774 101.53C228.774 103.625 230.472 105.323 232.567 105.323C234.662 105.323 236.36 103.625 236.36 101.53C236.36 99.4357 234.662 97.7376 232.567 97.7376Z" fill="#4DB6AC"/>
<path d="M55.7234 146.571C53.3668 146.571 51.4565 148.482 51.4565 150.838C51.4565 153.195 53.3668 155.105 55.7234 155.105C58.0799 155.105 59.9902 153.195 59.9902 150.838C59.9902 148.482 58.0799 146.571 55.7234 146.571Z" fill="#4DB6AC"/>
<path d="M31.3069 45.5855C29.3431 45.5855 27.7511 43.9935 27.7511 42.0297C27.7511 40.0659 29.3431 38.4739 31.3069 38.4739C33.2707 38.4739 34.8627 40.0659 34.8627 42.0297C34.8627 43.9935 33.2707 45.5855 31.3069 45.5855Z" fill="#4DB6AC"/>
<path d="M170.221 62.1798C169.305 62.1798 168.562 61.4368 168.562 60.5202C168.562 59.6036 169.305 58.8606 170.221 58.8606C171.138 58.8606 171.881 59.6036 171.881 60.5202C171.881 61.4368 171.138 62.1798 170.221 62.1798Z" fill="#4DB6AC"/>
<path d="M220.951 151.312C219.773 151.312 218.818 150.357 218.818 149.179C218.818 148 219.773 147.045 220.951 147.045C222.13 147.045 223.085 148 223.085 149.179C223.085 150.357 222.13 151.312 220.951 151.312Z" fill="#E1E4E5"/>
<path d="M22.2987 111.961C20.5967 111.961 19.217 110.581 19.217 108.879C19.217 107.177 20.5967 105.798 22.2987 105.798C24.0007 105.798 25.3804 107.177 25.3804 108.879C25.3804 110.581 24.0007 111.961 22.2987 111.961Z" fill="#E1E4E5"/>
<path d="M93.6274 171.175C92.3321 171.175 91.2821 170.125 91.2821 168.829C91.2821 167.534 92.3321 166.484 93.6274 166.484C94.9227 166.484 95.9728 167.534 95.9728 168.829C95.9728 170.125 94.9227 171.175 93.6274 171.175Z" fill="#E1E4E5"/>
<path d="M192.505 25.1988C191.064 25.1988 189.897 24.0313 189.897 22.5911C189.897 21.1509 191.064 19.9834 192.505 19.9834C193.945 19.9834 195.112 21.1509 195.112 22.5911C195.112 24.0313 193.945 25.1988 192.505 25.1988Z" fill="#E1E4E5"/>
<path d="M49.2087 84.9726C49.5434 86.2217 48.8021 87.5056 47.5531 87.8403C46.304 88.175 45.02 87.4338 44.6853 86.1847C44.3507 84.9356 45.0919 83.6517 46.341 83.317C47.5901 82.9823 48.874 83.7235 49.2087 84.9726Z" fill="#E1E4E5"/>
<path d="M88.1918 31.4293C86.4713 31.4293 85.0765 30.0346 85.0765 28.3141C85.0765 26.5936 86.4713 25.1989 88.1918 25.1989C89.9123 25.1989 91.307 26.5936 91.307 28.3141C91.307 30.0346 89.9123 31.4293 88.1918 31.4293Z" fill="#E1E4E5"/>
<path d="M196.534 95.5361C195.21 95.5361 194.138 94.6779 194.138 93.6193C194.138 92.5607 195.21 91.7025 196.534 91.7025C197.858 91.7025 198.93 92.5607 198.93 93.6193C198.93 94.6779 197.858 95.5361 196.534 95.5361Z" fill="#E1E4E5"/>
<path d="M146.895 21.9053C147.591 24.5049 146.049 27.1771 143.449 27.8737C140.849 28.5702 138.177 27.0275 137.48 24.4278C136.784 21.8281 138.327 19.156 140.926 18.4594C143.526 17.7629 146.198 19.3056 146.895 21.9053Z" fill="#E1E4E5"/>
<path d="M238.744 78.7731H238.807C239.178 84.0327 243.09 84.1138 243.09 84.1138C243.09 84.1138 238.777 84.198 238.777 90.2752C238.777 84.198 234.463 84.1138 234.463 84.1138C234.463 84.1138 238.373 84.0327 238.744 78.7731ZM71.7749 1.69263H71.8826C72.522 10.8966 79.2587 11.0383 79.2587 11.0383C79.2587 11.0383 71.8303 11.1856 71.8303 21.8208C71.8303 11.1856 64.4018 11.0383 64.4018 11.0383C64.4018 11.0383 71.1355 10.8966 71.7749 1.69263Z" fill="#E1E4E5"/>
<path d="M128.5 205.415C199.468 205.415 257 201.985 257 197.756C257 193.526 199.468 190.097 128.5 190.097C57.5311 190.097 0 193.526 0 197.756C0 201.985 57.5311 205.415 128.5 205.415Z" fill="url(#paint6_linear_2832_47611)"/>
<path d="M123.711 192.301H131.752V119.937H123.711V192.301Z" fill="white" stroke="#E1E4E5" stroke-width="2.0805"/>
<path d="M107.875 188.021V194.184H147.701V188.021H107.875ZM200.595 69.5563L206.385 89.7952C206.48 90.1241 206.508 90.4684 206.469 90.8083C206.431 91.1483 206.326 91.4773 206.16 91.7766C205.994 92.0759 205.771 92.3395 205.503 92.5525C205.235 92.7654 204.928 92.9236 204.599 93.0178L169.45 103.073C168.933 103.22 168.382 103.204 167.874 103.026C167.366 102.848 166.926 102.517 166.614 102.079C166.441 101.838 166.311 101.569 166.23 101.284L160.442 81.0532C160.348 80.7247 160.319 80.3807 160.358 80.0411C160.396 79.7014 160.501 79.3726 160.667 79.0736C160.833 78.7745 161.056 78.5111 161.323 78.2982C161.591 78.0854 161.897 77.9274 162.226 77.8332L197.375 67.7756C198.038 67.586 198.749 67.6669 199.353 68.0007C199.956 68.3345 200.403 68.8938 200.595 69.5563Z" fill="white" stroke="#E1E4E5" stroke-width="2.0805"/>
<path d="M206.478 90.6858C206.442 91.2204 206.242 91.7309 205.906 92.1478C205.569 92.5646 205.112 92.8675 204.597 93.0152L169.451 103.073C168.933 103.221 168.383 103.204 167.875 103.026C167.367 102.848 166.926 102.518 166.614 102.079L184.515 85.7688L206.478 90.6858Z" fill="white" stroke="#E1E4E5" stroke-width="2.0805"/>
<path d="M200.595 69.5562L184.858 89.0948L160.739 82.0893L160.442 81.0532C160.348 80.7246 160.319 80.3807 160.358 80.041C160.396 79.7013 160.501 79.3725 160.667 79.0735C160.833 78.7745 161.056 78.511 161.323 78.2982C161.591 78.0853 161.897 77.9273 162.226 77.8332L197.375 67.7755C198.038 67.5859 198.749 67.6669 199.353 68.0006C199.956 68.3344 200.403 68.8938 200.595 69.5562ZM82.2507 62.4652L89.5873 88.1085C89.7069 88.5252 89.7433 88.9614 89.6943 89.3922C89.6453 89.8229 89.5119 90.2398 89.3017 90.619C89.0915 90.9982 88.8087 91.3323 88.4693 91.6021C88.13 91.8719 87.7408 92.0722 87.324 92.1916L42.7888 104.932C42.1331 105.119 41.4355 105.098 40.792 104.873C40.1485 104.647 39.5907 104.228 39.1952 103.672C38.9767 103.367 38.8123 103.026 38.7092 102.665L31.376 77.0323C31.2562 76.6161 31.2197 76.1802 31.2684 75.7498C31.3172 75.3194 31.4503 74.9028 31.6602 74.5239C31.8701 74.1449 32.1526 73.8111 32.4916 73.5414C32.8306 73.2717 33.2195 73.0715 33.6359 72.9523L78.1706 60.2088C79.92 59.7086 81.7397 60.7159 82.2507 62.4652Z" fill="white" stroke="#E1E4E5" stroke-width="2.0805"/>
<path d="M89.7041 89.2365C89.6586 89.914 89.4053 90.5609 88.9787 91.0891C88.552 91.6174 87.9729 92.0011 87.3201 92.1881L42.7888 104.932C42.133 105.119 41.4354 105.098 40.7918 104.873C40.1483 104.647 39.5904 104.228 39.1948 103.672L61.8757 83.0065L89.7041 89.2365Z" fill="white" stroke="#E1E4E5" stroke-width="2.0805"/>
<path d="M82.2507 62.4652L62.3124 87.2214L31.7517 78.345L31.376 77.0323C31.2562 76.6161 31.2197 76.1802 31.2684 75.7498C31.3172 75.3194 31.4503 74.9028 31.6602 74.5239C31.8701 74.1449 32.1526 73.8111 32.4916 73.5414C32.8306 73.2717 33.2195 73.0715 33.6359 72.9523L78.1706 60.2088C79.92 59.7086 81.7397 60.7159 82.2507 62.4652ZM212.719 115.213L217.426 131.666C217.503 131.933 217.526 132.213 217.495 132.49C217.463 132.766 217.378 133.034 217.243 133.277C217.108 133.52 216.926 133.735 216.709 133.908C216.491 134.081 216.241 134.209 215.974 134.286L187.4 142.46C186.86 142.614 186.281 142.547 185.79 142.275C185.3 142.002 184.937 141.545 184.783 141.005L180.078 124.559C180.001 124.292 179.977 124.013 180.009 123.737C180.04 123.461 180.125 123.193 180.26 122.95C180.395 122.707 180.576 122.493 180.794 122.32C181.011 122.147 181.26 122.018 181.528 121.942L210.101 113.765C210.64 113.612 211.218 113.677 211.709 113.949C212.2 114.22 212.563 114.675 212.719 115.213Z" fill="white" stroke="#E1E4E5" stroke-width="2.0805"/>
<path d="M217.501 132.39C217.472 132.825 217.309 133.239 217.036 133.578C216.762 133.917 216.39 134.163 215.972 134.284L187.4 142.46C186.98 142.58 186.532 142.567 186.119 142.422C185.706 142.277 185.348 142.008 185.095 141.652L199.646 128.393L217.501 132.39Z" fill="white" stroke="#E1E4E5" stroke-width="2.0805"/>
<path d="M212.719 115.213L199.927 131.097L180.319 125.401L180.078 124.559C180.001 124.292 179.977 124.013 180.009 123.737C180.04 123.46 180.125 123.193 180.26 122.95C180.395 122.707 180.576 122.493 180.794 122.32C181.011 122.147 181.26 122.018 181.528 121.942L210.101 113.765C210.64 113.611 211.218 113.677 211.709 113.949C212.2 114.22 212.563 114.675 212.719 115.213ZM46.6774 119.644L51.2744 135.712C51.3494 135.973 51.3722 136.247 51.3415 136.516C51.3108 136.786 51.2272 137.048 51.0955 137.285C50.9638 137.523 50.7865 137.732 50.5739 137.901C50.3612 138.07 50.1174 138.196 49.8562 138.271L21.9513 146.253C21.5405 146.37 21.1033 146.358 20.7001 146.216C20.2968 146.075 19.9473 145.812 19.6996 145.464C19.5625 145.273 19.4594 145.059 19.3947 144.833L14.7998 128.772C14.7248 128.511 14.702 128.238 14.7326 127.968C14.7632 127.699 14.8466 127.438 14.9781 127.2C15.1096 126.963 15.2867 126.754 15.4991 126.585C15.7114 126.416 15.9551 126.29 16.2159 126.216L44.1208 118.231C44.6472 118.08 45.2119 118.144 45.6911 118.409C46.1702 118.674 46.5249 119.118 46.6774 119.644Z" fill="white" stroke="#E1E4E5" stroke-width="2.0805"/>
<path d="M51.3479 136.419C51.3193 136.843 51.1605 137.249 50.8932 137.58C50.6259 137.911 50.263 138.151 49.854 138.269L21.9513 146.254C21.5405 146.371 21.1034 146.358 20.7002 146.216C20.297 146.075 19.9475 145.812 19.6996 145.464L33.9107 132.516L51.3479 136.419Z" fill="white" stroke="#E1E4E5" stroke-width="2.0805"/>
<path d="M46.6774 119.644L34.1842 135.156L15.0355 129.595L14.7998 128.772C14.7248 128.511 14.702 128.238 14.7326 127.968C14.7632 127.699 14.8466 127.438 14.9781 127.2C15.1096 126.963 15.2867 126.754 15.4991 126.585C15.7114 126.416 15.9551 126.29 16.2159 126.216L44.1208 118.231C44.6472 118.08 45.2119 118.145 45.6911 118.409C46.1702 118.674 46.5249 119.118 46.6774 119.644ZM83.0532 111.049L85.9435 121.151C85.9906 121.315 86.005 121.487 85.9857 121.656C85.9664 121.826 85.9138 121.99 85.831 122.14C85.7481 122.289 85.6367 122.421 85.5029 122.527C85.3692 122.633 85.2159 122.712 85.0516 122.759L67.5084 127.778C67.1769 127.873 66.8213 127.832 66.5199 127.664C66.2185 127.497 65.9959 127.216 65.9012 126.885L63.0127 116.788C62.9655 116.624 62.951 116.452 62.9702 116.282C62.9894 116.113 63.0418 115.949 63.1245 115.799C63.2072 115.65 63.3185 115.519 63.452 115.412C63.5856 115.306 63.7388 115.227 63.9028 115.18L81.446 110.16C81.777 110.066 82.132 110.106 82.4332 110.273C82.7344 110.44 82.9573 110.719 83.0532 111.049Z" fill="white" stroke="#E1E4E5" stroke-width="2.0805"/>
<path d="M85.9894 121.595C85.9715 121.862 85.8717 122.117 85.7036 122.325C85.5356 122.533 85.3074 122.684 85.0504 122.758L67.5084 127.778C67.2501 127.852 66.9753 127.843 66.7218 127.755C66.4683 127.666 66.2485 127.501 66.0927 127.282L75.0271 119.141L85.9894 121.595Z" fill="white" stroke="#E1E4E5" stroke-width="2.0805"/>
<path d="M83.0532 111.049L75.1993 120.801L63.1609 117.304L63.0127 116.788C62.9655 116.624 62.951 116.452 62.9702 116.282C62.9894 116.113 63.0419 115.949 63.1245 115.799C63.2072 115.65 63.3185 115.519 63.452 115.412C63.5856 115.306 63.7388 115.227 63.9028 115.18L81.446 110.16C81.777 110.066 82.132 110.106 82.4332 110.273C82.7344 110.439 82.9573 110.719 83.0532 111.049ZM215.255 31.0355L219.852 47.1029C220.003 47.6303 219.938 48.1961 219.672 48.6759C219.406 49.1557 218.961 49.5103 218.433 49.6616L190.529 57.6445C190.001 57.7948 189.436 57.7296 188.956 57.4632C188.477 57.1967 188.123 56.7509 187.972 56.2236L183.377 40.1627C183.302 39.9018 183.279 39.6288 183.31 39.3591C183.34 39.0895 183.424 38.8285 183.555 38.5911C183.687 38.3537 183.864 38.1446 184.076 37.9756C184.289 37.8067 184.532 37.6812 184.793 37.6065L212.698 29.6215C213.225 29.4711 213.789 29.5354 214.268 29.8004C214.748 30.0654 215.102 30.5096 215.255 31.0355Z" fill="white" stroke="#E1E4E5" stroke-width="2.0805"/>
<path d="M219.925 47.8101C219.897 48.2346 219.738 48.6399 219.47 48.9709C219.203 49.3019 218.84 49.5423 218.431 49.6595L190.529 57.6444C190.118 57.7617 189.681 57.7487 189.277 57.6074C188.874 57.4661 188.525 57.2033 188.277 56.8552L202.488 43.9065L219.925 47.8101Z" fill="white" stroke="#E1E4E5" stroke-width="2.0805"/>
<path d="M215.255 31.0355L202.761 46.5473L183.613 40.9854L183.377 40.1627C183.302 39.9018 183.279 39.6288 183.31 39.3591C183.34 39.0895 183.424 38.8285 183.555 38.5911C183.687 38.3537 183.864 38.1446 184.076 37.9756C184.289 37.8067 184.532 37.6812 184.793 37.6065L212.698 29.6215C213.225 29.4711 213.789 29.5354 214.268 29.8004C214.748 30.0654 215.102 30.5096 215.255 31.0355ZM143.163 43.2603L147.76 59.3277C147.911 59.8551 147.847 60.4209 147.581 60.9008C147.315 61.3806 146.869 61.7351 146.342 61.8864L118.437 69.8692C117.909 70.0198 117.344 69.9548 116.864 69.6884C116.385 69.422 116.031 68.9761 115.88 68.4488L111.285 52.3879C111.21 52.127 111.187 51.8539 111.218 51.5842C111.249 51.3146 111.332 51.0535 111.464 50.8161C111.595 50.5787 111.772 50.3695 111.984 50.2005C112.197 50.0315 112.441 49.9061 112.701 49.8313L140.606 41.8463C141.133 41.6961 141.697 41.7605 142.176 42.0255C142.656 42.2905 143.01 42.7345 143.163 43.2603Z" fill="white" stroke="#E1E4E5" stroke-width="2.0805"/>
<path d="M147.833 60.0349C147.804 60.4594 147.646 60.8648 147.378 61.1958C147.111 61.5267 146.748 61.7672 146.339 61.8843L118.436 69.8693C118.025 69.9866 117.588 69.9737 117.185 69.8324C116.782 69.691 116.432 69.4282 116.185 69.0801L130.396 56.1313L147.833 60.0349Z" fill="white" stroke="#E1E4E5" stroke-width="2.0805"/>
<path d="M143.163 43.2602L130.67 58.772L111.521 53.2101L111.285 52.3878C111.21 52.1269 111.187 51.8539 111.218 51.5842C111.249 51.3145 111.332 51.0535 111.464 50.8161C111.595 50.5786 111.772 50.3694 111.984 50.2005C112.197 50.0315 112.441 49.906 112.701 49.8312L140.606 41.8463C141.133 41.696 141.697 41.7605 142.176 42.0254C142.656 42.2904 143.01 42.7344 143.163 43.2602ZM101.62 24.4993L106.218 40.5667C106.369 41.094 106.304 41.6598 106.038 42.1397C105.772 42.6195 105.327 42.974 104.799 43.1254L76.8941 51.1082C76.3667 51.2587 75.8012 51.1936 75.3219 50.9272C74.8426 50.6608 74.4886 50.215 74.3379 49.6878L69.743 33.6268C69.668 33.366 69.6451 33.0929 69.6757 32.8232C69.7063 32.5535 69.7898 32.2925 69.9213 32.0551C70.0528 31.8177 70.2298 31.6085 70.4422 31.4395C70.6546 31.2705 70.8982 31.145 71.1591 31.0702L99.064 23.0853C99.5904 22.935 100.155 22.9993 100.634 23.2644C101.113 23.5294 101.468 23.9734 101.62 24.4993Z" fill="white" stroke="#E1E4E5" stroke-width="2.0805"/>
<path d="M106.291 41.274C106.262 41.6985 106.103 42.1039 105.836 42.4348C105.569 42.7658 105.206 43.0062 104.797 43.1233L76.8941 51.1083C76.4832 51.2256 76.0461 51.2127 75.6428 51.0714C75.2396 50.93 74.8901 50.6672 74.6423 50.3191L88.8539 37.3704L106.291 41.274Z" fill="white" stroke="#E1E4E5" stroke-width="2.0805"/>
<path d="M101.62 24.4993L89.1274 40.011L69.9787 34.4491L69.743 33.6268C69.668 33.366 69.6451 33.0929 69.6757 32.8232C69.7063 32.5535 69.7898 32.2925 69.9213 32.0551C70.0528 31.8177 70.2298 31.6085 70.4422 31.4395C70.6546 31.2705 70.8982 31.145 71.1591 31.0702L99.064 23.0853C99.5904 22.935 100.155 22.9993 100.634 23.2644C101.113 23.5294 101.468 23.9734 101.62 24.4993Z" fill="white" stroke="#E1E4E5" stroke-width="2.0805"/>
<path fill-rule="evenodd" clip-rule="evenodd" d="M111.882 102.871H145.686C151.626 102.871 156.441 107.687 156.441 113.626V130.528C156.441 131.343 156.117 132.125 155.54 132.701C154.964 133.277 154.183 133.601 153.368 133.601H104.199C103.385 133.601 102.603 133.277 102.027 132.701C101.451 132.125 101.127 131.343 101.126 130.528V113.626C101.126 107.687 105.942 102.871 111.882 102.871Z" fill="white" stroke="#E1E4E5" stroke-width="2.0805"/>
<path d="M122.638 93.6519V115.163" stroke="#E1E4E5" stroke-width="2.0805"/>
<path d="M122.641 114.011C122.946 114.012 123.238 114.134 123.454 114.351C123.669 114.568 123.79 114.861 123.79 115.166C123.79 115.317 123.76 115.467 123.702 115.607C123.645 115.746 123.56 115.873 123.453 115.98C123.345 116.087 123.218 116.171 123.078 116.229C122.939 116.286 122.789 116.316 122.638 116.315C122.484 116.318 122.332 116.29 122.19 116.233C122.048 116.177 121.918 116.092 121.809 115.985C121.699 115.877 121.613 115.749 121.554 115.608C121.495 115.466 121.464 115.315 121.464 115.161C121.465 115.008 121.495 114.857 121.555 114.715C121.614 114.574 121.701 114.446 121.811 114.339C121.92 114.232 122.05 114.148 122.193 114.091C122.335 114.035 122.487 114.007 122.641 114.011" stroke="#E1E4E5" stroke-width="4.226" stroke-linecap="round" stroke-linejoin="round"/>
<path fill-rule="evenodd" clip-rule="evenodd" d="M145.685 102.871C139.745 102.871 134.93 107.687 134.93 113.626V133.601" fill="white"/>
<path d="M145.685 102.871C139.745 102.871 134.93 107.687 134.93 113.626V133.601" stroke="#E1E4E5" stroke-width="2.0805"/>
<path d="M101.236 95.4494C100.882 96.0518 101.316 96.8114 102.015 96.8114H123.061C123.301 96.8114 123.531 96.7162 123.701 96.5467C123.87 96.3772 123.966 96.1473 123.966 95.9076V85.3007C123.966 84.4463 123.274 83.7554 122.42 83.7554H102.001C101.301 83.7554 100.867 84.5162 101.223 85.1191L104.001 89.8248C104.168 90.1078 104.169 90.459 104.002 90.7424L101.236 95.4494Z" fill="#4DB6AC"/>
<defs>
<linearGradient id="paint0_linear_2832_47611" x1="166.35" y1="256.407" x2="77.6202" y2="-143.915" gradientUnits="userSpaceOnUse">
<stop stop-color="white"/>
<stop offset="1" stop-color="#EEEEEE"/>
</linearGradient>
<linearGradient id="paint1_linear_2832_47611" x1="173.179" y1="99.1001" x2="134.435" y2="-75.0013" gradientUnits="userSpaceOnUse">
<stop stop-color="white"/>
<stop offset="1" stop-color="#EEEEEE"/>
</linearGradient>
<linearGradient id="paint2_linear_2832_47611" x1="60.8018" y1="222.096" x2="25.8214" y2="60.3294" gradientUnits="userSpaceOnUse">
<stop stop-color="white"/>
<stop offset="1" stop-color="#EEEEEE"/>
</linearGradient>
<linearGradient id="paint3_linear_2832_47611" x1="205.802" y1="73.7759" x2="271.854" y2="42.5712" gradientUnits="userSpaceOnUse">
<stop stop-color="white"/>
<stop offset="1" stop-color="#EEEEEE"/>
</linearGradient>
<linearGradient id="paint4_linear_2832_47611" x1="264.723" y1="158.274" x2="210.874" y2="101.492" gradientUnits="userSpaceOnUse">
<stop stop-color="white"/>
<stop offset="1" stop-color="#EEEEEE"/>
</linearGradient>
<linearGradient id="paint5_linear_2832_47611" x1="36.9126" y1="119.348" x2="-16.7007" y2="35.3033" gradientUnits="userSpaceOnUse">
<stop stop-color="white"/>
<stop offset="1" stop-color="#EEEEEE"/>
</linearGradient>
<linearGradient id="paint6_linear_2832_47611" x1="133.98" y1="214.003" x2="133.952" y2="173.428" gradientUnits="userSpaceOnUse">
<stop stop-color="white"/>
<stop offset="1" stop-color="#EEEEEE"/>
</linearGradient>
</defs>
</svg>
