<svg xmlns="http://www.w3.org/2000/svg" width="727.151" height="588.669" viewBox="0 0 727.151 588.669"><defs><style>.a,.i{fill:#fff;}.b,.j{fill:#3ed5d4;}.c{fill:#addfff;}.d,.e{fill:#d6efff;}.e{opacity:0.5;}.f{fill:#e84c3d;}.g,.i,.j{opacity:0.1;}.h{opacity:0.2;}.k{fill:#1c2268;}.l{fill:#33aeff;}</style></defs><g transform="translate(-87.982 -44.803)"><g transform="translate(87.982 65.017)"><path class="a" d="M220.891,273.962H162.052a37.213,37.213,0,1,0,0,74.426h58.839a37.213,37.213,0,1,0,0-74.426Z" transform="translate(-42.13 220.067)"/><path class="a" d="M739.475,191.14H624.086a16.491,16.491,0,0,1-1.894-32.873h32.426a52.228,52.228,0,1,0,0-104.456H356.181a52.228,52.228,0,0,0,0,104.456H413.07a16.491,16.491,0,0,1-1.9,32.873H163.64A75.657,75.657,0,0,0,87.982,266.8h0a75.659,75.659,0,0,0,75.658,75.658H391.574a26.7,26.7,0,0,1-.649,52.989h-117.7a56.267,56.267,0,0,0-56.267,56.267h0a56.267,56.267,0,0,0,56.267,56.267H410.368a19.93,19.93,0,1,1,0,39.861h-33.78a37.213,37.213,0,0,0,0,74.426h330.4a37.213,37.213,0,1,0,0-74.426H628.974a19.93,19.93,0,0,1,0-39.861h70.815a56.265,56.265,0,0,0,56.265-56.267h0a56.265,56.265,0,0,0-56.265-56.267H604a26.7,26.7,0,0,1-.648-52.989H739.475A75.659,75.659,0,0,0,815.133,266.8h0A75.657,75.657,0,0,0,739.475,191.14Zm-194.4,336.768a19.929,19.929,0,0,1-19.929,19.932h-17.58a19.93,19.93,0,1,1,0-39.861h17.58A19.929,19.929,0,0,1,545.071,527.908ZM504.755,174.644a16.492,16.492,0,0,1,14.6-16.377h26.958a16.491,16.491,0,0,1-1.9,32.873H521.249A16.5,16.5,0,0,1,504.755,174.644Z" transform="translate(-87.982 -53.811)"/></g><g transform="translate(491.361 245.114)"><path class="b" d="M379.137,148.389a4.358,4.358,0,1,1-2.987-5.39A4.357,4.357,0,0,1,379.137,148.389Z" transform="translate(-139.784 -123.167)"/><path class="c" d="M349.662,222.663l8.92,30.344,38.075-8.085-3.871,47.486,39.437-14.357L363.1,381.081a49.709,49.709,0,0,1-68.975,13.588h0a49.711,49.711,0,0,1-13.585-68.975Z" transform="translate(-262.302 -23.849)"/><path class="d" d="M381.161,280.068l3.871-47.486-38.075,8.085L345.2,234.7l-58.63,87.394A30.182,30.182,0,0,0,336.7,355.719l52.782-78.681Z" transform="translate(-250.677 -11.509)"/><g transform="translate(0)"><path class="c" d="M418.659,244.754l-31.07-5.913L377.4,276.407l-40.484-25.118-5.227,41.642-54.174-97.792,86.967-48.177Z" transform="translate(-255.571 -118.024)"/><path class="d" d="M327.448,246.043l40.484,25.118,10.186-37.566,6.114,1.164-46.3-83.579-52.8,29.25,41.215,74.4Z" transform="translate(-246.1 -112.778)"/><path class="c" d="M375.219,166.75l-81.6,45.2a17.428,17.428,0,0,1-23.693-6.8h0a17.43,17.43,0,0,1,6.8-23.693l81.6-45.206a17.431,17.431,0,0,1,23.695,6.8h0A17.431,17.431,0,0,1,375.219,166.75Z" transform="translate(-267.738 -134.067)"/><path class="e" d="M345.859,154.091l-44.279,24.53a9.456,9.456,0,0,1-12.856-3.691h0a9.458,9.458,0,0,1,3.689-12.856l44.279-24.53a9.46,9.46,0,0,1,12.858,3.689h0A9.46,9.46,0,0,1,345.859,154.091Z" transform="translate(-243.106 -131.217)"/></g><path class="b" d="M489.858,247.047c-12.858.339-28.695,7.535-28.695,7.535s8.92-7.67,17.636-28.677,12.71-42.527,2.154-40.855-17.78,22.054-24.673,35.063c-12.2,23.028-22.826,30.389-22.826,30.389s4.356-8.153-.424-14.9-17.376-4.986-26.269,16.64c-4.623,11.238-12.892,26.323-22.333,39.937-.22.321-.444.637-.666.954q-1.117,1.592-2.251,3.155c-.141.2-.283.388-.424.581q-1.195,1.629-2.408,3.211c-.177.231-.355.467-.534.7q-1.272,1.646-2.556,3.227c-.166.2-.332.408-.5.61-.889,1.086-1.78,2.15-2.673,3.18-.09.1-.177.2-.267.3-1.905,2.184-3.815,4.232-5.713,6.111a64.172,64.172,0,0,1-9.243,7.762c-11.972,8-27.393,8.958-36.616,8.669l-34.006,50.693A30.18,30.18,0,1,0,336.7,414.962l52.784-78.678h0s36.277-46.683,82.612-65.959c25.414-10.572,42.926-5.644,44.885-12.47S502.716,246.708,489.858,247.047Z" transform="translate(-250.677 -70.754)"/><path class="f" d="M370.183,193.062a8.659,8.659,0,1,1-5.933-10.711A8.659,8.659,0,0,1,370.183,193.062Z" transform="translate(-161.421 -74.42)"/><path class="b" d="M356.927,167.042a5.084,5.084,0,1,1-3.483-6.288A5.083,5.083,0,0,1,356.927,167.042Z" transform="translate(-169.187 -101.114)"/><path class="c" d="M274.277,209.784l22.419-5.441-6.5,22.136Z" transform="translate(-259.602 -46.64)"/><path class="c" d="M359.411,265.2l3.789-22.757,17.813,14.66Z" transform="translate(-153.692 0.756)"/><path class="c" d="M288.152,226.249l5.137-11.119,7.061,10.009Z" transform="translate(-242.341 -33.221)"/><path class="g" d="M403.629,257.751l-41.194,61.4a49.642,49.642,0,0,1-88.1-11.16,49.7,49.7,0,0,0,88.759,42.381l69.121-103.031Z" transform="translate(-262.291 6.857)"/><path class="g" d="M376.708,257.923l-.886-.92c-31.071-20.14-49.658-60.181-66.891-95.183h0l-30.856,17.1L331,274.446l5.226-41.641Z" transform="translate(-254.877 -99.54)"/><path class="h" d="M425.438,257.682s-38.784,28.5-59.862,57.522-37.568,58.047-49.088,65.831c-13.691,9.248-28.048.027-29.045-11.312s13.289-30.007,36.9-38.2,56.7-37.381,67.557-53.821,11.366-34.531,22.2-35.267,3.721,10.4,3.721,10.4,13.359-7.7,24.936-25.815,13.529-26.217,18.709-20.748S443.328,243.365,425.438,257.682Z" transform="translate(-243.284 -46.344)"/><path class="h" d="M355.249,238.356s13.253-7.675,23.924-12.264,24.139-4.125,26.39-7.518S389.933,216,375.809,223,355.249,238.356,355.249,238.356Z" transform="translate(-158.869 -31.342)"/><path class="h" d="M355.077,243.827s-13.74,14.07-30.2,22.526-23.542,8.707-22.625,3.285C303.253,263.765,332.547,262.067,355.077,243.827Z" transform="translate(-224.892 2.48)"/><path class="i" d="M347.433,214.493a2.975,2.975,0,1,1-2.04-3.68A2.977,2.977,0,0,1,347.433,214.493Z" transform="translate(-175.853 -38.736)"/><path class="i" d="M365.887,219.425a57.89,57.89,0,0,1,22.129-5.446c11.871-.258,20.163,1.961,19.947,4.928s-6.959-2.022-19.507-2.569A64.849,64.849,0,0,0,365.887,219.425Z" transform="translate(-145.635 -34.678)"/><path class="i" d="M361.25,222.68s-9.917,22.66-21.77,35.837S316.255,278,316.255,278s15.54-3.792,28.419-19.777S361.25,222.68,361.25,222.68Z" transform="translate(-207.38 -23.827)"/><path class="i" d="M390.053,188.358s-3.9,3.238-8.66,13.139-9.2,20.953-16.68,30.71a114.068,114.068,0,0,1-13.175,14.8s10.188-4.4,21.323-22.454S381.029,200.539,390.053,188.358Z" transform="translate(-163.486 -66.526)"/><path class="j" d="M361.838,187.756a3.575,3.575,0,1,1-2.451-4.423A3.578,3.578,0,0,1,361.838,187.756Z" transform="translate(-159.397 -72.951)"/><path class="i" d="M352.418,164.06a2.343,2.343,0,1,1-1.607-2.9A2.344,2.344,0,0,1,352.418,164.06Z" transform="translate(-168.107 -100.472)"/><path class="i" d="M375.119,145.577a1.724,1.724,0,1,1-1.183-2.132A1.724,1.724,0,0,1,375.119,145.577Z" transform="translate(-138.357 -122.484)"/><g transform="translate(16.273 198.814)"><path class="i" d="M371.072,289.379l-8.321,3.029,3.87-47.485-38.074,8.084-1.756-5.971-7.166-24.373-23.376,34.845,62.9,84.7,43.041-64.158-31.116,11.328Z" transform="translate(-248.54 -222.663)"/><path class="i" d="M303.856,250.707l-26.9,40.1c-.718,1.07-1.342,2.172-1.966,3.274l54.12,72.88a49.483,49.483,0,0,0,30.407-20.766l7.237-10.787Z" transform="translate(-274.989 -187.775)"/></g></g><g transform="translate(162.223 44.803)"><path class="k" d="M271.134,97.641s17.495-18.464,34.376-21.3c27.357-4.6,31.957,21.229,21.787,29.013S296.31,92.8,271.134,97.641Z" transform="translate(65.626 -6.25)"/><path class="k" d="M269.774,91.8s-.761-13.633,4.351-21.267c8.285-12.371,20.059-4.65,19.353,2.186S277.162,80.189,269.774,91.8Z" transform="translate(63.884 -20.944)"/><circle class="c" cx="126.857" cy="126.857" r="126.857" transform="matrix(0.496, -0.868, 0.868, 0.496, 0, 331.272)"/><rect class="c" width="99.42" height="160.105" transform="matrix(0.844, 0.537, -0.537, 0.844, 240.796, 84.949)"/><path class="c" d="M312.094,152.25l-78.71-50.069a17.43,17.43,0,0,1-5.352-24.063h0A17.429,17.429,0,0,1,252.1,72.766l78.71,50.069a17.429,17.429,0,0,1,5.352,24.063h0A17.433,17.433,0,0,1,312.094,152.25Z" transform="translate(8.614 -13.407)"/><path class="e" d="M273.25,112.953,234.085,88.04a8.676,8.676,0,0,1-2.664-11.974h0A8.674,8.674,0,0,1,243.4,73.4l39.165,24.913a8.674,8.674,0,0,1,2.664,11.972h0A8.674,8.674,0,0,1,273.25,112.953Z" transform="translate(14.535 -10.91)"/><path class="d" d="M388.178,119.726l-50.931-32.4-59.092,92.894a98.938,98.938,0,1,0,50.931,32.4Z" transform="translate(-79.973 8.101)"/><path class="k" d="M154.111,180.056s31.776-22.86,68.993-13.572c35.566,8.877,55.783,10.159,79.67,3.1s4.493,50.4-57.147,47.821S153.69,189.1,154.111,180.056Z" transform="translate(-79.961 103.811)"/><path class="b" d="M329.07,152.225s-12.1-17.486-27.59-16.034,1.454,20.338,1.454,20.338S276.607,129.8,267.1,137.161c-7.5,5.81,3.388,13.074,13.559,25.178q.555.663,1.109,1.378c12.964,16.806,8.848,41.163-8.4,53.534-8.554,6.135-20.015,11.121-35.806,14.164-22.452,4.329-57.457,0-83.458-16.047a98.84,98.84,0,0,0,49.171,85.684c44.062,25.692,101.352,13.173,130.657-28.576A98.959,98.959,0,0,0,329.07,152.225Z" transform="translate(-79.959 68.499)"/><path class="l" d="M205.91,152.168a7.089,7.089,0,1,1-7.089-7.087A7.089,7.089,0,0,1,205.91,152.168Z" transform="translate(-33.154 79.947)"/><path class="k" d="M269.428,67.912a7.089,7.089,0,1,1-7.089-7.089A7.089,7.089,0,0,1,269.428,67.912Z" transform="translate(45.865 -24.873)"/><path class="l" d="M187.99,151.872a3.631,3.631,0,1,1-3.631-3.633A3.63,3.63,0,0,1,187.99,151.872Z" transform="translate(-46.843 83.876)"/><path class="k" d="M248.586,48.434a3.631,3.631,0,1,1-3.631-3.631A3.63,3.63,0,0,1,248.586,48.434Z" transform="translate(28.541 -44.803)"/><g transform="translate(87.892 197.765)"><path class="c" d="M165.132,197.9a4.9,4.9,0,0,1-3.878-7.9l15.488-20.053-11.494-30.378a4.9,4.9,0,1,1,9.171-3.469l12.463,32.94a4.912,4.912,0,0,1-.7,4.733L169.017,196A4.89,4.89,0,0,1,165.132,197.9Z" transform="translate(-160.233 -132.932)"/></g><g transform="translate(98.833 238.761)"><path class="c" d="M186.034,171.5a4.87,4.87,0,0,1-2.679-.8l-16.027-10.491a4.9,4.9,0,1,1,5.37-8.2l16.027,10.491a4.9,4.9,0,0,1-2.691,9.005Z" transform="translate(-165.108 -151.2)"/></g><path class="g" d="M228.364,277.833a126.891,126.891,0,0,1-53.02-144.806A126.848,126.848,0,1,0,389.634,256.849,126.868,126.868,0,0,1,228.364,277.833Z" transform="translate(-95.455 64.952)"/><path class="g" d="M323.159,173.174s-4.712,61.7-66.917,79.271-94.079-22.514-89.789-38.633,28.091-15.138,66.6,7.342C269.165,242.23,316.62,202.6,323.159,173.174Z" transform="translate(-65.078 114.896)"/><path class="g" d="M205.664,216.716s27.786-8.532,31.055-31.044-8.99-30.757,0-34.195S270.634,207.751,205.664,216.716Z" transform="translate(-15.822 87.727)"/><path class="i" d="M257.251,201.631a116.569,116.569,0,0,0-10.114-35.8c-8.581-18.015-16.871-26.852-22.072-25.8s4.91,14.389,14.1,25.185S257.251,201.631,257.251,201.631Z" transform="translate(6.55 73.551)"/><path class="i" d="M263.544,178.682s-12.948,19.135-33.18,26.805c0,0-25.661,8.815-29.018-1.369-3.626-10.987,13.471-9.432,26.955-10.538S263.544,178.682,263.544,178.682Z" transform="translate(-21.808 121.748)"/><circle class="i" cx="4.188" cy="4.188" r="4.188" transform="translate(191.164 208.391)"/><path class="i" d="M194.3,185.137a2.833,2.833,0,1,1-2.832-2.834A2.832,2.832,0,0,1,194.3,185.137Z" transform="translate(-37.003 126.253)"/><path class="i" d="M303.736,85.258a6.844,6.844,0,1,1-6.844-6.844A6.844,6.844,0,0,1,303.736,85.258Z" transform="translate(89.154 -2.989)"/><path class="i" d="M281.984,69.167a3.882,3.882,0,1,1-3.882-3.88A3.882,3.882,0,0,1,281.984,69.167Z" transform="translate(69.465 -19.32)"/><circle class="i" cx="3.591" cy="3.591" r="3.591" transform="translate(160.882 226.901)"/><path class="i" d="M183.976,150.312a1.379,1.379,0,1,1-1.378-1.378A1.379,1.379,0,0,1,183.976,150.312Z" transform="translate(-46.234 84.741)"/><g transform="translate(46.234 162.361)"><path class="i" d="M220.2,117.155a126.294,126.294,0,0,0-68.495,49.481L353.05,320.508a128.023,128.023,0,0,0,10.008-13.594,126.232,126.232,0,0,0,19.79-65.457Z" transform="translate(-129.183 -117.155)"/><path class="i" d="M341.726,299.057l-192.4-147.039a126.275,126.275,0,0,0-6.981,56.377L289.164,320.6A127.092,127.092,0,0,0,341.726,299.057Z" transform="translate(-141.669 -73.784)"/></g><g transform="translate(196.945 56.633)"><path class="i" d="M330.8,122.836l-78.71-50.069a17.413,17.413,0,0,0-25.012,22.315l84.118,64.285,3.635-5.711a17.423,17.423,0,0,0,15.969-30.82Z" transform="translate(-188.324 -70.04)"/><path class="i" d="M289.556,194.726l24.974-39.262L235.244,94.873,208.829,136.4l84.919,64.9C292.415,199.071,291.028,196.876,289.556,194.726Z" transform="translate(-208.829 -39.147)"/></g></g><path class="c" d="M203.092,92.69a5.276,5.276,0,1,1-5.276-5.276A5.277,5.277,0,0,1,203.092,92.69Z" transform="translate(130.075 53.01)"/><circle class="c" cx="11.753" cy="11.753" r="11.753" transform="translate(392.207 564.381)"/><path class="c" d="M330.148,127.433a7.385,7.385,0,1,1-7.385-7.385A7.384,7.384,0,0,1,330.148,127.433Z" transform="translate(282.891 93.608)"/><circle class="c" cx="7.385" cy="7.385" r="7.385" transform="translate(145.29 281.755)"/><circle class="c" cx="7.736" cy="7.736" r="7.736" transform="translate(644.307 605.242)"/><g transform="translate(433.951 431.534)"><g transform="translate(12.151 0)"><path class="b" d="M278.5,229.763a6.735,6.735,0,0,0-4.816-10.464l-18.623-2.116a6.733,6.733,0,0,0-1.521,13.379l18.623,2.116A6.731,6.731,0,0,0,278.5,229.763Z" transform="translate(-247.569 -217.14)"/></g><g transform="translate(0 28.779)"><path class="b" d="M291.346,240.482a6.733,6.733,0,0,0-7.719-10.163l-36.888,12.43a6.731,6.731,0,1,0,4.3,12.757l36.888-12.43A6.7,6.7,0,0,0,291.346,240.482Z" transform="translate(-242.154 -229.964)"/></g><g transform="translate(34.588 49.267)"><path class="b" d="M285.6,249.6a6.732,6.732,0,0,0-10.578-8.278l-15.715,17.45a6.731,6.731,0,0,0,10,9.01l15.717-17.447A7.065,7.065,0,0,0,285.6,249.6Z" transform="translate(-257.567 -239.094)"/></g></g></g></svg>