<svg xmlns="http://www.w3.org/2000/svg" xmlns:xlink="http://www.w3.org/1999/xlink" width="631" height="426.004" viewBox="0 0 631 426.004">
  <defs>
    <clipPath id="clip-path">
      <path id="Path_1965" data-name="Path 1965" d="M674.307,124.236c-10.96-13.845-22.328-28.033-36.428-35.081S606.091,83.961,596.072,99c-25.262,37.918-8.15,79.255-33.354,87.454-48.079,15.638-33.872,58.844-40.222,78.013-7.117,16.678-19.7,11.909-27.476,25.833-11.088,18.921-7.084,45.233,6.6,60.986,7.893,9.086,18.843,15.019,22.517,28.066,5.122,18.185-7.156,39.316-1.558,57.246,4.818,15.43,19.652,19.117,32.1,19.736a269.245,269.245,0,0,0,49.181-2.073c3.055-.408,6.263-.952,8.74-3.384,3.847-3.782,4.776-10.853,5.321-17.213.349-4.111.606-8.232.89-12.349l25.829-.075Z" transform="translate(-488.612 -85.201)" fill="none"/>
    </clipPath>
    <clipPath id="clip-path-2">
      <rect id="Rectangle_16840" data-name="Rectangle 16840" width="142.572" height="170.13" rx="4.145" fill="#3da4d8"/>
    </clipPath>
  </defs>
  <g id="Group_8546" data-name="Group 8546" transform="translate(-488.612 -119.329)">
    <path id="Path_1945" data-name="Path 1945" d="M730.9,135.839H635.19a6.309,6.309,0,0,0-6.113,6.484V336.472a6.307,6.307,0,0,0,6.113,6.484H762.759a6.3,6.3,0,0,0,6.113-6.484V177.15a6.7,6.7,0,0,0-1.725-4.515l-31.864-34.827A5.943,5.943,0,0,0,730.9,135.839Z" transform="translate(317.457 201.438)" fill="#d7ebff"/>
    <g id="Group_8487" data-name="Group 8487" transform="translate(963.984 380.505)">
      <g id="Group_8456" data-name="Group 8456" transform="translate(79.451 0)">
        <rect id="Rectangle_16804" data-name="Rectangle 16804" width="21.773" height="1.63" fill="#afd2ef"/>
      </g>
      <g id="Group_8457" data-name="Group 8457" transform="translate(0 0)">
        <rect id="Rectangle_16805" data-name="Rectangle 16805" width="69.082" height="1.63" fill="#afd2ef"/>
      </g>
      <g id="Group_8458" data-name="Group 8458" transform="translate(49.21 9.497)">
        <rect id="Rectangle_16806" data-name="Rectangle 16806" width="52.014" height="1.63" fill="#afd2ef"/>
      </g>
      <g id="Group_8459" data-name="Group 8459" transform="translate(0 9.497)">
        <rect id="Rectangle_16807" data-name="Rectangle 16807" width="34.524" height="1.63" fill="#afd2ef"/>
      </g>
      <g id="Group_8460" data-name="Group 8460" transform="translate(24.731 18.994)">
        <rect id="Rectangle_16808" data-name="Rectangle 16808" width="76.493" height="1.63" fill="#afd2ef"/>
      </g>
      <g id="Group_8461" data-name="Group 8461" transform="translate(0 18.994)">
        <rect id="Rectangle_16809" data-name="Rectangle 16809" width="14.938" height="1.63" fill="#afd2ef"/>
      </g>
      <g id="Group_8462" data-name="Group 8462" transform="translate(72.813 28.489)">
        <rect id="Rectangle_16810" data-name="Rectangle 16810" width="28.411" height="1.63" fill="#afd2ef"/>
      </g>
      <g id="Group_8463" data-name="Group 8463" transform="translate(0 28.489)">
        <rect id="Rectangle_16811" data-name="Rectangle 16811" width="62.352" height="1.63" fill="#afd2ef"/>
      </g>
      <g id="Group_8464" data-name="Group 8464" transform="translate(87.312 37.986)">
        <rect id="Rectangle_16812" data-name="Rectangle 16812" width="13.912" height="1.63" fill="#afd2ef"/>
      </g>
      <g id="Group_8465" data-name="Group 8465" transform="translate(42.346 37.986)">
        <rect id="Rectangle_16813" data-name="Rectangle 16813" width="35.24" height="1.63" fill="#afd2ef"/>
      </g>
      <g id="Group_8466" data-name="Group 8466" transform="translate(0 37.986)">
        <rect id="Rectangle_16814" data-name="Rectangle 16814" width="32.616" height="1.63" fill="#afd2ef"/>
      </g>
      <g id="Group_8467" data-name="Group 8467" transform="translate(68.223 47.483)">
        <rect id="Rectangle_16815" data-name="Rectangle 16815" width="33.002" height="1.63" fill="#afd2ef"/>
      </g>
      <g id="Group_8468" data-name="Group 8468" transform="translate(0 47.483)">
        <rect id="Rectangle_16816" data-name="Rectangle 16816" width="57.761" height="1.63" fill="#afd2ef"/>
      </g>
      <g id="Group_8469" data-name="Group 8469" transform="translate(26.338 56.979)">
        <rect id="Rectangle_16817" data-name="Rectangle 16817" width="74.886" height="1.63" fill="#afd2ef"/>
      </g>
      <g id="Group_8470" data-name="Group 8470" transform="translate(0 56.979)">
        <rect id="Rectangle_16818" data-name="Rectangle 16818" width="16.533" height="1.63" fill="#afd2ef"/>
      </g>
      <g id="Group_8471" data-name="Group 8471" transform="translate(93.373 66.476)">
        <rect id="Rectangle_16819" data-name="Rectangle 16819" width="7.851" height="1.63" fill="#afd2ef"/>
      </g>
      <g id="Group_8472" data-name="Group 8472" transform="translate(0 66.476)">
        <rect id="Rectangle_16820" data-name="Rectangle 16820" width="85.478" height="1.63" fill="#afd2ef"/>
      </g>
      <g id="Group_8473" data-name="Group 8473" transform="translate(55.87 75.973)">
        <rect id="Rectangle_16821" data-name="Rectangle 16821" width="45.354" height="1.63" fill="#afd2ef"/>
      </g>
      <g id="Group_8474" data-name="Group 8474" transform="translate(0 75.973)">
        <rect id="Rectangle_16822" data-name="Rectangle 16822" width="45.8" height="1.63" fill="#afd2ef"/>
      </g>
      <g id="Group_8475" data-name="Group 8475" transform="translate(33.365 85.468)">
        <rect id="Rectangle_16823" data-name="Rectangle 16823" width="67.859" height="1.63" fill="#afd2ef"/>
      </g>
      <g id="Group_8476" data-name="Group 8476" transform="translate(0 85.468)">
        <rect id="Rectangle_16824" data-name="Rectangle 16824" width="23.298" height="1.63" fill="#afd2ef"/>
      </g>
      <g id="Group_8477" data-name="Group 8477" transform="translate(89.031 94.965)">
        <rect id="Rectangle_16825" data-name="Rectangle 16825" width="12.193" height="1.63" fill="#afd2ef"/>
      </g>
      <g id="Group_8478" data-name="Group 8478" transform="translate(0 94.965)">
        <rect id="Rectangle_16826" data-name="Rectangle 16826" width="79.162" height="1.63" fill="#afd2ef"/>
      </g>
      <g id="Group_8479" data-name="Group 8479" transform="translate(58.633 104.462)">
        <rect id="Rectangle_16827" data-name="Rectangle 16827" width="42.591" height="1.63" fill="#afd2ef"/>
      </g>
      <g id="Group_8480" data-name="Group 8480" transform="translate(0 104.462)">
        <rect id="Rectangle_16828" data-name="Rectangle 16828" width="48.169" height="1.63" fill="#afd2ef"/>
      </g>
      <g id="Group_8481" data-name="Group 8481" transform="translate(15.6 113.959)">
        <rect id="Rectangle_16829" data-name="Rectangle 16829" width="85.624" height="1.63" fill="#afd2ef"/>
      </g>
      <g id="Group_8482" data-name="Group 8482" transform="translate(0 113.959)">
        <rect id="Rectangle_16830" data-name="Rectangle 16830" width="8.494" height="1.63" fill="#afd2ef"/>
      </g>
      <g id="Group_8483" data-name="Group 8483" transform="translate(81.925 123.454)">
        <rect id="Rectangle_16831" data-name="Rectangle 16831" width="19.299" height="1.63" fill="#afd2ef"/>
      </g>
      <g id="Group_8484" data-name="Group 8484" transform="translate(0 123.454)">
        <rect id="Rectangle_16832" data-name="Rectangle 16832" width="72.056" height="1.63" fill="#afd2ef"/>
      </g>
      <g id="Group_8485" data-name="Group 8485" transform="translate(50.935 132.951)">
        <rect id="Rectangle_16833" data-name="Rectangle 16833" width="50.289" height="1.63" fill="#afd2ef"/>
      </g>
      <g id="Group_8486" data-name="Group 8486" transform="translate(0 132.951)">
        <rect id="Rectangle_16834" data-name="Rectangle 16834" width="40.076" height="1.63" fill="#afd2ef"/>
      </g>
    </g>
    <g id="Group_8489" data-name="Group 8489" transform="translate(835.628 119.329)">
      <g id="Group_8488" data-name="Group 8488">
        <path id="Path_1946" data-name="Path 1946" d="M654.1,273.925c2.846-8.926-5.219-21.2-13.862-17.575q-1.208-10.939-2.416-21.875c-.2-1.845-.359-3.883.727-5.389,1.353-1.875,4-2.116,6.315-2.187l11.094-.333c1.884-.059,4.007-.023,5.327,1.324,1.063,1.086,1.284,2.706,1.611,4.189,2.22,10.175,12.538,17.921,22.928,17.21s19.557-9.783,20.375-20.167c1.147-14.579-12.173-26.351-25.7-31.906-1.783-.73-3.723-1.513-4.688-3.182-.978-1.7-.659-3.811-.258-5.728,1.637-7.765,4.176-15.446,4.215-23.384s-3.038-16.512-9.969-20.379c-5.053-2.82-11.844-3.068-15.277-7.73-7.609-10.331,10.413-27.456,1.131-36.314-2.037-1.943-4.89-2.709-7.443-3.9-5.966-2.778-10.132-8.437-11.88-14.755a141.909,141.909,0,0,0,6.934,206.619C647.928,284.269,652.225,279.8,654.1,273.925Z" transform="translate(-595.057 -39.918)" fill="#88dce5"/>
        <path id="Path_1947" data-name="Path 1947" d="M651.565,95.672q-9.14,9.765-18.283,19.531c-6.152,6.572-12.261,17.477-5.49,23.414,2.292,2.011,5.464,2.628,8.137,4.095s5,4.672,3.677,7.417c-1.03,2.132-3.658,2.82-5.633,4.121-4.59,3.019-5.523,9.679-3.6,14.82s6.025,9.122,10,12.92q7.179,6.856,14.351,13.712c2.2,2.1,4.61,4.3,7.622,4.681,3.462.43,6.68-1.659,9.539-3.655l33.357-23.267c5.474-3.824,11.681-9.855,9.141-16.033-1.082-2.631-3.668-4.646-3.954-7.479-.646-6.435,9.558-7.615,13.122-13.011,2.745-4.157.8-9.8-1.992-13.924s-6.474-7.945-7.355-12.848,3.136-10.99,7.938-9.679A22.847,22.847,0,0,1,740.3,114.4c.874,2.187,1.565,4.724,3.6,5.914,2.129,1.245,4.871.489,7.237,1.174,8.975,2.6,2.018,17.643,7.394,25.288,2.846,4.049,8.417,4.851,13.347,5.3q4,.367,8,.73,10.118.919,20.239,1.842A141.918,141.918,0,0,0,644.4,71.281a25.165,25.165,0,0,0-2.321,6.324C640.523,85,644.187,94.059,651.565,95.672Z" transform="translate(-527.778 -68.985)" fill="#88dce5"/>
        <path id="Path_1948" data-name="Path 1948" d="M695.276,334.294c5.712-4.15,15.156,3.511,20.307-1.314-3.6-5.467.753-13.226,6.738-15.87s12.835-1.891,19.381-1.852,13.813-1.066,17.95-6.139,1.842-14.853-4.695-15.159c-4.307-.2-8.4,3.6-12.515,2.328a10.282,10.282,0,0,1-4.375-3.364c-7.081-8.036-12.929-18.158-12.075-28.835s10.85-20.936,21.334-18.745c7.387,1.542,15.57,8.3,21.226,3.309q6.543-16.216,13.092-32.434c1.034-2.559,2.155-5.242,4.336-6.941,2.494-1.94,5.858-2.207,9.011-2.4l28.408-1.721a6.99,6.99,0,0,0,3.645-.9c2.778-1.923,1.474-6.155.646-9.431-2.814-11.156,6.06-23.117,16.978-25.494a141.036,141.036,0,0,0-5.888-16.277q-10.117-.924-20.239-1.842-4-.367-8-.73c-4.929-.447-10.5-1.249-13.347-5.3-5.376-7.645,1.581-22.683-7.394-25.288-2.367-.685-5.109.072-7.237-1.174-2.034-1.19-2.725-3.726-3.6-5.914A22.847,22.847,0,0,0,760.809,98.9c-4.8-1.311-8.815,4.779-7.938,9.679s4.564,8.727,7.355,12.848,4.737,9.767,1.992,13.924c-3.563,5.4-13.767,6.575-13.122,13.011.287,2.833,2.872,4.848,3.954,7.479,2.54,6.178-3.668,12.209-9.141,16.033l-33.357,23.267c-2.859,2-6.077,4.085-9.539,3.655-3.012-.378-5.425-2.582-7.622-4.681q-7.174-6.856-14.351-13.712c-3.971-3.8-8.065-7.775-10-12.92s-.994-11.8,3.6-14.82c1.975-1.3,4.6-1.989,5.633-4.121,1.324-2.745-1-5.95-3.677-7.417s-5.845-2.083-8.137-4.095c-6.771-5.937-.662-16.841,5.49-23.414q9.14-9.766,18.283-19.531c-7.378-1.614-11.042-10.677-9.49-18.067a25.163,25.163,0,0,1,2.321-6.324,141.864,141.864,0,0,0-75.346,39.632c1.747,6.318,5.914,11.977,11.88,14.755,2.552,1.19,5.405,1.956,7.443,3.9,9.281,8.858-8.74,25.983-1.131,36.314,3.433,4.662,10.223,4.91,15.277,7.73,6.931,3.866,10.008,12.444,9.969,20.379s-2.579,15.619-4.215,23.384c-.4,1.917-.72,4.033.258,5.728.965,1.669,2.9,2.452,4.688,3.182,13.529,5.555,26.85,17.327,25.7,31.906-.818,10.383-9.985,19.456-20.375,20.167s-20.708-7.035-22.928-17.21c-.326-1.483-.548-3.1-1.611-4.189-1.32-1.346-3.443-1.382-5.327-1.324l-11.094.333c-2.312.072-4.962.313-6.315,2.188-1.086,1.506-.929,3.544-.727,5.389q1.208,10.934,2.416,21.875c8.642-3.622,16.708,8.649,13.862,17.575-1.874,5.878-6.171,10.344-10.836,14.54a141.262,141.262,0,0,0,73.224,33.918q1.946-5,3.9-10C692.583,337.789,693.476,335.6,695.276,334.294Z" transform="translate(-566.445 -67.393)" fill="#3da4d8"/>
        <path id="Path_1949" data-name="Path 1949" d="M772.119,125.748c.828,3.276,2.132,7.508-.646,9.431a6.99,6.99,0,0,1-3.645.9L739.42,137.8c-3.152.192-6.517.46-9.011,2.4-2.181,1.7-3.3,4.381-4.336,6.941q-6.548,16.216-13.092,32.434c-5.656,4.994-13.839-1.767-21.226-3.309-10.484-2.191-20.48,8.069-21.334,18.745s4.994,20.8,12.075,28.835a10.282,10.282,0,0,0,4.375,3.364c4.117,1.275,8.209-2.53,12.515-2.328,6.536.306,8.831,10.087,4.695,15.159s-11.4,6.175-17.95,6.139-13.392-.8-19.381,1.852-10.337,10.4-6.738,15.87c-5.151,4.825-14.6-2.836-20.307,1.314-1.8,1.307-2.693,3.495-3.5,5.568q-1.951,5-3.9,10c4.391.636,8.845,1.1,13.366,1.327A142,142,0,0,0,789.1,100.254C778.179,102.631,769.305,114.592,772.119,125.748Z" transform="translate(-510.875 1.685)" fill="#88dce5"/>
      </g>
    </g>
    <g id="Group_8506" data-name="Group 8506" transform="translate(488.612 172.196)">
      <path id="Path_1950" data-name="Path 1950" d="M674.33,124.236C663.366,110.39,652,96.2,637.9,89.154S606.11,83.961,596.095,99c-25.265,37.918-8.15,79.255-33.353,87.454-17.793,5.787-30.984,15.766-36.229,39.3-2.761,12.391-.359,27.74-3.994,38.71-1.408,3.3-2.866,6.044-4.541,7.462-9.575,8.1-17.405,7.5-22.938,18.37a50.2,50.2,0,0,0-6.422,25.552c.189,13.559,5.353,26.6,13.03,35.437,7.893,9.082,18.84,15.016,22.514,28.066,5.121,18.181-7.153,39.313-1.555,57.243,4.815,15.43,19.648,19.117,32.1,19.736a269.23,269.23,0,0,0,49.181-2.073c3.058-.408,6.266-.949,8.744-3.384,3.847-3.782,4.773-10.853,5.317-17.213.352-4.111.606-8.232.893-12.349l25.829-.075Z" transform="translate(-488.612 -85.201)" fill="#88dce5"/>
      <g id="Group_8505" data-name="Group 8505">
        <g id="Group_8504" data-name="Group 8504" clip-path="url(#clip-path)">
          <g id="Group_8490" data-name="Group 8490" transform="translate(6.325 176.11)">
            <path id="Path_1951" data-name="Path 1951" d="M500.416,263.352l-1.591-.342a104.489,104.489,0,0,0,1.063-37.768c-.978-6.263-2.549-12.453-4.072-18.442a171.844,171.844,0,0,1-4.571-21.969c-1.826-15.339.306-30.726,2.37-45.608l1.617.225c-2.051,14.778-4.17,30.061-2.367,45.188a170.629,170.629,0,0,0,4.528,21.764c1.532,6.021,3.113,12.255,4.1,18.589A106.084,106.084,0,0,1,500.416,263.352Z" transform="translate(-490.553 -139.222)" fill="#59acb5"/>
          </g>
          <g id="Group_8491" data-name="Group 8491" transform="translate(21.513 127.453)">
            <path id="Path_1952" data-name="Path 1952" d="M498.141,319.473l-1.545-.518c7.922-23.541,4.968-50.407,2.106-76.393-.571-5.18-1.138-10.341-1.617-15.449a423.976,423.976,0,0,1,2.83-102.816l1.61.241a422.389,422.389,0,0,0-2.817,102.421c.479,5.1,1.047,10.25,1.614,15.427C503.2,268.545,506.177,295.593,498.141,319.473Z" transform="translate(-495.211 -124.297)" fill="#59acb5"/>
          </g>
          <g id="Group_8492" data-name="Group 8492" transform="translate(30.986 89.503)">
            <path id="Path_1953" data-name="Path 1953" d="M508.8,405.109c-2.738-10.207-.893-21.148.893-31.727,1.669-9.884,3.394-20.1,1.353-29.647a72.781,72.781,0,0,0-2.37-8.01,55.768,55.768,0,0,1-2.892-11.045c-1.027-8.339,1.451-16.326,3.847-24.049a111.984,111.984,0,0,0,3.319-12.323c3.208-16.969-1.721-34.094-6.484-50.658-2.142-7.433-4.352-15.117-5.836-22.755-6.712-34.625,1.444-72.112,8-102.238l1.591.349c-6.523,29.976-14.644,67.284-7.994,101.58,1.467,7.567,3.671,15.215,5.8,22.615,4.822,16.744,9.8,34.061,6.523,51.411a114.475,114.475,0,0,1-3.364,12.5c-2.455,7.909-4.773,15.378-3.788,23.365a54.653,54.653,0,0,0,2.82,10.729,73.187,73.187,0,0,1,2.416,8.189c2.109,9.845.359,20.222-1.337,30.256-1.757,10.406-3.576,21.171-.926,31.032Z" transform="translate(-498.117 -112.656)" fill="#59acb5"/>
          </g>
          <g id="Group_8493" data-name="Group 8493" transform="translate(54.893 76.042)">
            <path id="Path_1954" data-name="Path 1954" d="M516.057,435.97c-8.447-19.733-11.72-42.977-9.219-65.445.942-8.483,2.709-16.93,4.417-25.1,2.7-12.884,5.487-26.207,4.991-39.685-.339-9.177-2.21-18.315-4.016-27.15-2.246-10.983-4.571-22.338-3.974-33.859.375-7.166,1.878-14.207,3.335-21.018,1.7-7.935,3.449-16.144,3.361-24.45-.095-8.933-2.308-17.634-4.45-26.045-1.089-4.274-2.217-8.695-3.061-13.122a115.309,115.309,0,0,1,2.041-51.568l1.575.437a113.629,113.629,0,0,0-2.015,50.824c.835,4.378,1.956,8.776,3.038,13.024,2.165,8.509,4.408,17.3,4.5,26.433.088,8.489-1.682,16.786-3.4,24.809-1.441,6.745-2.931,13.725-3.3,20.763-.59,11.309,1.715,22.563,3.938,33.445,1.822,8.9,3.707,18.1,4.052,27.417.5,13.673-2.3,27.1-5.027,40.079-1.7,8.134-3.459,16.541-4.394,24.946-2.468,22.194.763,45.148,9.1,64.627Z" transform="translate(-505.451 -108.527)" fill="#59acb5"/>
          </g>
          <g id="Group_8494" data-name="Group 8494" transform="translate(68.545 61.532)">
            <path id="Path_1955" data-name="Path 1955" d="M517.759,432.22c-5.689-19.854-3.26-41.484-.913-62.4,1.946-17.356,3.958-35.3,1.421-52.356-.87-5.829-2.282-11.6-3.648-17.174-1.3-5.317-2.65-10.82-3.534-16.395-2.794-17.63-.984-35.851.763-53.468,1.206-12.134,2.452-24.688,2.2-36.989-.186-8.786-1.141-17.656-2.064-26.23-.645-5.989-1.31-12.183-1.711-18.315a220.548,220.548,0,0,1,1.627-44.813l1.617.225a218.957,218.957,0,0,0-1.62,44.483c.4,6.1,1.066,12.271,1.708,18.243.929,8.61,1.888,17.516,2.073,26.371.258,12.4-.994,25-2.2,37.187-1.738,17.516-3.537,35.626-.776,53.051.874,5.51,2.214,10.973,3.5,16.261,1.376,5.614,2.8,11.42,3.677,17.324,2.572,17.265.544,35.316-1.415,52.777-2.328,20.76-4.74,42.231.861,61.771Z" transform="translate(-509.638 -104.076)" fill="#59acb5"/>
          </g>
          <g id="Group_8495" data-name="Group 8495" transform="translate(74.765 50.95)">
            <path id="Path_1956" data-name="Path 1956" d="M535.054,447.586l-1.529-.571c7.2-19.313,7.5-43.685.926-74.512-1.741-8.153-3.818-16.349-5.826-24.278-4.052-15.994-8.238-32.535-9.884-49.556-2.272-23.538.349-47.571,2.882-70.812,2.657-24.333,5.4-49.494,2.481-73.958-2.181-18.269-7.459-35.72-12.558-52.6l1.558-.469c5.121,16.942,10.419,34.465,12.616,52.875,2.944,24.652.189,49.908-2.474,74.329-2.527,23.159-5.141,47.108-2.882,70.479,1.63,16.9,5.8,33.376,9.839,49.312,2.015,7.942,4.095,16.154,5.839,24.34C542.683,403.3,542.363,427.973,535.054,447.586Z" transform="translate(-511.546 -100.83)" fill="#59acb5"/>
          </g>
          <g id="Group_8496" data-name="Group 8496" transform="translate(84.769 -3.086)">
            <path id="Path_1957" data-name="Path 1957" d="M555.207,477.965a238.73,238.73,0,0,1,1.565-56.976c.241-1.637.5-3.293.756-4.965,2.393-15.4,4.867-31.329-1.441-43.613-2.409-4.691-5.77-8.075-9.33-11.661-3.338-3.358-6.787-6.83-9.294-11.417-8.841-16.176-3.087-38.612,2.011-54.081,5.611-17.021,11.964-36.31,6.256-53.227a69.418,69.418,0,0,0-4.695-10.2,59.813,59.813,0,0,1-5.451-12.626c-2.227-8.378-1.187-17.347-.176-26.018.753-6.481,1.532-13.187.955-19.632-.994-11.117-5.894-20.76-10.631-30.087-4.43-8.724-9.014-17.744-10.566-28.108-1.6-10.706.336-22.331,5.19-31.1l1.425.789c-4.685,8.463-6.556,19.7-5,30.064,1.513,10.106,6.038,19.006,10.409,27.616,4.808,9.464,9.777,19.247,10.8,30.677.59,6.615-.2,13.4-.962,19.968-1.033,8.913-2.011,17.334.13,25.412a58.788,58.788,0,0,0,5.317,12.281,71.05,71.05,0,0,1,4.805,10.439c5.878,17.438-.567,37-6.256,54.26-5,15.182-10.67,37.171-2.129,52.79,2.4,4.385,5.764,7.775,9.017,11.048,3.491,3.518,7.1,7.153,9.627,12.065,6.549,12.757,4.033,28.949,1.6,44.611-.258,1.666-.515,3.319-.756,4.952a237.369,237.369,0,0,0-1.552,56.588Z" transform="translate(-514.615 -84.255)" fill="#59acb5"/>
          </g>
          <g id="Group_8497" data-name="Group 8497" transform="translate(122.332 -9.241)">
            <path id="Path_1958" data-name="Path 1958" d="M566.532,501.114c-9.308-21.608-20-50.332-20.075-80.947-.033-12.779,1.777-25.657,3.528-38.11,2.377-16.923,4.838-34.426,2.562-51.489-1.389-10.432-4.528-20.392-7.557-30.019a236.208,236.208,0,0,1-6.357-22.859,137.66,137.66,0,0,1,1.826-61.416c1.526-5.845,3.443-11.619,5.3-17.2,3.469-10.435,7.051-21.223,8.091-32.7,2.774-30.71-12.167-57.915-27.71-83.151l1.389-.854c15.687,25.468,30.765,52.943,27.945,84.152-1.056,11.664-4.672,22.543-8.167,33.067-1.849,5.555-3.759,11.306-5.268,17.1a135.943,135.943,0,0,0-1.806,60.676,234.4,234.4,0,0,0,6.311,22.7c3.055,9.7,6.214,19.723,7.622,30.292,2.3,17.288-.173,34.9-2.566,51.933-1.741,12.4-3.544,25.22-3.511,37.885.072,30.315,10.7,58.837,19.942,80.3Z" transform="translate(-526.137 -82.367)" fill="#59acb5"/>
          </g>
          <g id="Group_8498" data-name="Group 8498" transform="translate(159.542 -9.531)">
            <path id="Path_1959" data-name="Path 1959" d="M557.167,445.047c-11.821-9.581-19.521-27.7-19.616-46.166-.072-13.373,3.547-26.221,7.051-38.645,3.593-12.753,7.309-25.943,6.941-39.561-.271-10.044-2.774-19.811-5.19-29.259-2.064-8.059-4.2-16.392-4.985-24.956-1.731-18.837,3.061-37.171,7.694-54.9,3.276-12.535,6.664-25.5,7.782-38.648,2.54-29.921-6.22-58.508-17.053-90.1l1.542-.531c10.9,31.776,19.7,60.533,17.135,90.77-1.131,13.291-4.535,26.322-7.827,38.922-4.6,17.594-9.353,35.789-7.648,54.342.776,8.437,2.892,16.7,4.939,24.7,2.438,9.536,4.965,19.394,5.242,29.621.375,13.862-3.378,27.173-7.006,40.043-3.469,12.316-7.058,25.053-6.986,38.195.095,18,7.557,35.623,19.013,44.907Z" transform="translate(-537.551 -82.278)" fill="#59acb5"/>
          </g>
          <g id="Group_8499" data-name="Group 8499" transform="translate(95.903 -11.523)">
            <path id="Path_1960" data-name="Path 1960" d="M547.507,207.9a7.155,7.155,0,0,1-4.845-1.861c-3.094-2.781-4.166-7.968-4.522-11.831a97.776,97.776,0,0,1-.235-10.044,92.22,92.22,0,0,0-.28-10.393c-1.047-10.129-5.435-19.013-9.673-27.606-1.02-2.064-2.037-4.124-3.009-6.2-6.761-14.452-8.577-26.834-5.389-36.809l1.552.5c-3.058,9.568-1.268,21.552,5.314,35.619.965,2.064,1.979,4.111,2.993,6.168,4.307,8.721,8.757,17.738,9.836,28.157a94.306,94.306,0,0,1,.287,10.579,96.966,96.966,0,0,0,.228,9.878c.329,3.573,1.288,8.339,3.987,10.765,2.947,2.654,7.052,1.314,9.575-1.389,2.438-2.611,4.271-6.621,5.764-12.62,5.725-22.983,1.138-50.136-11.417-67.568-1.281-1.777-2.667-3.508-4.013-5.18-3.136-3.912-6.387-7.955-8.59-13.017-3.218-7.381-3.456-18.145,1.711-23.381l1.157,1.144c-4.62,4.681-4.31,14.85-1.372,21.588,2.116,4.861,5.294,8.818,8.365,12.646,1.356,1.689,2.761,3.436,4.065,5.249,12.815,17.8,17.506,45.491,11.671,68.914-1.558,6.279-3.514,10.517-6.152,13.34A9.769,9.769,0,0,1,547.507,207.9Z" transform="translate(-518.03 -81.667)" fill="#59acb5"/>
          </g>
          <g id="Group_8500" data-name="Group 8500" transform="translate(114.024 211.345)">
            <path id="Path_1961" data-name="Path 1961" d="M545.713,212.153a4.181,4.181,0,0,1-2.755-1.663l-8.74-9.35a44.025,44.025,0,0,1-5.92-7.358c-3.71-6.178-5.311-14.921-4.506-24.617.923-11.169,4.581-18.484,9.536-19.094,4.659-.571,9.239,4.711,12.571,14.514a72.715,72.715,0,0,1,2.892,13.656c1.588,11.945,1.6,21.353.046,29.611-.483,2.553-1.34,3.941-2.637,4.241A2.078,2.078,0,0,1,545.713,212.153Zm-11.7-60.494a4,4,0,0,0-.482.029c-4.082.5-7.267,7.417-8.111,17.611-.776,9.356.747,17.754,4.28,23.645a42.935,42.935,0,0,0,5.715,7.084l8.737,9.347c.382.408,1.183,1.255,1.682,1.131.205-.046.922-.4,1.4-2.957,1.526-8.082,1.51-17.324-.059-29.093a71.265,71.265,0,0,0-2.813-13.347C541.468,156.618,537.631,151.66,534.009,151.66Z" transform="translate(-523.589 -150.03)" fill="#59acb5"/>
          </g>
          <g id="Group_8501" data-name="Group 8501" transform="translate(86.54 58.986)">
            <path id="Path_1962" data-name="Path 1962" d="M535.432,447.729l-1.63-.065c.469-12.043,2.243-24.362,3.958-36.275,3.312-23.062,6.742-46.909.509-68.68-2.406-8.4-6.23-16.271-9.93-23.88-5.8-11.938-11.8-24.284-12.222-38.694-.369-12.685,3.7-24.838,7.635-36.591,4.76-14.227,9.258-27.665,6.484-41.859a80.855,80.855,0,0,0-2.478-8.955,67.6,67.6,0,0,1-2.875-11.257c-.923-6.735.085-13.559,1.06-20.154a112.4,112.4,0,0,0,1.4-12.955c.489-16.542-6.54-31.988-12.183-44.4l1.483-.675c5.715,12.564,12.828,28.2,12.33,45.116a113.763,113.763,0,0,1-1.415,13.148c-.959,6.484-1.95,13.187-1.056,19.691a65.831,65.831,0,0,0,2.813,10.986,81.934,81.934,0,0,1,2.52,9.141c2.856,14.612-1.92,28.884-6.54,42.684-3.886,11.619-7.906,23.632-7.547,36.03.407,14.061,6.067,25.7,12.059,38.028,3.729,7.671,7.583,15.6,10.028,24.141,6.334,22.106,2.879,46.13-.46,69.361C537.662,423.494,535.9,435.768,535.432,447.729Z" transform="translate(-515.158 -103.295)" fill="#59acb5"/>
          </g>
          <g id="Group_8502" data-name="Group 8502" transform="translate(144.204 -12.36)">
            <path id="Path_1963" data-name="Path 1963" d="M555.725,459c-11.642-19.665-16.317-46.055-12.5-70.6.809-5.2,2-10.383,3.146-15.391,1.881-8.2,3.827-16.669,4.1-25.314.456-14.331-3.641-28.092-7.606-41.4-3.3-11.084-6.716-22.547-7.6-34.475-1.314-17.627,2.934-34.856,7.042-51.519,1.721-6.983,3.5-14.2,4.845-21.35,7.378-39.17,2.028-82.851-14.305-116.84l1.474-.707c16.473,34.292,21.872,78.349,14.436,117.851-1.353,7.192-3.139,14.432-4.864,21.435-4.078,16.542-8.294,33.64-7,51.01.871,11.752,4.261,23.13,7.537,34.13,4,13.435,8.137,27.322,7.674,41.918-.28,8.8-2.243,17.353-4.143,25.624-1.141,4.981-2.324,10.132-3.123,15.28-3.759,24.177.838,50.166,12.294,69.514Z" transform="translate(-532.846 -81.41)" fill="#59acb5"/>
          </g>
          <g id="Group_8503" data-name="Group 8503" transform="translate(39.314 108.908)">
            <path id="Path_1964" data-name="Path 1964" d="M508,196.265a2.032,2.032,0,0,1-.727-.134c-1.751-.642-2.957-3.6-3.518-5.3-2.722-8.232-3.087-19.048-3.087-28.545v-.766c-.062-40.623,4.251-42.234,5.669-42.765,1.121-.417,2.279.062,3.446,1.412,3.547,4.1,3.185,32,2.37,58.759-.068,2.279-.127,4.117-.153,5.353-.192,8.991-1.751,10.967-2.9,11.668A2.106,2.106,0,0,1,508,196.265Zm-.887-76.018a.546.546,0,0,0-.205.036c-1.1.411-4.665,4.59-4.61,41.233v.769c0,9.369.355,20.023,3.006,28.036.929,2.813,1.943,4.065,2.533,4.28a.42.42,0,0,0,.411-.049c.58-.352,1.946-2.06,2.122-10.312.026-1.239.085-3.081.153-5.369.447-14.621,1.633-53.468-1.976-57.641C508.148,120.762,507.594,120.247,507.118,120.247Z" transform="translate(-500.672 -118.608)" fill="#59acb5"/>
          </g>
        </g>
      </g>
    </g>
    <path id="Path_1966" data-name="Path 1966" d="M517.58,94.721V343.072c0,10.012,8.841,18.129,19.749,18.129H904.793c10.908,0,19.75-8.117,19.75-18.129V95.529Z" transform="translate(65.468 108.51)" fill="#3775bf"/>
    <rect id="Rectangle_16836" data-name="Rectangle 16836" width="72.446" height="25.612" transform="translate(689.005 517.49)" fill="#ff9985"/>
    <rect id="Rectangle_16837" data-name="Rectangle 16837" width="72.446" height="25.612" transform="translate(587.219 518.182)" fill="#ff9985"/>
    <path id="Path_1969" data-name="Path 1969" d="M924.542,101.5c0-10.012-8.841-18.129-19.75-18.129H537.329c-10.908,0-19.749,8.118-19.749,18.129v18.876l406.962.808Z" transform="translate(65.468 82.856)" fill="#1b277a"/>
    <g id="Group_8508" data-name="Group 8508" transform="translate(494.177 542.073)">
      <rect id="Rectangle_16838" data-name="Rectangle 16838" width="590.534" height="3.26" fill="#000543"/>
    </g>
    <g id="Group_8515" data-name="Group 8515" transform="translate(626.554 217.446)">
      <rect id="Rectangle_16839" data-name="Rectangle 16839" width="142.572" height="170.13" rx="4.145" fill="#3da4d8"/>
      <g id="Group_8514" data-name="Group 8514" clip-path="url(#clip-path-2)">
        <g id="Group_8511" data-name="Group 8511" transform="translate(28.038 100.611)">
          <g id="Group_8510" data-name="Group 8510">
            <g id="Group_8509" data-name="Group 8509">
              <path id="Path_1970" data-name="Path 1970" d="M544.143,223.509h103.2c.681-17.506,2.84-23.851-3.853-61.5-3.377-18.99-15.749-28.033-36.734-31.733-9.5-1.676-53.025,3.338-60.94,9.079-11.511,17.334-3.707,36.219-3.726,57.331A86.38,86.38,0,0,1,544.143,223.509Z" transform="translate(-539.526 -129.943)" fill="#fff"/>
            </g>
          </g>
        </g>
        <path id="Path_1971" data-name="Path 1971" d="M564.432,218.662c1.422-6.68,3.847-17.083,4.222-19.586,2.223-14.983,9.764-45.667,11.11-57.305,2.579-22.247-32.923-2.1-39,19.652-3.987,14.263-9.275,46.231-10.23,57.24Z" transform="translate(-531.816 -24.485)" fill="#fff"/>
        <g id="Group_8512" data-name="Group 8512" transform="translate(58.067 22.07)">
          <path id="Path_1972" data-name="Path 1972" d="M550.012,143.937c-.962,1.545-1.76,3.524-.923,5.131.8,1.532,2.774,2.064,3.723,3.508,1.411,2.135.28,5.734,2.439,7.078.857.531,1.995.5,2.794,1.1l.818-8.157a6.48,6.48,0,0,1-1.7-4.9c.189-3.267,2.478-5.8,5.135-5.718l-.874,10.3c-.6,4.646.072,9.871,2.885,13.562a44,44,0,0,0,6.68,6.426c1.565,1.148,4.267,1.728,7.11,2.044,3.521.395,7.263.381,9.4.453,3.6.127,7.57-3.449,8.473-7l1.562-12.277c-.737.026-12.551.408-19.834-1.969-6.122-2-6.6-3.364-7.955-9.764l-1.333-6.321a64.786,64.786,0,0,0,28.431-10.84,19.6,19.6,0,0,1,3.312,10.338,2.488,2.488,0,0,0,1.2-.447c.981-.7,1-1.539,1.1-2.663a49.738,49.738,0,0,0-.049-9.294c-.258-2.465-.893-5.18-2.931-6.527a26.48,26.48,0,0,1-2.611-1.47c-1.265-1.063-1.594-2.859-2.021-4.473s-1.239-3.387-2.83-3.8c-1.519-.4-3.1.629-4.655.391-2.3-.352-3.984-3.355-6.223-2.7a12.976,12.976,0,0,0-1.894,1.05,10.683,10.683,0,0,0-3.524-.737,2.554,2.554,0,0,0-.994-.186,2.023,2.023,0,0,0-1.089.437c-4.512,1.131-6.7,5.959-10.478,8.473-4.163,2.768-9.826,4.251-11.029,10.2a18.683,18.683,0,0,1-.574,2.9c-.424,1.121-1.281,2-1.757,3.1-1.386,3.192.76,6.879,1.672,10.3A26.481,26.481,0,0,1,550.012,143.937Zm39.557,14.149c-1.1,2.817-4.362,2.145-4.362,2.145-2.9-.59-3.214-2.054-3.283-3.293Z" transform="translate(-548.737 -105.851)" fill="#000543"/>
          <path id="Path_1973" data-name="Path 1973" d="M552.871,122.654c.189-3.267,2.478-5.8,5.135-5.718l-.874,10.3c-.6,4.646.072,9.871,2.885,13.562a44,44,0,0,0,6.68,6.426c1.565,1.148,4.267,1.728,7.11,2.044l-1.845,18.331-3.651,1.434-17.676-2.24,3.12-31.081.818-8.157A6.48,6.48,0,0,1,552.871,122.654Z" transform="translate(-544.447 -80.803)" fill="#ff9985"/>
          <path id="Path_1974" data-name="Path 1974" d="M583.827,141.111c.033-.313.082-.619.1-.939l2.37-14.546-4.173-.205a1.138,1.138,0,0,1,.117-2.272l4.2.205a2.87,2.87,0,0,0,.068-.8,19.6,19.6,0,0,0-3.312-10.338,64.787,64.787,0,0,1-28.431,10.84l1.333,6.321c1.353,6.4,1.832,7.762,7.955,9.764C571.341,141.515,583.155,141.134,583.827,141.111Zm-1.7-14.729c.714.033,1.242.965,1.183,2.08s-.681,1.989-1.4,1.956-1.242-.968-1.184-2.083S581.414,126.346,582.125,126.382Zm-15.991,3.563c-.711-.036-1.242-.968-1.18-2.08s.682-1.992,1.392-1.956,1.242.968,1.183,2.083S566.848,129.981,566.135,129.945Zm5.718,6.067.055-.212a1.671,1.671,0,0,0,1.8.792l2.217-.512a2.263,2.263,0,0,0,1.685-1.816l.14.388a2.305,2.305,0,0,1-1.624,3.029l-2.22.512A1.747,1.747,0,0,1,571.853,136.012Zm-2.09-11.2-4.206-.205a1.138,1.138,0,0,1,.121-2.272l4.2.209a1.136,1.136,0,0,1-.117,2.269Z" transform="translate(-535.102 -91.472)" fill="#ff9985"/>
          <path id="Path_1975" data-name="Path 1975" d="M558.812,117.59a1.138,1.138,0,0,1,.121-2.272l4.2.209a1.136,1.136,0,0,1-.117,2.269Z" transform="translate(-528.357 -84.46)" fill="#000543"/>
          <path id="Path_1976" data-name="Path 1976" d="M562.837,116.648a1.133,1.133,0,0,1,1.177-1.079l4.2.205a1.158,1.158,0,0,1,1.059,1.193,1.137,1.137,0,0,1-1.177,1.079c-.029,0-4.2-.205-4.2-.205A1.13,1.13,0,0,1,562.837,116.648Z" transform="translate(-516.874 -83.892)" fill="#000543"/>
          <path id="Path_1977" data-name="Path 1977" d="M564.131,116.561c.714.033,1.242.965,1.183,2.08s-.681,1.989-1.4,1.956-1.242-.968-1.184-2.083S563.421,116.525,564.131,116.561Z" transform="translate(-517.108 -81.65)" fill="#000543"/>
          <path id="Path_1978" data-name="Path 1978" d="M557.9,118.372c.055-1.115.682-1.992,1.392-1.956s1.242.968,1.184,2.083-.682,1.989-1.4,1.953S557.836,119.483,557.9,118.372Z" transform="translate(-528.045 -81.978)" fill="#000543"/>
          <path id="Path_1979" data-name="Path 1979" d="M561.911,121.306l2.217-.512a2.263,2.263,0,0,0,1.685-1.816l.14.388a2.305,2.305,0,0,1-1.624,3.029l-2.22.512a1.747,1.747,0,0,1-2.057-2.181l.055-.212A1.671,1.671,0,0,0,561.911,121.306Z" transform="translate(-523.303 -76.185)" fill="#fa694f"/>
          <path id="Path_1980" data-name="Path 1980" d="M562.2,124.815c-2.9-.59-3.214-2.054-3.283-3.293l7.645,1.148C565.463,125.486,562.2,124.815,562.2,124.815Z" transform="translate(-525.73 -70.435)" fill="#fff"/>
        </g>
        <g id="Group_8513" data-name="Group 8513" transform="translate(28.657 148.972)">
          <path id="Path_1981" data-name="Path 1981" d="M540.532,180.858a.933.933,0,0,1-.264-.042.818.818,0,0,1-.508-1.037l11.74-34.452a.815.815,0,1,1,1.542.528L541.3,180.3A.813.813,0,0,1,540.532,180.858Z" transform="translate(-539.716 -144.778)" fill="#c4412c"/>
        </g>
      </g>
    </g>
    <rect id="Rectangle_16841" data-name="Rectangle 16841" width="176.007" height="230.712" rx="3.527" transform="translate(791.594 219.993)" fill="#fff"/>
    <g id="Group_8516" data-name="Group 8516" transform="translate(876.707 255.538)">
      <path id="Path_1982" data-name="Path 1982" d="M612.382,120.546h60.552c6.292,0,6.3-9.78,0-9.78H612.382c-6.292,0-6.305,9.78,0,9.78Z" transform="translate(-607.658 -110.766)" fill="#d7ebff"/>
    </g>
    <g id="Group_8517" data-name="Group 8517" transform="translate(876.707 271.092)">
      <path id="Path_1983" data-name="Path 1983" d="M612.382,125.317h11.893c6.295,0,6.3-9.78,0-9.78H612.382c-6.292,0-6.305,9.78,0,9.78Z" transform="translate(-607.658 -115.537)" fill="#d7ebff"/>
    </g>
    <g id="Group_8518" data-name="Group 8518" transform="translate(876.707 286.893)">
      <path id="Path_1984" data-name="Path 1984" d="M612.382,130.164h60.732c6.292,0,6.3-9.78,0-9.78H612.382c-6.292,0-6.305,9.78,0,9.78Z" transform="translate(-607.658 -120.384)" fill="#d7ebff"/>
    </g>
    <g id="Group_8519" data-name="Group 8519" transform="translate(876.707 303.112)">
      <path id="Path_1985" data-name="Path 1985" d="M612.382,135.139h12.975c6.292,0,6.3-9.78,0-9.78H612.382c-6.292,0-6.305,9.78,0,9.78Z" transform="translate(-607.658 -125.359)" fill="#d7ebff"/>
    </g>
    <g id="Group_8520" data-name="Group 8520" transform="translate(802.456 340.531)">
      <path id="Path_1986" data-name="Path 1986" d="M589.606,146.617H726.554c6.292,0,6.305-9.78,0-9.78H589.606c-6.292,0-6.305,9.78,0,9.78Z" transform="translate(-584.882 -136.837)" fill="#d7ebff"/>
    </g>
    <g id="Group_8521" data-name="Group 8521" transform="translate(802.456 324.475)">
      <path id="Path_1987" data-name="Path 1987" d="M589.606,141.692H726.554c6.292,0,6.305-9.78,0-9.78H589.606c-6.292,0-6.305,9.78,0,9.78Z" transform="translate(-584.882 -131.912)" fill="#d7ebff"/>
    </g>
    <g id="Group_8522" data-name="Group 8522" transform="translate(901.036 238.889)">
      <path id="Path_1988" data-name="Path 1988" d="M619.846,115.439h35.678c6.292,0,6.3-9.78,0-9.78H619.846c-6.3,0-6.305,9.78,0,9.78Z" transform="translate(-615.121 -105.659)" fill="#f75b37"/>
    </g>
    <g id="Group_8523" data-name="Group 8523" transform="translate(802.456 356.623)">
      <path id="Path_1989" data-name="Path 1989" d="M589.606,151.553H726.473c6.292,0,6.3-9.78,0-9.78H589.606c-6.292,0-6.305,9.78,0,9.78Z" transform="translate(-584.882 -141.773)" fill="#f75b37"/>
    </g>
    <g id="Group_8524" data-name="Group 8524" transform="translate(920.428 373.272)">
      <path id="Path_1990" data-name="Path 1990" d="M625.793,156.66h17.839c6.292,0,6.3-9.78,0-9.78H625.793c-6.292,0-6.305,9.78,0,9.78Z" transform="translate(-621.069 -146.88)" fill="#f75b37"/>
    </g>
    <g id="Group_8525" data-name="Group 8525" transform="translate(803.52 388.939)">
      <path id="Path_1991" data-name="Path 1991" d="M589.931,161.466H725.487c6.3,0,6.305-9.78,0-9.78H589.931c-6.292,0-6.3,9.78,0,9.78Z" transform="translate(-585.208 -151.686)" fill="#d7ebff"/>
    </g>
    <g id="Group_8526" data-name="Group 8526" transform="translate(803.52 404.193)">
      <path id="Path_1992" data-name="Path 1992" d="M589.931,166.145H724.313c6.3,0,6.305-9.78,0-9.78H589.931c-6.292,0-6.3,9.78,0,9.78Z" transform="translate(-585.208 -156.365)" fill="#d7ebff"/>
    </g>
    <g id="Group_8527" data-name="Group 8527" transform="translate(803.52 420.842)">
      <path id="Path_1993" data-name="Path 1993" d="M589.931,171.252H718.367c6.3,0,6.3-9.78,0-9.78H589.931c-6.292,0-6.3,9.78,0,9.78Z" transform="translate(-585.208 -161.472)" fill="#d7ebff"/>
    </g>
    <path id="Rectangle_16842" data-name="Rectangle 16842" d="M0,0H122.179a2.738,2.738,0,0,1,2.738,2.738V42.465a2.738,2.738,0,0,1-2.738,2.738H0a0,0,0,0,1,0,0V0A0,0,0,0,1,0,0Z" transform="translate(920.35 497.46)" fill="#f75b37"/>
    <g id="Group_8528" data-name="Group 8528" transform="translate(1006.422 508.567)">
      <path id="Path_1994" data-name="Path 1994" d="M659.154,211.788a11.7,11.7,0,1,1,11.7-11.7A11.718,11.718,0,0,1,659.154,211.788Zm0-20.147a8.444,8.444,0,1,0,8.443,8.444A8.454,8.454,0,0,0,659.154,191.641Z" transform="translate(-647.447 -188.381)" fill="#fff"/>
    </g>
    <rect id="Rectangle_16843" data-name="Rectangle 16843" width="17.185" height="44.803" transform="translate(941.19 497.603)" fill="#c63926"/>
    <circle id="Ellipse_1353" data-name="Ellipse 1353" cx="8.054" cy="8.054" r="8.054" transform="translate(905.912 178.775)" fill="#f75b37"/>
    <circle id="Ellipse_1354" data-name="Ellipse 1354" cx="8.054" cy="8.054" r="8.054" transform="translate(930.511 178.775)" fill="#f9eddc"/>
    <path id="Path_1995" data-name="Path 1995" d="M647.475,95.272a8.054,8.054,0,1,1-8.056-8.052A8.054,8.054,0,0,1,647.475,95.272Z" transform="translate(322.633 91.557)" fill="#3da4d8"/>
    <rect id="Rectangle_16844" data-name="Rectangle 16844" width="45.485" height="127.852" rx="2.453" transform="translate(932.695 497.339) rotate(90)" fill="#d7ebff"/>
    <g id="Group_8536" data-name="Group 8536" transform="translate(804.811 504.234)">
      <g id="Group_8529" data-name="Group 8529" transform="translate(0 31.974)">
        <rect id="Rectangle_16845" data-name="Rectangle 16845" width="115.318" height="1.63" fill="#afd2ef"/>
      </g>
      <g id="Group_8530" data-name="Group 8530" transform="translate(0 26.644)">
        <rect id="Rectangle_16846" data-name="Rectangle 16846" width="115.318" height="1.63" fill="#afd2ef"/>
      </g>
      <g id="Group_8531" data-name="Group 8531" transform="translate(0 21.316)">
        <rect id="Rectangle_16847" data-name="Rectangle 16847" width="115.318" height="1.63" fill="#afd2ef"/>
      </g>
      <g id="Group_8532" data-name="Group 8532" transform="translate(0 15.987)">
        <rect id="Rectangle_16848" data-name="Rectangle 16848" width="115.318" height="1.63" fill="#afd2ef"/>
      </g>
      <g id="Group_8533" data-name="Group 8533" transform="translate(0 10.657)">
        <rect id="Rectangle_16849" data-name="Rectangle 16849" width="115.318" height="1.63" fill="#afd2ef"/>
      </g>
      <g id="Group_8534" data-name="Group 8534" transform="translate(0 5.33)">
        <rect id="Rectangle_16850" data-name="Rectangle 16850" width="115.318" height="1.63" fill="#afd2ef"/>
      </g>
      <g id="Group_8535" data-name="Group 8535">
        <rect id="Rectangle_16851" data-name="Rectangle 16851" width="115.318" height="1.63" fill="#afd2ef"/>
      </g>
    </g>
    <rect id="Rectangle_16852" data-name="Rectangle 16852" width="39.007" height="4.412" rx="0.41" transform="translate(924.222 501.228) rotate(90)" fill="#afd2ef"/>
    <path id="Path_1997" data-name="Path 1997" d="M552.621,130.477l17.265,7.622-9.405,6.191S544.047,136.43,552.621,130.477Z" transform="translate(139.065 189.32)" fill="#f9eddc"/>
    <path id="Path_1998" data-name="Path 1998" d="M560.709,129.872l-4.509,9.594,5.474,2.963S569.077,134.273,560.709,129.872Z" transform="translate(152.752 187.953)" fill="#f9eddc"/>
    <g id="Group_8538" data-name="Group 8538" transform="translate(803.291 242.032)">
      <path id="Path_1999" data-name="Path 1999" d="M635.4,175l-4.939-16.209H605.637L600.7,175h-15.56l24.04-68.38h17.653L650.958,175Zm-8.388-28.32q-6.846-22.035-7.707-24.92t-1.236-4.567q-1.535,5.966-8.8,29.487Z" transform="translate(-585.138 -106.623)" fill="#000543"/>
    </g>
    <circle id="Ellipse_1355" data-name="Ellipse 1355" cx="5.706" cy="5.706" r="5.706" transform="translate(634.817 225.196)" fill="#f75b37"/>
    <g id="Group_8539" data-name="Group 8539" transform="translate(731.038 403.564)">
      <path id="Path_2000" data-name="Path 2000" d="M597.052,199.423H569a6.033,6.033,0,0,1-6.025-6.025V162.2A6.033,6.033,0,0,1,569,156.172h28.053a6.031,6.031,0,0,1,6.021,6.025v31.2A6.031,6.031,0,0,1,597.052,199.423ZM569,157.8A4.4,4.4,0,0,0,564.6,162.2v31.2A4.4,4.4,0,0,0,569,197.793h28.053a4.4,4.4,0,0,0,4.391-4.395V162.2a4.4,4.4,0,0,0-4.391-4.395Z" transform="translate(-562.975 -156.172)" fill="#1b277a"/>
    </g>
    <g id="Group_8540" data-name="Group 8540" transform="translate(607.085 322.989)">
      <path id="Path_2001" data-name="Path 2001" d="M649.337,233.708H525.768a.815.815,0,0,1-.815-.815V132.271a.815.815,0,1,1,1.63,0v99.807H649.337a.815.815,0,1,1,0,1.63Z" transform="translate(-524.953 -131.456)" fill="#1b277a"/>
    </g>
    <g id="Group_8544" data-name="Group 8544" transform="translate(569.52 330.456)">
      <g id="Group_8541" data-name="Group 8541" transform="translate(94.886 35.797)">
        <path id="Path_2002" data-name="Path 2002" d="M561.252,201.031a34.934,34.934,0,0,0,25.125-25.556c.166-.238.31-.476.473-.717a12.285,12.285,0,0,1-3.6-7.169c-.805-5.441,1.774-10.116,5.764-10.442a6.337,6.337,0,0,1,4.271,1.34,10.166,10.166,0,0,1,2.412,2.676c.818-.241.988-2.8,1.007-3.469.052-1.624-.248-3.24-.251-4.867,0-2.331,1.21-5.249,2.461-8.1L602.2,169.8c.818,8.757-3.006,16.923-9,22.729a31.927,31.927,0,0,1-9.637,6.419,68.687,68.687,0,0,0-4.062,10.921,38.88,38.88,0,0,1-6.39,13.213c-1.206,1.545-2.217-1.663-4.163-1.438-12.225,1.418-26.282-1.187-26.406-3.081-.039-.587,4.688-6.566,5.043-7.039a48.936,48.936,0,0,0,6.325-12.867C556.222,199.819,557.787,201.882,561.252,201.031Z" transform="translate(-542.536 -144.727)" fill="#ff9985"/>
      </g>
      <g id="Group_8542" data-name="Group 8542" transform="translate(74.989 0)">
        <path id="Path_2003" data-name="Path 2003" d="M549.549,205.4a11.063,11.063,0,0,1,.388,1.3c.668,4.424-1.307,9.63,1.607,13.03,1.829,2.139,4.929,2.608,7.743,2.644s5.774-.189,8.307,1.037c1.5.76,2.706,1.852,4.189,2.354a5.766,5.766,0,0,0,3.263.078,7.65,7.65,0,0,0,1.069-.346,34.884,34.884,0,0,0,24.056-25.21c.166-.238.31-.476.473-.717a12.285,12.285,0,0,1-3.6-7.169c-.805-5.441,1.774-10.116,5.764-10.442a6.337,6.337,0,0,1,4.271,1.34,10.168,10.168,0,0,1,2.412,2.676c.818-.241.988-2.8,1.007-3.469.052-1.624-.248-3.24-.251-4.867,0-2.331,1.21-5.249,2.461-8.1a39.067,39.067,0,0,0,2.546-6.712c1.183-5.669.153-13.989-3.038-18.827s-10.6-3.818-16.349-4.577c-2.06-.274-4.222-.235-6.106-1.108-1.656-.773-2.927-2.181-4.492-3.126-3.045-1.839-6.937-1.744-10.344-.717-.166.052-.316.143-.479.2a67.9,67.9,0,0,0-9.184,4.3c-4.838,2.445-10.021,4.336-14.318,7.638a20.388,20.388,0,0,0-4.287,4.489,14,14,0,0,0-2.738,8.049,16.359,16.359,0,0,0-1.757,1.62,22.2,22.2,0,0,0-5.65,13.027,24.716,24.716,0,0,0-.065,2.986c.225,6.641,2.989,13.122,6.947,18.524,2.347,3.2,5.105,6.341,6.152,10.1Z" transform="translate(-536.433 -133.746)" fill="#ffe578"/>
      </g>
      <path id="Path_2004" data-name="Path 2004" d="M606.323,265.308h17.405c4.372-2.494,7.54-7.175,7.723-14.3-10.071-19.877-32.581-52.581-37.96-66.446-11.844-20.858-51.2-20.525-41.729,1.936l6.647,15.938c5.047,11.974,44.272,60.6,44.272,60.6A20.285,20.285,0,0,0,606.323,265.308Z" transform="translate(-430.088 -53.458)" fill="#f9eddc"/>
      <path id="Path_2005" data-name="Path 2005" d="M592.469,170.4l-25,17.588c-10.869,7.12-51.636,54.456-51.636,54.456-5.02,9.4-2.064,21.96,7.87,25.435h10.031c17.777-13.718,45.168-40.94,57.634-48.6C609.751,203.868,612.864,157.044,592.469,170.4Z" transform="translate(-513.43 -56.258)" fill="#f9eddc"/>
      <g id="Group_8543" data-name="Group 8543" transform="translate(41.082 106.608)">
        <path id="Path_2006" data-name="Path 2006" d="M633.914,271.373c.789-24.591,15.26-23.287,21.063-52.265,1.969-9.826-8.241-40.121-25.63-47.362-14.135-5.884-54.616-9.363-66.179,3.358-21.647,23.8-18.272,38.218-29.406,65.768a112.72,112.72,0,0,0-7.73,30.5Z" transform="translate(-526.032 -166.448)" fill="#f9eddc"/>
      </g>
    </g>
    <g id="Group_8545" data-name="Group 8545" transform="translate(600.431 276.396)">
      <path id="Path_2007" data-name="Path 2007" d="M530.188,164.454a7.286,7.286,0,0,1-7.276-7.276V124.44a7.276,7.276,0,1,1,14.553,0v32.737A7.286,7.286,0,0,1,530.188,164.454Zm0-45.66a5.653,5.653,0,0,0-5.646,5.646v32.737a5.646,5.646,0,1,0,11.293,0V124.44A5.653,5.653,0,0,0,530.188,118.794Z" transform="translate(-522.912 -117.164)" fill="#1b277a"/>
    </g>
  </g>
</svg>
