<svg xmlns="http://www.w3.org/2000/svg" width="82.519" height="23.333" viewBox="0 0 82.519 23.333"><defs><style>.a{fill:#9ca3af;}</style></defs><g transform="translate(-20 64)"><g transform="translate(20 -64)"><path class="a" d="M317.33,85.273v.675c0,2.117-1.129,3.466-3.623,3.466h-1.882v3.748c0,.125-.047.189-.2.189H310.57c-.157,0-.22-.063-.22-.189V82.042a.173.173,0,0,1,.172-.172h3.184C316.2,81.87,317.33,83.2,317.33,85.273Zm-5.505-2.055v4.847H313.6c1.663,0,2.259-.784,2.259-2.212v-.47c0-1.412-.6-2.165-2.259-2.165Z" transform="translate(-293.277 -77.366)"/><path class="a" d="M462.664,134.256V136.5a3.12,3.12,0,0,1-3.482,3.356c-2.322,0-3.482-1.349-3.482-3.325v-2.242a3.484,3.484,0,0,1,6.964-.031Zm-5.536.063v2.133a2.063,2.063,0,1,0,4.125,0v-2.133a2.064,2.064,0,1,0-4.125,0Z" transform="translate(-430.631 -123.699)"/><path class="a" d="M605.855,133.135a.2.2,0,0,1-.157.266l-.784.283c-.157.047-.22,0-.267-.141a1.74,1.74,0,0,0-1.867-1.192c-1.051,0-1.678.455-1.678,1.176,0,.66.44.973,2.117,1.459,1.976.564,2.729,1.3,2.729,2.619,0,1.506-1.27,2.525-3.136,2.525-1.694,0-2.933-.737-3.324-1.992-.047-.141,0-.235.156-.314l.706-.314c.172-.063.251-.031.314.157a2.041,2.041,0,0,0,2.117,1.3c1.1,0,1.788-.518,1.788-1.27,0-.737-.471-1.082-2.2-1.584-1.852-.534-2.654-1.255-2.654-2.525,0-1.428,1.224-2.4,3.026-2.4A2.952,2.952,0,0,1,605.855,133.135Z" transform="translate(-566.493 -123.973)"/><path class="a" d="M732.255,94.028V96.1h1.835c.125,0,.188.063.188.22v.77c0,.141-.063.2-.188.2h-1.835v4.972c0,.77.408,1.129,1.192,1.129h.628c.125,0,.2.047.2.188v.88c0,.141-.063.2-.2.2h-.831a2.094,2.094,0,0,1-2.384-2.2V97.29h-1.176c-.11,0-.173-.063-.173-.2v-.77c0-.157.063-.22.173-.22h1.192V94.028c0-.11.047-.188.2-.188h.973C732.208,93.84,732.255,93.918,732.255,94.028Z" transform="translate(-689.378 -88.678)"/><path class="a" d="M830.3,135.841v.69a2.2,2.2,0,0,0,4.125.973c.094-.189.173-.189.345-.11l.674.345c.188.079.2.188.125.345a3.189,3.189,0,0,1-3.184,1.772,3.145,3.145,0,0,1-3.466-3.325v-2.306a3.131,3.131,0,0,1,3.419-3.325,3.088,3.088,0,0,1,3.341,3.31v1.254c0,.251-.125.377-.408.377Zm0-1.647v.643h4.046v-.643a2.025,2.025,0,1,0-4.046,0Z" transform="translate(-783.319 -123.699)"/><path class="a" d="M979.165,132.242v.957c0,.141-.047.2-.2.2h-.188a2.492,2.492,0,0,0-2.447,1.71v5.474a.156.156,0,0,1-.172.173h-1.067a.157.157,0,0,1-.173-.173v-8.266c0-.141.079-.172.189-.172h.97c.141,0,.2.063.2.188l-.016,1.3a2.908,2.908,0,0,1,2.651-1.6C979.118,132.036,979.165,132.07,979.165,132.242Z" transform="translate(-921.281 -124.774)"/><path class="a" d="M1086.288,82.07v9.4h4.456c.157,0,.22.094.22.251v1.412a.2.2,0,0,1-.2.2h-6.26a.193.193,0,0,1-.22-.22V82.07a.193.193,0,0,1,.22-.22h1.553C1086.21,81.851,1086.288,81.929,1086.288,82.07Z" transform="translate(-1024.631 -77.347)"/><path class="a" d="M1223.365,132.9v5.756a.2.2,0,0,1-.22.22h-1.38a.2.2,0,0,1-.22-.22v-1.021a2.865,2.865,0,0,1-2.478,1.412,2.491,2.491,0,0,1-2.666-2.619c0-1.568,1.035-2.476,3.294-2.635a13.462,13.462,0,0,1,1.772-.015v-.8c0-.973-.533-1.364-1.427-1.364a1.281,1.281,0,0,0-1.443.941c-.063.173-.125.2-.3.157l-1.364-.345c-.141-.047-.188-.125-.141-.251.251-1.223,1.364-2.07,3.325-2.07C1222.141,130.05,1223.365,131.007,1223.365,132.9Zm-1.9,3.184v-1.067a13.937,13.937,0,0,0-1.615.031c-1.019.11-1.6.455-1.6,1.27,0,.706.486,1.161,1.32,1.161a2,2,0,0,0,1.894-1.4Z" transform="translate(-1149.482 -122.896)"/><path class="a" d="M1368.252,73.485v4.2a2.776,2.776,0,0,1,2.462-1.27c1.772,0,2.949,1.364,2.949,3.356v2.322c0,1.991-1.161,3.309-3.026,3.309a2.821,2.821,0,0,1-2.446-1.255v.88a.19.19,0,0,1-.2.2h-1.458a.2.2,0,0,1-.22-.2V73.485a.2.2,0,0,1,.2-.2h1.537a.189.189,0,0,1,.2.2Zm0,6.571v1.758a1.73,1.73,0,0,0,1.788,1.883c1.1,0,1.678-.66,1.678-1.883V80.057c0-1.208-.58-1.929-1.678-1.929a1.769,1.769,0,0,0-1.788,1.929Z" transform="translate(-1291.144 -69.249)"/><path class="a" d="M1.905,23.334a1.832,1.832,0,0,1-.922-.242A2.107,2.107,0,0,1,0,21.181V7.775A4.459,4.459,0,0,1,2.056,4.194L9.5.357A2.109,2.109,0,0,1,11.646.243a2.106,2.106,0,0,1,.983,1.91V15.56a4.458,4.458,0,0,1-2.056,3.581L3.127,22.978a2.438,2.438,0,0,1-1.222.356Zm8.6-21.1L3.127,6.03a2.379,2.379,0,0,0-1,1.744V21.1l7.375-3.8a2.385,2.385,0,0,0,1-1.746Z" transform="translate(0 -0.001)"/></g></g></svg>