<?xml version="1.0" encoding="utf-8"?>
<!-- Generator: Adobe Illustrator 24.0.1, SVG Export Plug-In . SVG Version: 6.00 Build 0)  -->
<svg version="1.1" id="Ebene_1" xmlns="http://www.w3.org/2000/svg" xmlns:xlink="http://www.w3.org/1999/xlink" x="0px" y="0px"
	 viewBox="0 0 231.6 150.2" style="enable-background:new 0 0 231.6 150.2;" xml:space="preserve">
<style type="text/css">
	.st0{fill:#00406B;}
</style>
<g>
	<path class="st0" d="M227.8,65.1V6.7c-5.1-0.7-22.4-2.9-48.3-2.9c-20.9,0-42.4,1.4-63.8,4.2c-50.4,6.6-93,18.4-114.1,26.5l-0.3,0.1
		L0,31l0.3-0.1c21.3-8.2,64.2-20.1,114.9-26.7C136.8,1.4,158.4,0,179.5,0c30.7,0,49.7,3.1,50.5,3.2l1.6,0.3v61.6H227.8L227.8,65.1z"
		/>
	<path class="st0" d="M23.2,143.6c2.5,0,4.7-0.5,6.5-1.6c1.8-1.1,3.2-2.6,4.2-4.7c1-2,1.5-4.4,1.5-7.1c0-2.7-0.5-5.1-1.5-7.1
		c-1-2-2.4-3.6-4.2-4.6c-1.8-1.1-4-1.6-6.5-1.6c-2.5,0-4.6,0.5-6.5,1.6c-1.8,1.1-3.2,2.6-4.2,4.6c-1,2-1.5,4.4-1.5,7.1
		c0,2.7,0.5,5.1,1.5,7.1c1,2,2.4,3.6,4.2,4.6C18.6,143,20.7,143.6,23.2,143.6L23.2,143.6L23.2,143.6z M23.2,140.5
		c-2.6,0-4.6-0.9-6.1-2.7c-1.4-1.8-2.2-4.3-2.2-7.6c0-3.3,0.7-5.8,2.2-7.6c1.4-1.8,3.5-2.7,6.1-2.7c2.6,0,4.7,0.9,6.1,2.7
		c1.4,1.8,2.2,4.3,2.2,7.6c0,3.3-0.7,5.8-2.2,7.6C27.9,139.6,25.8,140.5,23.2,140.5L23.2,140.5L23.2,140.5z M46.3,143.3v-26.2h-3.7
		v26.2H46.3L46.3,143.3z M67.4,117.1v10.9c-0.5-1.1-1.3-1.9-2.4-2.5c-1-0.6-2.2-0.9-3.6-0.9c-1.6,0-3,0.4-4.2,1.2
		c-1.2,0.8-2.2,1.9-2.8,3.3c-0.7,1.4-1,3.1-1,4.9c0,1.9,0.3,3.5,1,4.9c0.7,1.4,1.6,2.5,2.9,3.3c1.2,0.8,2.6,1.2,4.2,1.2
		c1.4,0,2.6-0.3,3.6-0.9c1-0.6,1.8-1.4,2.4-2.5v3.1h3.7v-26.2H67.4L67.4,117.1z M62.4,140.6c-1.6,0-2.9-0.6-3.8-1.7
		c-0.9-1.2-1.4-2.7-1.4-4.8c0-2,0.5-3.6,1.4-4.7c0.9-1.1,2.2-1.7,3.8-1.7c1.6,0,2.9,0.6,3.8,1.7c0.9,1.1,1.3,2.7,1.3,4.8
		c0,2.1-0.4,3.6-1.3,4.8C65.3,140,64,140.6,62.4,140.6L62.4,140.6L62.4,140.6z M94.9,133.7c0-2.8-0.7-5-2.1-6.6
		c-1.4-1.6-3.3-2.4-5.8-2.4c-1.7,0-3.2,0.4-4.5,1.2c-1.3,0.8-2.4,1.9-3.1,3.3c-0.7,1.4-1.1,3.1-1.1,4.9c0,2.9,0.8,5.2,2.5,6.9
		c1.7,1.7,4,2.5,6.8,2.5c1.3,0,2.5-0.2,3.8-0.6c1.2-0.4,2.3-1,3.1-1.7l-1.2-2.6c-1.7,1.4-3.6,2-5.6,2c-3.5,0-5.4-1.9-5.7-5.8h12.8
		V133.7L94.9,133.7z M87.1,127.5c1.4,0,2.5,0.5,3.3,1.4c0.8,0.9,1.2,2.2,1.3,3.9h-9.5c0.2-1.7,0.7-3,1.5-3.9
		C84.5,127.9,85.7,127.5,87.1,127.5L87.1,127.5L87.1,127.5z M112.1,124.7c-1.3,0-2.5,0.3-3.6,0.9c-1.1,0.6-1.9,1.4-2.5,2.5v-2.9
		h-3.7v18.1h3.7V133c0-1.6,0.5-2.8,1.4-3.8c0.9-0.9,2.1-1.4,3.6-1.4c1.3,0,2.2,0.4,2.8,1.1c0.6,0.7,0.9,1.8,0.9,3.4v11.1h3.7v-11.2
		C118.6,127.2,116.5,124.7,112.1,124.7L112.1,124.7L112.1,124.7z M136.6,124.7c-1.4,0-2.6,0.3-3.6,0.9c-1,0.6-1.8,1.4-2.4,2.5v-11
		h-3.7v26.2h3.7v-3.1c0.5,1.1,1.3,1.9,2.4,2.5c1,0.6,2.2,0.9,3.6,0.9c1.6,0,3-0.4,4.2-1.2c1.2-0.8,2.2-1.9,2.9-3.3
		c0.7-1.4,1-3.1,1-4.9c0-1.9-0.3-3.5-1-4.9c-0.7-1.4-1.6-2.5-2.8-3.3S138.2,124.7,136.6,124.7L136.6,124.7L136.6,124.7z
		 M135.7,140.6c-1.6,0-2.9-0.6-3.8-1.7c-0.9-1.1-1.3-2.7-1.3-4.8c0-2.1,0.4-3.6,1.3-4.8c0.9-1.1,2.1-1.7,3.8-1.7
		c1.6,0,2.9,0.6,3.8,1.7c0.9,1.1,1.3,2.7,1.3,4.7c0,2.1-0.5,3.6-1.4,4.8C138.6,140,137.3,140.6,135.7,140.6L135.7,140.6L135.7,140.6
		z M163.4,125.2v10.2c0,1.6-0.4,2.8-1.3,3.7c-0.9,0.9-2,1.4-3.5,1.4c-1.2,0-2.2-0.3-2.7-1c-0.6-0.7-0.9-1.8-0.9-3.2v-11.1h-3.7v11.1
		c0,4.8,2.2,7.3,6.6,7.3c1.2,0,2.4-0.3,3.4-0.8c1-0.5,1.8-1.3,2.4-2.4v2.9h3.6v-18.1H163.4L163.4,125.2z M186.8,124.7l-1.2,0.1
		c-3,0.2-4.9,1.4-5.9,3.5v-3.2h-3.6v18.1h3.7v-10.1c0-1.4,0.4-2.6,1.2-3.5c0.8-0.9,2.1-1.5,3.8-1.6l2.3-0.2L186.8,124.7L186.8,124.7
		z M205,125.2v3c-0.5-1.1-1.3-1.9-2.4-2.5c-1.1-0.6-2.3-0.9-3.7-0.9c-1.6,0-3,0.4-4.2,1.1c-1.2,0.8-2.2,1.8-2.9,3.2
		c-0.7,1.4-1,2.9-1,4.7c0,1.8,0.3,3.4,1,4.7c0.7,1.4,1.6,2.4,2.9,3.2c1.2,0.7,2.6,1.1,4.2,1.1c1.4,0,2.6-0.3,3.7-0.9
		c1.1-0.6,1.9-1.5,2.4-2.5v2.9c0,3.4-1.7,5.2-5.1,5.2c-1.3,0-2.4-0.2-3.5-0.5c-1.1-0.3-2.2-0.9-3.4-1.7l-1.1,2.7
		c1.1,0.8,2.3,1.4,3.7,1.8c1.4,0.4,2.9,0.6,4.4,0.6c2.9,0,5-0.7,6.5-2.1c1.5-1.4,2.2-3.5,2.2-6.3v-16.7H205L205,125.2z M199.9,139.8
		c-1.6,0-2.9-0.5-3.8-1.6c-0.9-1.1-1.4-2.5-1.4-4.4c0-1.9,0.5-3.4,1.4-4.4c0.9-1.1,2.2-1.6,3.8-1.6s2.9,0.5,3.8,1.6
		c0.9,1.1,1.4,2.5,1.4,4.4c0,1.9-0.5,3.4-1.4,4.4C202.7,139.2,201.5,139.8,199.9,139.8L199.9,139.8L199.9,139.8z"/>
	<path class="st0" d="M22.4,104.4c3.5,0,6.1-0.9,7.9-2.7c1.8-1.8,2.7-4.5,2.7-8V78h-3.8v16c0,2.4-0.6,4.2-1.7,5.5
		c-1.2,1.2-2.9,1.9-5.1,1.9c-2.3,0-4-0.6-5.1-1.9c-1.2-1.2-1.7-3.1-1.7-5.5V78h-3.8v15.8c0,3.5,0.9,6.2,2.7,8
		C16.3,103.5,18.9,104.4,22.4,104.4L22.4,104.4L22.4,104.4z M49.6,85.6c-1.3,0-2.5,0.3-3.6,0.9c-1.1,0.6-1.9,1.4-2.5,2.5V86h-3.7
		v18.1h3.7V93.8c0-1.6,0.5-2.8,1.4-3.8c0.9-0.9,2.1-1.4,3.6-1.4c1.3,0,2.2,0.4,2.8,1.1c0.6,0.7,0.9,1.8,0.9,3.4v11.1h3.7V92.9
		C56.1,88,53.9,85.6,49.6,85.6L49.6,85.6L49.6,85.6z M67.2,104.2V86h-3.7v18.1H67.2L67.2,104.2z M63.2,81.8h4.3v-3.9h-4.3V81.8
		L63.2,81.8z M81.8,99.9l-5.6-13.8h-3.9l7.8,18.1h3.4l7.9-18.1h-3.7L81.8,99.9L81.8,99.9z M110.8,94.5c0-2.8-0.7-5-2.1-6.6
		c-1.4-1.6-3.3-2.4-5.8-2.4c-1.7,0-3.2,0.4-4.5,1.2c-1.3,0.8-2.4,1.9-3.1,3.3c-0.7,1.4-1.1,3.1-1.1,4.9c0,2.9,0.8,5.2,2.5,6.9
		c1.7,1.7,4,2.5,6.8,2.5c1.3,0,2.5-0.2,3.8-0.6c1.2-0.4,2.3-1,3.1-1.7l-1.2-2.6c-1.7,1.4-3.6,2-5.6,2c-3.5,0-5.4-1.9-5.7-5.8h12.8
		V94.5L110.8,94.5z M103,88.3c1.4,0,2.5,0.5,3.3,1.4c0.8,0.9,1.2,2.2,1.3,3.9H98c0.2-1.7,0.7-3,1.5-3.9
		C100.4,88.8,101.5,88.3,103,88.3L103,88.3L103,88.3z M127.9,85.6l-1.2,0.1c-3,0.2-4.9,1.4-5.9,3.5V86h-3.6v18.1h3.7V94.1
		c0-1.4,0.4-2.6,1.2-3.5c0.8-0.9,2.1-1.5,3.8-1.6l2.3-0.2L127.9,85.6L127.9,85.6z M138.2,104.4c2.3,0,4-0.5,5.4-1.4
		c1.3-1,2-2.2,2-3.9c0-1.3-0.4-2.4-1.2-3.2c-0.8-0.8-2.1-1.4-3.9-1.8l-3.1-0.7c-0.9-0.2-1.5-0.5-1.9-0.9c-0.4-0.4-0.6-0.9-0.6-1.5
		c0-0.8,0.3-1.4,1-1.8c0.7-0.4,1.6-0.7,2.7-0.7c1.9,0,3.7,0.7,5.5,2.1l1.2-2.6c-0.8-0.7-1.8-1.3-3-1.7c-1.2-0.4-2.4-0.6-3.7-0.6
		c-2.2,0-3.9,0.5-5.2,1.5c-1.3,1-2,2.3-2,4c0,1.3,0.4,2.4,1.2,3.2c0.8,0.8,2,1.4,3.6,1.8l3,0.7c1.1,0.2,1.8,0.6,2.2,0.9
		c0.4,0.4,0.6,0.9,0.6,1.5c0,0.7-0.3,1.3-1,1.7c-0.6,0.4-1.6,0.6-2.8,0.6c-2.5,0-4.6-0.7-6.5-2.2l-1.2,2.7
		C132.5,103.6,135,104.4,138.2,104.4L138.2,104.4L138.2,104.4z M155.7,104.2V86h-3.7v18.1H155.7L155.7,104.2z M151.7,81.8h4.3v-3.9
		h-4.3V81.8L151.7,81.8z M172.4,101.5c-2.5,0-3.7-1.3-3.7-4v-8.6h5V86h-5v-5.5H165V86h-3.5v2.9h3.5v8.8c0,2.2,0.6,3.8,1.7,5
		c1.2,1.2,2.9,1.7,5.3,1.7c0.7,0,1.3,0,1.9-0.1l0.2-2.9C173.6,101.5,173,101.5,172.4,101.5L172.4,101.5L172.4,101.5z M186.8,85.6
		c-1.3,0-2.6,0.2-4,0.6c-1.4,0.4-2.5,0.9-3.5,1.6l1.1,2.6c2.1-1.3,4.1-1.9,6.2-1.9c1.3,0,2.3,0.3,2.8,0.9c0.6,0.6,0.9,1.6,0.9,3v1.1
		h-0.9c-2.7,0-4.9,0.2-6.5,0.5c-1.6,0.3-2.7,0.9-3.4,1.6c-0.7,0.8-1,1.8-1,3.1c0,1.1,0.3,2,0.8,2.9c0.6,0.9,1.3,1.5,2.3,2
		c1,0.5,2.1,0.7,3.3,0.7c1.2,0,2.3-0.3,3.2-0.8c0.9-0.6,1.6-1.4,2.1-2.4v3h3.6V92.9c0-2.5-0.6-4.3-1.8-5.5
		C191,86.2,189.2,85.6,186.8,85.6L186.8,85.6L186.8,85.6z M185.7,101.6c-1,0-1.8-0.3-2.4-0.9c-0.6-0.6-0.9-1.3-0.9-2.2
		c0-0.8,0.2-1.4,0.7-1.8c0.4-0.4,1.2-0.7,2.2-0.9c1-0.2,2.5-0.3,4.5-0.3h0.7v1c0,1.5-0.4,2.7-1.3,3.6
		C188.1,101.2,187,101.6,185.7,101.6L185.7,101.6L185.7,101.6z M181.6,81.7h3.8v-3.7h-3.8V81.7L181.6,81.7z M188.2,81.7h3.8v-3.7
		h-3.8V81.7L188.2,81.7z M209.5,101.5c-2.4,0-3.7-1.3-3.7-4v-8.6h5V86h-5v-5.5h-3.7V86h-3.5v2.9h3.5v8.8c0,2.2,0.6,3.8,1.7,5
		c1.2,1.2,2.9,1.7,5.3,1.7c0.7,0,1.3,0,1.9-0.1l0.2-2.9C210.6,101.5,210,101.5,209.5,101.5L209.5,101.5L209.5,101.5z"/>
	<path class="st0" d="M17.9,65.2c1.1,0,2.2-0.2,3.1-0.5c0.9-0.3,1.8-0.9,2.5-1.5l-0.7-1.5c-0.8,0.7-1.6,1.1-2.3,1.4
		c-0.8,0.3-1.6,0.4-2.5,0.4c-1.8,0-3.2-0.6-4.2-1.7c-1-1.2-1.5-2.8-1.5-5c0-2.1,0.5-3.8,1.5-4.9c1-1.2,2.4-1.7,4.2-1.7
		c0.9,0,1.7,0.1,2.5,0.4c0.8,0.3,1.5,0.8,2.3,1.4l0.7-1.5C22.8,49.9,22,49.4,21,49c-0.9-0.3-2-0.5-3.1-0.5c-1.5,0-2.9,0.3-4,1
		c-1.1,0.7-2,1.6-2.6,2.9c-0.6,1.3-0.9,2.7-0.9,4.4c0,1.7,0.3,3.2,0.9,4.5c0.6,1.3,1.5,2.2,2.6,2.9C15,64.9,16.4,65.2,17.9,65.2
		L17.9,65.2L17.9,65.2z M30.6,53.4c-0.8,0-1.6,0.1-2.4,0.4c-0.8,0.3-1.5,0.6-2.1,1l0.6,1.4c1.3-0.8,2.6-1.2,3.9-1.2
		c0.9,0,1.5,0.2,1.9,0.6c0.4,0.4,0.6,1.1,0.6,2.1v0.8h-0.5c-1.8,0-3.1,0.1-4.1,0.3c-1,0.2-1.7,0.5-2.1,1c-0.4,0.5-0.6,1.1-0.6,2
		c0,0.6,0.2,1.2,0.5,1.7c0.4,0.5,0.8,0.9,1.4,1.2c0.6,0.3,1.3,0.4,2,0.4c0.8,0,1.5-0.2,2.1-0.5c0.6-0.4,1.1-0.9,1.3-1.5V65h1.8v-7.1
		c0-1.5-0.4-2.6-1.1-3.3C33.1,53.8,32,53.4,30.6,53.4L30.6,53.4L30.6,53.4z M29.8,63.7c-0.7,0-1.2-0.2-1.7-0.6
		c-0.4-0.4-0.7-0.9-0.7-1.5c0-0.5,0.2-0.9,0.5-1.2c0.3-0.3,0.8-0.5,1.5-0.6c0.7-0.1,1.7-0.2,3.1-0.2H33v0.7c0,1-0.3,1.8-0.9,2.4
		C31.5,63.4,30.8,63.7,29.8,63.7L29.8,63.7L29.8,63.7z M45.3,53.4l-0.7,0c-1.9,0.2-3.1,0.9-3.7,2.2v-2h-1.8V65H41v-6.4
		c0-0.9,0.3-1.7,0.8-2.3c0.5-0.6,1.4-1,2.5-1.1l1.2-0.1L45.3,53.4L45.3,53.4z M49.9,65V48.7h-1.9V65H49.9L49.9,65z M65.3,63
		l-3.8-9.2h-2L64.4,65h1.8L71,53.7h-1.9L65.3,63L65.3,63z M78.3,65.2c1.1,0,2-0.2,2.8-0.7c0.8-0.5,1.4-1.2,1.9-2.1
		c0.4-0.9,0.7-1.9,0.7-3.1c0-1.2-0.2-2.2-0.7-3.1c-0.4-0.9-1.1-1.6-1.9-2.1c-0.8-0.5-1.8-0.7-2.8-0.7s-2,0.2-2.8,0.7
		c-0.8,0.5-1.4,1.2-1.9,2.1c-0.4,0.9-0.7,1.9-0.7,3.1c0,1.2,0.2,2.2,0.7,3.1c0.4,0.9,1.1,1.6,1.9,2.1C76.3,64.9,77.2,65.2,78.3,65.2
		L78.3,65.2L78.3,65.2z M78.3,63.6c-1.1,0-2-0.4-2.6-1.1c-0.6-0.7-0.9-1.8-0.9-3.2c0-1.4,0.3-2.4,0.9-3.2c0.6-0.7,1.5-1.1,2.5-1.1
		c1.1,0,1.9,0.4,2.5,1.1c0.6,0.7,0.9,1.8,0.9,3.2c0,1.4-0.3,2.5-0.9,3.2C80.3,63.2,79.4,63.6,78.3,63.6L78.3,63.6L78.3,63.6z
		 M93,53.4c-0.8,0-1.6,0.2-2.3,0.5c-0.7,0.4-1.2,0.9-1.6,1.6v-1.9h-1.9V65h1.9v-6.5c0-1.1,0.3-1.9,0.9-2.6c0.6-0.6,1.4-0.9,2.5-0.9
		c0.9,0,1.5,0.2,2,0.7c0.4,0.5,0.6,1.2,0.6,2.3v7H97v-7.1C97,54.9,95.7,53.4,93,53.4L93,53.4L93,53.4z M115.2,65.2
		c1.5,0,2.8-0.3,3.9-1c1.1-0.7,2-1.6,2.6-2.9c0.6-1.3,0.9-2.7,0.9-4.4c0-1.7-0.3-3.2-0.9-4.4c-0.6-1.3-1.5-2.2-2.6-2.9
		c-1.1-0.7-2.4-1-4-1c-1.5,0-2.9,0.3-4,1c-1.1,0.7-2,1.6-2.6,2.9c-0.6,1.3-0.9,2.7-0.9,4.5c0,1.7,0.3,3.2,0.9,4.4
		c0.6,1.3,1.5,2.2,2.6,2.9C112.3,64.9,113.7,65.2,115.2,65.2L115.2,65.2L115.2,65.2z M115.2,63.6c-1.7,0-3.1-0.6-4-1.8
		c-1-1.2-1.4-2.8-1.4-5c0-2.1,0.5-3.8,1.4-5c1-1.2,2.3-1.7,4-1.7c1.7,0,3.1,0.6,4.1,1.7c1,1.2,1.4,2.8,1.4,5c0,2.2-0.5,3.8-1.4,5
		C118.2,63,116.9,63.6,115.2,63.6L115.2,63.6L115.2,63.6z M129.9,65.2c1.4,0,2.5-0.3,3.3-0.9c0.8-0.6,1.2-1.4,1.2-2.4
		c0-0.8-0.3-1.5-0.8-2c-0.5-0.5-1.3-0.9-2.3-1.1l-1.9-0.5c-0.6-0.1-1-0.3-1.3-0.6c-0.3-0.3-0.4-0.6-0.4-1.1c0-0.5,0.2-1,0.7-1.3
		c0.4-0.3,1.1-0.5,1.8-0.5c1.2,0,2.4,0.4,3.4,1.3l0.6-1.4c-0.5-0.5-1.1-0.8-1.8-1.1c-0.7-0.3-1.5-0.4-2.2-0.4
		c-1.3,0-2.4,0.3-3.1,0.9c-0.8,0.6-1.2,1.4-1.2,2.4c0,0.8,0.3,1.4,0.8,1.9c0.5,0.5,1.2,0.9,2.2,1.1l1.9,0.4c0.7,0.2,1.2,0.4,1.5,0.6
		c0.3,0.3,0.4,0.6,0.4,1.1c0,0.5-0.2,1-0.7,1.2c-0.4,0.3-1.1,0.4-1.9,0.4c-0.8,0-1.5-0.1-2.1-0.3c-0.6-0.2-1.2-0.6-1.8-1l-0.6,1.4
		C126.5,64.7,128,65.2,129.9,65.2L129.9,65.2L129.9,65.2z M141.4,65.2c1.4,0,2.5-0.3,3.3-0.9c0.8-0.6,1.2-1.4,1.2-2.4
		c0-0.8-0.3-1.5-0.8-2c-0.5-0.5-1.3-0.9-2.3-1.1l-1.9-0.5c-0.6-0.1-1-0.3-1.3-0.6c-0.3-0.3-0.4-0.6-0.4-1.1c0-0.5,0.2-1,0.7-1.3
		c0.4-0.3,1.1-0.5,1.8-0.5c1.2,0,2.4,0.4,3.4,1.3l0.6-1.4c-0.5-0.5-1.1-0.8-1.8-1.1c-0.7-0.3-1.5-0.4-2.2-0.4
		c-1.3,0-2.4,0.3-3.2,0.9c-0.8,0.6-1.2,1.4-1.2,2.4c0,0.8,0.3,1.4,0.8,1.9c0.5,0.5,1.2,0.9,2.2,1.1l1.9,0.4c0.7,0.2,1.2,0.4,1.5,0.6
		c0.3,0.3,0.4,0.6,0.4,1.1c0,0.5-0.2,1-0.7,1.2c-0.4,0.3-1.1,0.4-1.9,0.4c-0.8,0-1.5-0.1-2.1-0.3c-0.6-0.2-1.2-0.6-1.8-1l-0.6,1.4
		C138,64.7,139.5,65.2,141.4,65.2L141.4,65.2L141.4,65.2z M151.6,65V53.7h-1.9V65H151.6L151.6,65z M149.5,50.9h2.3v-2.1h-2.3V50.9
		L149.5,50.9z M165.4,59c0-1.7-0.4-3.1-1.3-4c-0.9-1-2-1.5-3.5-1.5c-1,0-2,0.2-2.8,0.7c-0.8,0.5-1.4,1.2-1.9,2.1
		c-0.4,0.9-0.7,1.9-0.7,3.1c0,1.8,0.5,3.3,1.5,4.3c1,1,2.4,1.6,4.2,1.6c0.8,0,1.6-0.1,2.4-0.4c0.8-0.3,1.4-0.6,1.9-1.1l-0.6-1.4
		c-1.1,0.9-2.3,1.3-3.6,1.3c-1.2,0-2.1-0.3-2.8-1c-0.6-0.7-1-1.7-1.1-3h8.2V59L165.4,59z M160.6,54.9c1,0,1.7,0.3,2.3,0.9
		c0.5,0.6,0.8,1.5,0.9,2.6h-6.6c0.1-1.1,0.5-2,1.1-2.6C158.8,55.2,159.6,54.9,160.6,54.9L160.6,54.9L160.6,54.9z M173.8,63.7
		c-1.6,0-2.5-0.9-2.5-2.7v-5.8h3.2v-1.5h-3.2v-3.4h-1.9v3.4h-2.2v1.5h2.2v5.9c0,1.3,0.3,2.3,1,3c0.7,0.7,1.7,1.1,3.1,1.1
		c0.4,0,0.8,0,1.2-0.1l0.1-1.5C174.5,63.6,174.2,63.7,173.8,63.7L173.8,63.7L173.8,63.7z M186.5,55.1v-1.4h-9.1v1.5h6.8l-7,8.5V65
		h9.6v-1.5h-7.3L186.5,55.1L186.5,55.1z M194.2,59.1l5.6-5.4h-2.4l-5.3,5.1V48.7h-1.9V65h1.9v-5.4l5.7,5.4h2.4L194.2,59.1
		L194.2,59.1z M206.8,63l-3.8-9.2h-2l4.8,11.1l-1.9,4.3h1.9l6.7-15.4h-1.9L206.8,63L206.8,63z"/>
</g>
</svg>
