<svg xmlns="http://www.w3.org/2000/svg" width="623.5" height="362.035" viewBox="0 0 623.5 362.035"><defs><style>.a{fill:#ebf2f9;}.b{fill:#3ed5d4;}.c{fill:#acd29a;}.d{fill:#060b48;}.e{fill:#1c2268;}.f{fill:#41489a;}.g{fill:#6b7280;}.g,.h{opacity:0.4;}.h{fill:#4a51aa;}.i{fill:#5158aa;}.j{fill:#fff;}.k{fill:#e9f3fe;}.l{fill:#dcdcdc;}.m{fill:#fca56b;}.n{fill:#e58638;}.o{fill:#163560;}.p{fill:#1c468a;}.q{fill:#ffb27d;}.r{fill:#ee9849;}.s{fill:#adcbf9;}.t{fill:#699dee;}.u{fill:#ececf2;}.v{fill:#3f9f9e;}.w{fill:#ffe6d2;}.x{fill:#4a75cb;}.y{fill:#2b478b;}.z{fill:#739af0;}.aa{fill:#e2915a;}.ab{fill:#80bdcc;}.ac{fill:#5f9aa8;}.ad{fill:#b84c42;}.ae{fill:#b74b42;}.af{fill:#ffb93e;}.ag{fill:#cae0ff;}.ah{fill:#283250;}</style></defs><g transform="translate(-261.753 -225.833)"><path class="a" d="M810.737,756.074s63.667,6.711,82.734-34.518c27.718-59.933-27.33-107.028-68.169-98.428-88.989,18.738-67.56-187.982-210.377-145.793-40.158,11.863-148.659-58.609-178.92,54.387-7.2,26.87-32.69,29.829-69.7,46.878-72.432,33.368-39.313,178.037,12.442,178.6S810.737,756.074,810.737,756.074Z" transform="translate(-49.009 -169.54)"/><path class="b" d="M982.383,382.047l-6.924-.159c2.225,2.883,2.724,5.539,1.339,7.786-1.385,2.293-4.7,4.177-9.648,5.607A89.334,89.334,0,0,0,946.585,300.8a89.567,89.567,0,0,0-98.043-19.182c-1.317.568-2.633,1.158-3.9,1.771l-.012.006c-3.846-1.173-7.592-2.135-11.206-2.868-18.244-3.7-31.191-1.143-36.45,7.205-5,7.94-2.28,19.892,7.651,33.832l0,.007c-1.339,2.474-2.542,5.017-3.655,7.65-.84,1.975-1.589,3.95-2.27,5.97-18.659,1.112-28.648,4.4-32.28,10.344-4.223,6.924,1.544,16.216,20,25.251,2.542,1.248,5.267,2.474,8.127,3.7a87.44,87.44,0,0,0,6.424,24.335,89.443,89.443,0,0,0,164.419.84c9.1-1.884,15.1-4.835,17.479-8.74C984.517,388.222,984.313,385.225,982.383,382.047Zm-21.361,14.642a137.889,137.889,0,0,1-22.451,1.816,328.951,328.951,0,0,1-46.023-3.1q2.093-4.557,4.1-9.352a126.591,126.591,0,0,0,14.9,4.052,75.489,75.489,0,0,0,14.881,1.655c10.419,0,17.883-3.008,21.569-8.86a15.3,15.3,0,0,0,1.483-3.066h-5.311c-.088.162-.182.321-.279.477-2.738,4.347-8.858,6.592-17.45,6.59a70.874,70.874,0,0,1-13.929-1.557,121.341,121.341,0,0,1-14.027-3.794q1.918-4.8,3.723-9.771c3.237-8.926,6.009-17.775,8.251-26.272a225.615,225.615,0,0,0,32.838,2.263q10.883,0,22.548-.879a84.7,84.7,0,0,1,1.737,17.132A83.7,83.7,0,0,1,961.022,396.689ZM850.373,441.018c-2.583-.937-3.894-4.644-4.539-7.589-1.02-4.655-1.2-11.192-.533-18.905.339-3.9.884-8.049,1.619-12.387A230.007,230.007,0,0,1,878.2,412.96c-2.3,3.965-4.625,7.642-6.95,10.975-4.43,6.35-8.762,11.25-12.529,14.168C856.339,439.95,852.956,441.954,850.373,441.018Zm30.166-32.209a234.8,234.8,0,0,0-32.77-11.348q.587-3.02,1.286-6.143,4.629,1.053,9.383,2.034c9.273,1.9,18.523,3.507,27.578,4.809Q883.326,403.727,880.539,408.809Zm-20.057-18.816q-5.374-1.106-10.583-2.307c1.633-6.8,3.64-13.884,5.983-21.1a207.107,207.107,0,0,0,36.288,17.9q-2.207,5.268-4.526,10.251C878.738,393.451,869.625,391.867,860.482,389.992ZM830.74,298.241a55.555,55.555,0,0,0,3.292,5.792,78.614,78.614,0,0,0,20.024,20.521,98.092,98.092,0,0,0,10.536,6.56c-3.4,7.411-6.64,15.32-9.619,23.533q-.833,2.3-1.623,4.585c-17.791-11.58-32.852-24.868-42.733-37.728l0-.005a84.606,84.606,0,0,1,8.486-11.957c1.317-1.544,2.679-3.042,4.109-4.495l.59-.59A85.031,85.031,0,0,1,830.74,298.241Zm76.07-12.832c2.583.937,3.894,4.644,4.539,7.589,1.02,4.654,1.2,11.192.533,18.905a188.624,188.624,0,0,1-4.941,28.244q-4.558-.784-8.9-1.779a127.93,127.93,0,0,1-27.222-9.385,192.13,192.13,0,0,1,15.11-26.493c4.43-6.35,8.762-11.25,12.528-14.168,1.965-1.523,4.61-3.153,6.926-3.153A4.15,4.15,0,0,1,906.81,285.408Zm-10.152,57.5q4.438,1.031,9.106,1.838c-2.184,8.217-4.874,16.774-8.007,25.415q-1.812,5-3.745,9.823a202.773,202.773,0,0,1-36.551-18.14q.952-2.784,1.967-5.584c2.912-8.028,6.071-15.754,9.385-22.99A132.449,132.449,0,0,0,896.658,342.91Zm46.25-38.453a83.909,83.909,0,0,1,21.836,37.763c-19.415,1.42-37.205.974-53.109-1.328a192.709,192.709,0,0,0,4.968-28.579c.823-9.461.723-20.667-3.113-26.974q1.334.512,2.655,1.071A83.619,83.619,0,0,1,942.907,304.457Zm-59.543-24.675a84.386,84.386,0,0,1,17.183,1.752c-6.617,2.88-13.373,10.9-18.5,18.247a196.729,196.729,0,0,0-15.438,27.037,93.469,93.469,0,0,1-9.465-5.88c-14.077-9.988-20.281-20.756-22.536-25.62a84.208,84.208,0,0,1,10.88-6.564h0q2.319-1.17,4.722-2.2c.117-.05.232-.1.349-.15l.081-.034c.341-.144.684-.284,1.027-.423l.276-.11A83.659,83.659,0,0,1,883.364,279.782Zm-82.288,10.541c2.738-4.347,8.858-6.59,17.45-6.59a70.869,70.869,0,0,1,13.929,1.557q2.928.593,5.974,1.4l.005,0A87.912,87.912,0,0,0,820.121,300.8c-1.158,1.135-2.27,2.315-3.36,3.541-1.362,1.5-2.656,3.065-3.9,4.654a90.066,90.066,0,0,0-5.539,7.923l0,.007C799.721,305.653,797.438,296.094,801.077,290.323Zm4.652,40.921c.749-1.725,1.521-3.428,2.361-5.085l0,0c10.4,13,25.739,26.3,43.656,37.828-2.54,7.733-4.708,15.332-6.457,22.614a346.341,346.341,0,0,1-35.7-10.542c-2.225-.794-4.381-1.612-6.447-2.429-1.226-.477-2.429-.976-3.609-1.475-.182-1.816-.318-3.655-.363-5.494-.023-.885-.045-1.748-.045-2.633,0-1.022.023-2.066.045-3.087a85.191,85.191,0,0,1,3.859-22.337c.386-1.226.795-2.429,1.248-3.632C804.73,333.718,805.207,332.47,805.729,331.244Zm-15.187,36.865c-16.095-7.854-23.449-15.436-20.158-20.816,2.656-4.359,12.326-7.31,27.127-8.4a86.946,86.946,0,0,0-3.36,18.887c-.136,1.907-.2,3.814-.227,5.743v.5c0,1.93.068,3.859.182,5.766C792.88,369.244,791.7,368.677,790.542,368.109Zm12.213,9.648c2.179.817,4.4,1.634,6.7,2.429,10.54,3.652,22.354,7.046,34.992,10.058q-.688,3.071-1.271,6.052-1.549-.376-3.1-.731a188.305,188.305,0,0,0-36.66-4.923,82.319,82.319,0,0,1-3.313-13.907Zm2.974,19.045q-.285-.676-.556-1.355a189.658,189.658,0,0,1,33.848,4.736q1.648.375,3.293.779c-.79,4.608-1.373,9.011-1.733,13.149-.682,7.839-.73,16.877,1.455,23.332A84.677,84.677,0,0,1,805.729,396.8Zm110.415,44.833a84.524,84.524,0,0,1-58.321,2.687c6.231-3.266,12.492-10.766,17.313-17.678,2.487-3.565,4.972-7.51,7.425-11.768a238.065,238.065,0,0,1,40.518,23.443Q919.7,440.127,916.143,441.636Zm26.764-18.047a83.575,83.575,0,0,1-15.329,12.143,243,243,0,0,0-42.693-25c2.054-3.764,4.079-7.739,6.055-11.889a363.917,363.917,0,0,0,38.823,3.181c3.133.091,6.175.091,9.126.068a162.456,162.456,0,0,0,20.294-1.362A83.681,83.681,0,0,1,942.907,423.589Z" transform="translate(-405.199 -48.773)"/><path class="c" d="M1342.778,1185.647c-1.908-7.4-14.8-1.669-25.421,4.54q-.743-1.174-1.536-2.325c7.6-4.716,18.278-12.56,14.214-17.333-4.014-4.715-11.859,5.961-16.766,13.835-13.146-17.061-32.64-29.2-32.64-29.2s81.351-67.594,20.561-103.253-106.973,89.813-106.973,89.813-41.539-38.466-81.2-24.26c-40.731,14.589-15.277,41.626-50.649,48.938-4.165-15.946-11.863-38.433-22.39-39.752-13.9-1.741-8.052,15.658,13.073,41.077-4.095.367-8.759.555-14.09.539-56.733-.169-42.175,40.679-42.175,40.679l328.016.757a40.413,40.413,0,0,0-3.3-11.8C1332.737,1196.136,1344.574,1192.614,1342.778,1185.647Z" transform="translate(-597.173 -622.246)"/><g transform="translate(415.92 313.877)"><g transform="translate(0 0)"><path class="d" d="M1758.556,962.576l-14.3,170.083s-1.5,10.31,6.17,10.328c12.609.03,62.761,0,62.761,0s-9.49-2.146-9.375-6.975c.135-5.692,16.719-175.047,16.719-175.047Z" transform="translate(-1603.228 -870.022)"/><path class="e" d="M1832.01,1128.853c-2.48.007-50.381.158-62.66,0-5.352-.067-6.29-4.758-6.334-7.794a15.215,15.215,0,0,1,.162-2.532l.372-4.421.948-11.267.837-9.954,1.076-12.792.906-10.8,10.164-120.856,61.971-1.608s-6.984,70.874-11.925,122.464c-.552,5.748-1.076,11.26-1.561,16.4q-.236,2.464-.455,4.812c-.458,4.881-.877,9.364-1.241,13.321-.192,2.086-.369,4.024-.53,5.8-.63,6.957-1,11.4-1,12.245a7.161,7.161,0,0,0,.121,1.376C1823.873,1128.676,1831.079,1128.853,1832.01,1128.853Z" transform="translate(-1617.986 -858.974)"/><path class="e" d="M1120.869,544.422l34.843,139.958,4.771,19.168,16.228,65.188h301.495l-59.815-224.313Z" transform="translate(-1116.04 -544.422)"/><path class="e" d="M1103.578,544.421l-4.829,1.61L1153,773.6l6.42-4.868Z" transform="translate(-1098.749 -544.421)"/><path class="e" d="M1347.236,1576.708h299.639l8.275-4.869H1353.656Z" transform="translate(-1292.984 -1347.525)"/><rect class="d" width="64.876" height="3.083" transform="translate(159.476 269.947)"/><path class="f" d="M1831.161,1594.133l-.335,2.357-61.013,12.326.837-9.954.4-4.729Z" transform="translate(-1623.301 -1364.951)"/><path class="g" d="M1832.017,1711.726c-2.48.007-50.381.158-62.66,0-5.352-.066-6.29-4.758-6.334-7.795l60.725-11.425c-.63,6.957-1,11.4-1,12.245a7.152,7.152,0,0,0,.12,1.377C1823.88,1711.549,1831.086,1711.726,1832.017,1711.726Z" transform="translate(-1617.992 -1441.847)"/><path class="h" d="M1450.981,1293.036l-132.442,45.411-16.229-65.189Z" transform="translate(-1257.867 -1114.131)"/><path class="i" d="M1120.867,544.421h297.522L1466.662,724.7H1165.747Z" transform="translate(-1116.038 -544.421)"/></g><path class="j" d="M2045.846,1445.86a10.2,10.2,0,0,0-9.561-8.006c-4.421,0-7.309,3.584-6.449,8.006a10.2,10.2,0,0,0,9.561,8.005C2043.818,1453.865,2046.706,1450.281,2045.846,1445.86Z" transform="translate(-1826.435 -1242.792)"/><path class="k" d="M1496.755,751.46H1218.184l-31.548-125.675-2.418-9.638-2.064-8.22-4.838-19.275h274.556l5.313,19.275,2.266,8.22,2.657,9.638Z" transform="translate(-1160.163 -578.994)"/><path class="l" d="M1457.185,607.926H1182.154l-4.838-19.275h274.556Z" transform="translate(-1160.163 -578.994)"/><g transform="translate(28.437 15.958)"><path class="k" d="M1230.881,617.514a1.82,1.82,0,0,0-1.808,2.409,3.291,3.291,0,0,0,3.01,2.41,1.82,1.82,0,0,0,1.809-2.41A3.291,3.291,0,0,0,1230.881,617.514Z" transform="translate(-1228.998 -617.514)"/><path class="k" d="M1267.552,617.514a1.821,1.821,0,0,0-1.809,2.409,3.292,3.292,0,0,0,3.011,2.41,1.821,1.821,0,0,0,1.809-2.41A3.292,3.292,0,0,0,1267.552,617.514Z" transform="translate(-1257.663 -617.514)"/><path class="k" d="M1310.049,619.923a3.291,3.291,0,0,0-3.01-2.409,1.821,1.821,0,0,0-1.809,2.409,3.291,3.291,0,0,0,3.01,2.41A1.82,1.82,0,0,0,1310.049,619.923Z" transform="translate(-1288.529 -617.514)"/></g></g><g transform="translate(304.839 342.74)"><path class="m" d="M672.273,724.869a7.1,7.1,0,0,0-.485-5.1c-1.338-2.415.824-4.088.278-4.817s-4.1-.655-5.318,2.85.838,7.459.838,7.459Z" transform="translate(-621.112 -706.298)"/><path class="n" d="M614.835,778.457a4.29,4.29,0,0,0,5.478-3.479l3.543-15.414s.739-1.194,3.293-1.089c2.781.114,3.533,1.492,3.533,1.492s1.72,27.134-6.313,30.963S607.241,776.193,614.835,778.457Z" transform="translate(-578.605 -740.599)"/><path class="o" d="M612.655,1746.386H590.03c-1.609-1.456-2.14-10.024-2.14-10.024s7.015-6.321,9.307-1.319c2.179,4.753,8.2,7.281,11.8,7.908A4.02,4.02,0,0,1,612.655,1746.386Z" transform="translate(-559.772 -1502.455)"/><path class="o" d="M487.117,1746.386H464.492c-1.609-1.456-2.142-10.024-2.142-10.024s7.015-6.321,9.307-1.319c2.179,4.753,8.2,7.281,11.8,7.908A4.023,4.023,0,0,1,487.117,1746.386Z" transform="translate(-461.641 -1502.455)"/><path class="o" d="M500.846,1196.158s-3.219,20.583-15.224,57.123-13.642,52.362-13.642,52.362l-12.879-.361s-.11-39.933,5.423-58.307,1.194-66.241,1.194-66.241Z" transform="translate(-459.1 -1070.672)"/><path class="p" d="M545.434,1185.9a499.557,499.557,0,0,1-4.911,69.1c-5.367,38.085-3.547,54.251-3.547,54.251l-12.854.427s-7.682-38.1-5.479-57.162-10.519-65.412-10.519-65.412Z" transform="translate(-497.421 -1074.709)"/><path class="q" d="M565.045,798.528l6.063,4.49,8.762-1.845c-.121-.8-.7-4.11-1.226-7.11-.032-.177-.064-.354-.093-.527-.451-2.552-.841-4.745-.841-4.745l-8.183-4.079-3.051-1.521c.008.054.237,2.833.268,3.238A26.2,26.2,0,0,1,565.045,798.528Z" transform="translate(-541.914 -759.926)"/><path class="r" d="M575.641,831.755c-.192-.081-11.919-3.542-13.193-3.121s-2.028,2.885-2.028,2.885l19.181,4.336S578.091,832.786,575.641,831.755Z" transform="translate(-538.299 -795.418)"/><path class="r" d="M483.746,920.531c1.988,9.068,35.069,10.143,43.6,1.912.97-.938,1.018-5.3.652-11.189-.716-11.5-3.013-28.8-3.1-37.633a69.991,69.991,0,0,0-1.411-12.6,102.281,102.281,0,0,0-4.2-15.077s-16.158-5.223-19.181-4.335C485.537,845.894,481.758,911.463,483.746,920.531Z" transform="translate(-477.981 -805.513)"/><path class="n" d="M630.48,974.976c-.715-11.5-3.013-28.8-3.1-37.633a69.981,69.981,0,0,0-1.411-12.6l-9.72-1.715S606.743,961.847,630.48,974.976Z" transform="translate(-580.468 -869.234)"/><path class="m" d="M574.8,792c1.8,3.439,8.493,6.412,11.286,7.505-.032-.177-.064-.354-.093-.527-.451-2.552-.841-4.744-.841-4.744l-8.183-4.079C575.155,790.126,574.054,790.583,574.8,792Z" transform="translate(-549.353 -765.366)"/><path class="q" d="M567.547,719.65s-14.763,4.605-17.49-4.633-6.468-14.866,2.843-18.2,12.191-.349,13.851,2.513S571.318,718.214,567.547,719.65Z" transform="translate(-527.777 -691.262)"/><path class="o" d="M540.016,684.76s-.942,10.75-3.165,10.283-4.239-.813-3.914,2.428,3.409,6.983-3.443,7.556-16.7-17.1-14.819-20.442C520.107,674.932,547.866,672.984,540.016,684.76Z" transform="translate(-502.359 -676.623)"/><g transform="translate(43.038 5.618)"><g transform="translate(0 0.208)"><path class="s" d="M675.474,703.313l-14.3,3.821.443,5.9,14.584-.1c1.154-.087,1.929-2.31,1.729-4.965S676.629,703.226,675.474,703.313Z" transform="translate(-660.09 -703.31)"/><path class="t" d="M658.808,723.672c-.122-1.628-.8-2.906-1.5-2.852s-1.183,1.417-1.06,3.045.8,2.905,1.5,2.852S658.93,725.3,658.808,723.672Z" transform="translate(-656.225 -716.995)"/></g><path class="t" d="M676.351,733l-4.424.082a2.156,2.156,0,0,0,.1,1.33l4.41.3Z" transform="translate(-668.465 -726.312)"/><g transform="translate(6.052)"><path class="s" d="M706.046,702.359l-16.423,4.387.509,6.77,16.743-.117c1.325-.1,2.214-2.652,1.985-5.7S707.371,702.26,706.046,702.359Z" transform="translate(-688.384 -702.356)"/><path class="t" d="M686.911,725.733c-.14-1.87-.913-3.336-1.726-3.275s-1.358,1.626-1.217,3.5.913,3.336,1.726,3.274S687.052,727.6,686.911,725.733Z" transform="translate(-683.946 -718.068)"/></g></g><path class="q" d="M700.172,724.3a7.1,7.1,0,0,1-.918-5.037c.631-2.687-1.9-3.711-1.577-4.56s3.771-1.745,5.892,1.3,1.221,7.405,1.221,7.405Z" transform="translate(-645.566 -705.748)"/><path class="r" d="M606.112,778.175a99.025,99.025,0,0,1,16.5-1.446,4.29,4.29,0,0,0,4.326-4.837l-1.384-15.5a5.678,5.678,0,0,1,3.478-2.239c2.708-.646,3.577.813,3.577.813s9.259,25.308,2.569,31.176-32.023,9.549-32.023,9.549Z" transform="translate(-571.703 -737.096)"/></g><g transform="translate(530.279 342.946)"><g transform="translate(13.716)"><path class="b" d="M2739.838,251.394c-.883,20.381-5.623,45.328-20.7,65.4q-.831,1.1-1.67,2.189-2.536,3.277-5.157,6.369a5.7,5.7,0,0,1-7.761.856l-66.906-50.246a5.2,5.2,0,0,1-1.227-7.026q2.355-3.574,4.933-7.115.807-1.11,1.638-2.214c15.072-20.071,37.71-31.579,57.036-38.11a182.934,182.934,0,0,1,26.245-6.71,11.944,11.944,0,0,1,3.257-.137,10.475,10.475,0,0,1,4.333,1.4,10.711,10.711,0,0,1,5.105,8.273A182.791,182.791,0,0,1,2739.838,251.394Z" transform="translate(-2635.093 -214.592)"/><path class="e" d="M2639.63,431.182q-2.929,4.02-5.568,8.087a4,4,0,0,0,.958,5.377l68.6,51.517a4.655,4.655,0,0,0,6.331-.7q2.951-3.442,5.8-7.119Z" transform="translate(-2633.418 -383.894)"/><g transform="translate(45.418 27.023)"><path class="e" d="M2861.7,378.952a20.3,20.3,0,0,1-16.184-32.481h0a20.292,20.292,0,1,1,19.083,32.275A20.589,20.589,0,0,1,2861.7,378.952Zm.075-35.875a15.826,15.826,0,0,0-2.226.158,15.474,15.474,0,0,0-10.262,6.068h0a15.569,15.569,0,1,0,12.488-6.226Z" transform="translate(-2841.445 -338.361)"/></g><path class="u" d="M2990.954,220.942a11.49,11.49,0,0,0-1.534-4.7,10.469,10.469,0,0,0-4.332-1.4c.011.089.022.178.032.267a182.707,182.707,0,0,1,.873,27.073c-.885,20.38-5.625,45.328-20.7,65.4q-.829,1.107-1.669,2.191-.56.722-1.124,1.434l6.546,4.925c.137-.176.276-.349.412-.526q.841-1.086,1.67-2.191c15.073-20.071,19.814-45.019,20.7-65.4A182.934,182.934,0,0,0,2990.954,220.942Z" transform="translate(-2890.653 -214.788)"/><path class="e" d="M2969.764,224.318a10.533,10.533,0,0,0-12.7-9.535,182.86,182.86,0,0,0-26.245,6.71l39.813,29.9A182.868,182.868,0,0,0,2969.764,224.318Z" transform="translate(-2865.892 -214.591)"/></g><g transform="translate(0 73.015)"><path class="v" d="M2596.092,550.77c-6.523-4.333-16.792-.348-22.935,8.9s.688,24.593.688,24.593,16.792.347,22.935-8.9S2602.615,555.1,2596.092,550.77Z" transform="translate(-2570.594 -549.019)"/><path class="v" d="M2764.062,674.149c-6.523-4.333-16.792-.347-22.935,8.9s.689,24.593.689,24.593,16.792.347,22.935-8.9S2770.585,678.482,2764.062,674.149Z" transform="translate(-2701.891 -645.461)"/></g><g transform="translate(0.965 83.928)"><path class="b" d="M2592.613,600.211c-4.5-2.991-11.59-.24-15.83,6.144s.475,16.974.475,16.974,11.59.24,15.831-6.144S2597.115,603.2,2592.613,600.211Z" transform="translate(-2575.014 -599.002)"/><path class="b" d="M2760.935,723.451c-4.5-2.991-11.59-.24-15.83,6.144s.476,16.974.476,16.974,11.59.24,15.83-6.144S2765.438,726.442,2760.935,723.451Z" transform="translate(-2706.587 -695.336)"/></g><path class="w" d="M2892.718,464.248l21.038-3.718a13.722,13.722,0,0,1-21.038,3.718Z" transform="translate(-2822.389 -406.835)"/><path class="w" d="M2898.62,380.626l-26.645,5.047a13.721,13.721,0,1,1,26.645-5.047Z" transform="translate(-2805.56 -334.009)"/></g><g transform="translate(360.304 405.796)"><g transform="translate(26.59 30.838)"><path class="q" d="M1044.838,1306.962s4.462,1.146,7.3.292,7.717.549,8.5,1.583.5,1.445-.905,1.8-6.372,2.476-9.638,1.25a26.02,26.02,0,0,0-7.526-1.271Z" transform="translate(-1006.282 -1263.235)"/><path class="x" d="M876.36,1111.656s5.012,35.62,13.31,38.81c4.095,1.574,22.191,5.143,27.544,5.5,0,0,1.311-1.064.992-5.394,0,0-18.96-6.961-21.653-10.746-4.009-5.634,2.489-23.016-2.542-28.307S880.51,1103.955,876.36,1111.656Z" transform="translate(-876.36 -1106.683)"/></g><path class="y" d="M822.055,1554.479v-7.766h12.227a.6.6,0,0,0,.6-.6v-1.244a.6.6,0,0,0-.6-.6H822.055v-44.209a2.262,2.262,0,0,0-2.255-2.255h-2.42a2.262,2.262,0,0,0-2.255,2.255v44.209H802.9a.6.6,0,0,0-.6.6v1.244a.6.6,0,0,0,.6.6h12.227v7.766c-8.846.669-15.934,3.854-17.922,7.969h42.776C837.989,1558.332,830.9,1555.147,822.055,1554.479Z" transform="translate(-787.894 -1381.573)"/><path class="o" d="M861.187,1398.3a62.5,62.5,0,0,0,4.9,7c5.386,6.8,11.25,12.406,12.271,17.706a24.027,24.027,0,0,0,.947,3.392c.427,1.214.954,2.491,1.563,3.81a117.37,117.37,0,0,0,9.117,15.585c5.9,8.742,11.447,16.037,11.447,16.037l10.174-.433c-.408-1.02-4.845-13.091-10.781-27.842-2.411-5.988-4.974-12.358-7.447-18.5q-.494-1.23-.985-2.447c-.756-1.88-1.5-3.73-2.227-5.532-5.574-13.851-10.013-24.881-10.013-24.881s-22.278-8.439-24.591-2.971C853.65,1383.736,855.2,1388.154,861.187,1398.3Z" transform="translate(-832.908 -1287.444)"/><path class="o" d="M1069.865,1745.138s.521,8.4,2.145,8.516c.216.016,8.238.016,8.238.016h10.241a3.361,3.361,0,0,0-3.06-3.049c-2.994-.522-8-2.625-9.817-6.582C1075.7,1739.878,1069.865,1745.138,1069.865,1745.138Z" transform="translate(-1001.027 -1572.796)"/><path class="o" d="M938.914,1645.859s-7.076,4.548-6.39,6.024c.091.2,4,7.2,4,7.2L941.57,1668a3.323,3.323,0,0,0,1.118-4.129c-1-2.868-1.61-8.268.961-11.78C946.353,1648.392,938.914,1645.859,938.914,1645.859Z" transform="translate(-893.635 -1497.303)"/><path class="p" d="M887.576,1381s28,17.437,31.116,29.142-37.2,36.677-37.2,36.677-4.422-3.9-5.2-6.763c0,0,18.224-21.834,22.178-26.729,2.428-3.006-35.9-10.405-40.581-17.689s-3.006-13.411-3.006-13.411Z" transform="translate(-832.755 -1290.27)"/><rect class="r" width="61.391" height="15.608" rx="7.804" transform="translate(0 113.115)"/><path class="q" d="M902.355,1063.843c-6.7,1.734-17.8-4.474-17.8-4.474a16.434,16.434,0,0,0,5.91-9.264c.081-.321.155-.651.218-.987.7-.151,2.026-.43,3.441-.729l5.118,4.583a43.686,43.686,0,0,1-.758,5.174c-.111.572-.238,1.184-.384,1.836A15.776,15.776,0,0,1,902.355,1063.843Z" transform="translate(-856.172 -1030.279)"/><path class="z" d="M885.831,1149.911a1.73,1.73,0,0,1-.059.21c-.646,1.81-6.659,4.251-12.176,5.958-1.978.614-3.9,1.131-5.476,1.493-4.273.978-14.977,2.723-15.916-.212-1.087-3.4.175-23.027-.786-35.932-1.133-15.776,3.236-30.136,9.31-34.823.459-.336,1.367.559,4,1.808a11.767,11.767,0,0,0,7.388.982l2.037,1.747a22.776,22.776,0,0,1,7.312,11.288,92.714,92.714,0,0,1,1.987,14.172c.186,2.24.347,4.578.485,6.938.218,3.757.408,7.548.5,11.152,0,.07,0,.138,0,.207l0,.131c.039.362.046.76.05,1.124.1,3.231.079,6.238.188,8.79,0,.072.007.142.011.21.138,2.14.921,3.1,1.131,4A1.684,1.684,0,0,1,885.831,1149.911Z" transform="translate(-830.133 -1060.094)"/><path class="x" d="M929.917,1288.483a1.684,1.684,0,0,1-.059.21c-.646,1.81-6.659,4.251-12.176,5.958-11.207-14.041-10.006-30.841-10.006-30.841l20.844,9.454c0,.07,0,.137,0,.208l0,.131c.039.362.046.76.05,1.124.1,3.231.079,6.238.188,8.79,0,.072.006.142.011.21.137,2.14.921,3.1,1.131,4A1.681,1.681,0,0,1,929.917,1288.483Z" transform="translate(-874.219 -1198.666)"/><path class="aa" d="M920.4,1052.973a43.669,43.669,0,0,1-.758,5.174c-5-1.613-7.262-6.126-8.019-8.041.081-.321.155-.651.218-.987.7-.151,2.026-.43,3.441-.729Z" transform="translate(-877.331 -1030.279)"/><path class="q" d="M916.776,1003.807s-10.978,1.238-11.644-5.61-2.531-11.3,4.45-12.381,8.6,1.4,9.377,3.632S919.615,1003.309,916.776,1003.807Z" transform="translate(-871.688 -981.163)"/><path class="y" d="M894.867,982.942a11.279,11.279,0,0,1,10.689-10.032c6.844-.645,3.028-6.536,2.3-7.475,0,0-5.244.719-10.619,1.607C885.953,968.906,893.758,981.527,894.867,982.942Z" transform="translate(-861.375 -965.435)"/><path class="x" d="M1063.594,1232.6l-7.734,23.8-27.2-.581-.036,1.661,27.757.593,8.176-25.162Z" transform="translate(-968.789 -1174.27)"/><g transform="translate(28.802 33.125)"><path class="q" d="M1032.929,1332.044s4.308,1.631,7.221,1.094,7.609,1.4,8.277,2.511.335,1.491-1.1,1.691-6.606,1.759-9.717.18a26.035,26.035,0,0,0-7.34-2.093Z" transform="translate(-998.88 -1285.128)"/><path class="z" d="M886.49,1121.3s1.054,35.955,8.95,40.041c3.9,2.016,21.489,7.558,26.77,8.5,0,0,1.421-.913,1.58-5.252,0,0-18.077-9.008-20.337-13.068-3.363-6.042,5.011-22.6.595-28.415S891.463,1114.107,886.49,1121.3Z" transform="translate(-886.49 -1117.156)"/></g></g><g transform="translate(747.057 383.788)"><path class="q" d="M3129.494,1262.963l1.322,2.143c.687.789.871,1.23,1.415,1.5a6.735,6.735,0,0,1,3.922,5.789s-.041,1.972-1.364,1.333-.745-.58-2.624-1.441-2.576-3.6-2.74-4.534l-1.533-2.013Z" transform="translate(-3035.873 -1175.996)"/><g transform="translate(0 0)"><path class="q" d="M2881.267,1721.353a1.807,1.807,0,0,1-1.18,1.566.014.014,0,0,1-.01,0c-1.256.55-3.362.426-5.637.119-.292-.039-.553-.07-.788-.091-.062-.006-.124-.011-.184-.015l-.141-.011c-2.266-.149-2.089.549-6.419.527-4.936-.026-6.605-1.688-6.832-2.4-.19-.6,1.971-1.067,4.388-1.6l.352-.079c.322-.071.646-.146.967-.219,2.88-.676,5.733-1.529,6.676-4.3,1-2.935.763-11.645.763-11.645h8.742s-2.295,9.622-2.054,12.4c.13,1.481.839,1.9,1.112,3.185.02.09.037.18.054.27A8.6,8.6,0,0,1,2881.267,1721.353Z" transform="translate(-2826.519 -1520.125)"/><g transform="translate(41.712 75.643)"><path class="ab" d="M2920.679,1242.542c-.738,4.142-1.791,8.422-2.705,12.873-1.469,7.158-2.577,14.761-1.442,22.949a28.638,28.638,0,0,1,.241,3.467c.22,14.471-6.246,40.7-6.246,40.7a11.415,11.415,0,0,1-4.7.612,14.931,14.931,0,0,1-3.841-1.052s-.612-16.26-.649-38.126c-.027-15.85-3.139-36.72-3.767-48.984a157.121,157.121,0,0,1,.446-17.309s12.889-10.364,17.519-5.062C2920.109,1217.847,2923.44,1227.049,2920.679,1242.542Z" transform="translate(-2897.471 -1211.097)"/></g><path class="ac" d="M2943.437,1372.358a28.535,28.535,0,0,1,.241,3.467c-9.653-13.985-11.787-44.482-11.787-44.482l10.6,5.145s1.163,5.719,2.387,12.92C2943.411,1356.567,2942.3,1364.17,2943.437,1372.358Z" transform="translate(-2882.664 -1229.447)"/><path class="q" d="M3008.993,1719.411a1.807,1.807,0,0,1-1.179,1.566.014.014,0,0,1-.01,0c-1.256.55-3.361.426-5.637.119-.291-.038-.554-.07-.789-.091-.062-.006-.123-.012-.183-.015l-.141-.011c-2.266-.149-2.088.549-6.419.528-4.936-.026-6.6-1.688-6.832-2.4-.191-.6,1.97-1.067,4.387-1.6l.353-.079c.321-.071.645-.146.967-.219,2.881-.676,5.733-1.529,6.677-4.3,1-2.935-.429-11.511-.429-11.511l8.1-.677s-.5,9.772-.262,12.545c.13,1.481.882,2.295,1.155,3.578.02.09.038.18.054.27A8.57,8.57,0,0,1,3008.993,1719.411Z" transform="translate(-2926.36 -1518.183)"/><path class="ab" d="M2956.432,1361.59a19.657,19.657,0,0,1-3.581,1.285,17.2,17.2,0,0,1-4.613-.286,211.3,211.3,0,0,0-4.4-27.255,255.046,255.046,0,0,0-13.176-41.755c-1.28-3.023-6.556-17.333-7.451-20.944-2.708-10.912.01-9.736.01-9.736l23.667-2.777s2.915,1.5,4.258,16.907c.4,4.614.451,24.538,1.057,28.315a42.259,42.259,0,0,0,2.032,8.483C2958.63,1324.62,2956.432,1361.59,2956.432,1361.59Z" transform="translate(-2874.939 -1173.776)"/><path class="ad" d="M3008.993,1777.133a1.807,1.807,0,0,1-1.179,1.566.014.014,0,0,1-.01,0,13.931,13.931,0,0,1-5.633.105c-.291-.035-.554-.061-.793-.078-.062-.006-.123-.011-.183-.015l-.141-.011c-2.266-.149-2.088.549-6.419.527-4.936-.026-6.6-1.688-6.832-2.4-.191-.6,1.97-1.067,4.387-1.6a14.58,14.58,0,0,0,7.458,1.322c3.324-.318,6.717-1.65,9.1-1.982.02.09.038.18.054.27A8.569,8.569,0,0,1,3008.993,1777.133Z" transform="translate(-2926.36 -1575.905)"/><path class="ad" d="M2881.267,1777.133a1.806,1.806,0,0,1-1.18,1.566.015.015,0,0,1-.01,0,13.929,13.929,0,0,1-5.632.105c-.292-.035-.554-.061-.793-.078-.062-.006-.124-.011-.184-.015l-.141-.011c-2.266-.149-2.089.549-6.419.527-4.936-.026-6.605-1.688-6.832-2.4-.19-.6,1.971-1.067,4.388-1.6a14.575,14.575,0,0,0,7.457,1.322c3.324-.318,6.718-1.65,9.1-1.982.02.09.037.18.054.27A8.6,8.6,0,0,1,2881.267,1777.133Z" transform="translate(-2826.519 -1575.905)"/><path class="ae" d="M2905,880.115c-.8-6.528,1.24-16.975,14.269-15.305s17.136,14.474,14.508,20.168,3.782,7.067,5.8,13.189c1.729,5.26,2.332,11.791,5.129,14.722,9.021,9.449-8.659,23.981-19.318,20.917-19.414-5.582-21.914-6.414-21.225-21.668.353-7.815,6.433-10.844,2.573-13.1C2897.405,893.572,2906.808,894.888,2905,880.115Z" transform="translate(-2859.719 -864.632)"/><path class="q" d="M2947.11,971.69l-3.59,9.276-7.747.378-3.865-5.772a10.722,10.722,0,0,0,3.848-7.128,20.375,20.375,0,0,0,.137-4.775c-.052-.5-.1-.79-.1-.79l9.654-2.937.034-.017c.12,2.559.258,4.569.412,6.132C2946.441,971.57,2947.11,971.69,2947.11,971.69Z" transform="translate(-2882.678 -939.119)"/><path class="q" d="M2902.593,1010.871c.5,0,8.96-1.722,23.25,1.934,0,0-7.826,35.855-5.167,42.613a71.405,71.405,0,0,1,3.669,12.756l-28.841.358s.4-23.2-.926-31.406S2902.593,1010.871,2902.593,1010.871Z" transform="translate(-2853.395 -978.626)"/><path class="af" d="M2819.205,1049.842c-1.445-9.967-6.8-30.435-10.4-33.782-3.181-2.96-10.041-3.231-10.041-3.231h0c-1.425,2.232-6.3,7.778-12.356,6.778-3.267-.539-3.929-6.412-4-7.2l.022-.089-.029,0v0l-.07.014c-.954.141-8.544,1.376-10.8,5.252-3.325,5.722-6.946,22.9-10.5,22.641-1.633-.117-18.068-6.294-18.068-6.294s-2.738,2.565-2.213,5.712a171.566,171.566,0,0,0,14.977,8.9c.95.481,1.878.923,2.755,1.308,2.474,1.086,4.558,1.715,5.7,1.446a3.82,3.82,0,0,0,1.033-.433,20.213,20.213,0,0,0,4.893-4.9c1.106-1.432,2.182-2.979,3.131-4.42l.059-.091c.407,5.459.815,11.4.393,16.056-.322,3.541-.556,11.212.051,13.195,1.267,4.131,10.578,5.223,19.267,4.791a56.422,56.422,0,0,0,9.1-.923c3.056-.7,4.453-1.93,5.458-4.356.959-2.31-3.476-13.156-3.9-17.9a27.618,27.618,0,0,1,1.36-11.247c3.069,7.085,6.189,12.153,6.6,13.252.861,2.311,13.958,16.93,13.958,16.93a6.292,6.292,0,0,0,1.9-.766,4.4,4.4,0,0,0,1.3-1.316C2826.466,1063.679,2819.205,1049.842,2819.205,1049.842Z" transform="translate(-2733.202 -980.076)"/><path class="n" d="M2997.5,1157.116c-1,2.426-2.4,3.655-5.458,4.357-4.084-.785-6.779-8.3-8.165-12-1.6-4.262,6.729-26.179,9.027-25.98,1.709.148,2,3.048,2.06,4.475a27.2,27.2,0,0,0-1.361,11.247C2994.021,1143.961,2998.456,1154.806,2997.5,1157.116Z" transform="translate(-2923.139 -1066.975)"/><path class="q" d="M2716.3,1104.614s-1.4-3.436-2.945-3.576-6.451-.911-6.8-.21a4.851,4.851,0,0,0,1.052,4.137c1.052.912,7.573,2.384,7.573,2.384Z" transform="translate(-2706.418 -1049.032)"/><path class="n" d="M2836.959,1144.155c-.95,1.44-2.025,2.988-3.132,4.42a26.225,26.225,0,0,1-4.892,4.9,3.832,3.832,0,0,1-1.033.434c-1.138.269-3.222-.36-5.7-1.446a27.329,27.329,0,0,0,4.34-.065c2.489-.211,3.214-2.907,7.149-6.949C2836.048,1143.032,2836.763,1143.4,2836.959,1144.155Z" transform="translate(-2796.926 -1082.684)"/><path class="aa" d="M2959.22,960c-1.46,2.388-4.981,7.3-9.688,8.5a20.338,20.338,0,0,0,.137-4.775c-.052-.5-.1-.79-.1-.79Z" transform="translate(-2896.453 -939.18)"/><path class="q" d="M2930.873,907.873s11.606,2.331,12.946-4.919,3.74-11.832-3.612-13.626-9.309.7-10.345,3.016S2927.889,907.08,2930.873,907.873Z" transform="translate(-2880.295 -883.457)"/><path class="ae" d="M2964.052,882.1s-.2,2.459,3.614,6.632,3.073,12.61,3.073,12.61,6.267-13.091,2.835-16.951S2964.052,882.1,2964.052,882.1Z" transform="translate(-2907.802 -878.038)"/><path class="ae" d="M2937.793,867.432s-5.769-1.931-11.495,3.711c-2.467,2.431-2.094,7.209-.773,9.981,0,0,2.029-5.941,5.722-7.237S2937.793,867.432,2937.793,867.432Z" transform="translate(-2876.877 -866.571)"/><path class="j" d="M2939.706,956.861s-.311.86-2.5.47c0,0-1.834-.328-1.665-1.293A5.983,5.983,0,0,1,2939.706,956.861Z" transform="translate(-2885.512 -936.012)"/></g></g><path class="ag" d="M1333.132,1214.391l.567,2.2A6.068,6.068,0,0,1,1333.132,1214.391Z" transform="translate(-854.342 -764.536)"/><path class="ah" d="M884.7,1795.084H262.308a.58.58,0,0,1-.555-.6h0a.58.58,0,0,1,.555-.6H884.7a.58.58,0,0,1,.556.6h0A.58.58,0,0,1,884.7,1795.084Z" transform="translate(0 -1207.216)"/></g></svg>