<svg xmlns="http://www.w3.org/2000/svg" xmlns:xlink="http://www.w3.org/1999/xlink" viewBox="0 0 1500 424.13"><defs><style>.cls-1{fill:#1c2268;}.cls-2{fill:url(#linear-gradient);}</style><linearGradient id="linear-gradient" y1="212.07" x2="229.56" y2="212.07" gradientUnits="userSpaceOnUse"><stop offset="0" stop-color="#42e8e0"/><stop offset="0.5" stop-color="#349fb4"/><stop offset="1" stop-color="#1c2268"/></linearGradient></defs><title>Asset 15</title><g id="Layer_2" data-name="Layer 2"><g id="Layer_1-2" data-name="Layer 1"><path class="cls-1" d="M437.23,143.73V156c0,38.49-20.53,63-65.86,63H337.16v68.13c0,2.28-.86,3.43-3.71,3.43h-19.1c-2.85,0-4-1.15-4-3.43V85a3.15,3.15,0,0,1,3.13-3.13h57.88C416.7,81.87,437.23,106.1,437.23,143.73ZM337.16,106.38v88.1h32.21c30.22,0,41.06-14.26,41.06-40.2v-8.55c0-25.66-10.84-39.35-41.06-39.35Z"/><path class="cls-1" d="M582.28,191.91v40.77c0,36.49-21.09,61-63.29,61s-63.29-24.52-63.29-60.44V192.48c0-36.49,21.1-61.58,63.29-61.58S582.28,156,582.28,191.91Zm-100.63,1.14v38.77c0,25.38,13.4,38.49,37.34,38.49s37.64-13.11,37.64-38.49V193.05C556.63,168,542.94,154,519,154S481.65,168,481.65,193.05Z"/><path class="cls-1" d="M715.51,166.54c.57,2.56-.28,4-2.85,4.84l-14.25,5.14c-2.85.85-4,0-4.85-2.57-5.13-14.82-16.25-21.67-33.93-21.67-19.1,0-30.5,8.27-30.5,21.38,0,12,8,17.68,38.49,26.52,35.92,10.26,49.6,23.66,49.6,47.61,0,27.37-23.09,45.9-57,45.9-30.79,0-53.31-13.4-60.43-36.21-.86-2.56,0-4.27,2.84-5.7l12.84-5.7c3.13-1.14,4.56-.57,5.7,2.85,4.27,14.54,19.1,23.66,38.48,23.66,20,0,32.51-9.41,32.51-23.09,0-13.4-8.56-19.67-39.92-28.79C618.58,211,604,197.9,604,174.81c0-25.95,22.24-43.62,55-43.62C687.86,131.19,708.67,144,715.51,166.54Z"/><path class="cls-1" d="M779.41,97.26v37.63h33.35c2.28,0,3.42,1.14,3.42,4v14c0,2.57-1.14,3.71-3.42,3.71H779.41v90.38c0,14,7.41,20.52,21.66,20.52h11.41c2.28,0,3.7.86,3.7,3.42v16c0,2.56-1.14,3.71-3.7,3.71H797.37c-27.94,0-43.34-15.12-43.34-39.92V156.56H732.65c-2,0-3.14-1.14-3.14-3.71v-14c0-2.85,1.14-4,3.14-4h21.67V97.26c0-2,.85-3.42,3.7-3.42H775.7C778.55,93.84,779.41,95.26,779.41,97.26Z"/><path class="cls-1" d="M854,220.71v12.54c0,24.8,13.4,38.2,38.2,38.49,22.81,0,31.08-8.84,36.78-20.81,1.71-3.43,3.14-3.43,6.27-2l12.26,6.27c3.42,1.43,3.71,3.42,2.28,6.28-8.55,19.67-28.22,32.21-57.87,32.21-40.77-.28-63-24.52-63-60.44V191.34c0-35.35,21.67-60.15,62.15-60.44,39.63.29,60.73,25.09,60.73,60.16v22.8c0,4.56-2.28,6.85-7.42,6.85Zm0-29.94v11.69h73.55V190.77c0-24.23-13.68-37.92-36.77-38.2C867.7,152.85,854,166.54,854,190.77Z"/><path class="cls-1" d="M1052.2,135.75v17.39c0,2.56-.86,3.7-3.71,3.7h-3.42c-23.09,0-37.63,13.12-44.48,31.08v99.5a2.84,2.84,0,0,1-3.13,3.14H978.07a2.85,2.85,0,0,1-3.14-3.14V137.17c0-2.56,1.43-3.13,3.43-3.13H996c2.57,0,3.71,1.14,3.71,3.42l-.29,23.66c8.27-15.68,24.23-29.08,48.18-29.08C1051.34,132,1052.2,132.61,1052.2,135.75Z"/><path class="cls-1" d="M1120.78,85.85V256.63h81c2.85,0,4,1.71,4,4.56v25.66a3.6,3.6,0,0,1-3.71,3.71H1088.28c-2.85,0-4-1.43-4-4V85.85c0-2.56,1.14-4,4-4h28.23C1119.36,81.87,1120.78,83.29,1120.78,85.85Z"/><path class="cls-1" d="M1343,181.93V286.56c0,2.57-1.42,4-4,4h-25.09c-2.57,0-4-1.43-4-4V268c-9.69,15.68-25.66,25.66-45.05,25.66-29.64,0-48.46-19.39-48.46-47.61,0-28.51,18.82-45,59.87-47.9a244.66,244.66,0,0,1,32.21-.28V183.36c0-17.68-9.69-24.8-25.94-24.8s-22.24,6-26.23,17.1c-1.14,3.14-2.28,3.71-5.42,2.85l-24.8-6.27c-2.56-.86-3.42-2.28-2.56-4.56,4.56-22.24,24.8-37.63,60.44-37.63C1320.75,130.05,1343,147.44,1343,181.93Zm-34.5,57.88V220.42a253.41,253.41,0,0,0-29.36.57c-18.53,2-29.08,8.27-29.08,23.09,0,12.83,8.84,21.1,24,21.1C1290,265.18,1302.22,255.77,1308.49,239.81Z"/><path class="cls-1" d="M1401.64,77v76.4c6.27-11.12,21.67-23.09,44.76-23.09,32.22,0,53.6,24.8,53.6,61v42.2c0,36.2-21.1,60.15-55,60.15-22.23,0-37.91-11.69-44.47-22.81v16a3.45,3.45,0,0,1-3.71,3.71h-26.51c-2.57,0-4-1.43-4-3.71V77a3.59,3.59,0,0,1,3.7-3.71h27.94A3.44,3.44,0,0,1,1401.64,77Zm0,119.45V228.4c0,22.24,14.54,34.22,32.5,34.22,20,0,30.51-12,30.51-34.22V196.47c0-21.95-10.55-35.06-30.51-35.06C1416.18,161.41,1401.64,174.24,1401.64,196.47Z"/><path class="cls-2" d="M34.63,424.13a33.31,33.31,0,0,1-16.76-4.4C6.51,413.21,0,400.56,0,385V141.3c0-24.67,16.07-52.65,37.37-65.09L172.7,6.47c13.42-7.83,27.64-8.59,39-2.07s17.87,19.17,17.87,34.72v243.7c0,24.68-16.07,52.67-37.38,65.1L56.85,417.66A44.32,44.32,0,0,1,34.63,424.13ZM190.92,40.59l-134.07,69C47.5,115,38.64,130.46,38.64,141.3V383.54l134.06-69c9.36-5.47,18.22-20.88,18.22-31.73Z"/></g></g></svg>