<svg xmlns="http://www.w3.org/2000/svg" width="57" height="57" viewBox="0 0 57 57">
  <g id="email" transform="translate(-776 -2802)">
    <circle id="Ellipse_3" data-name="Ellipse 3" cx="28.5" cy="28.5" r="28.5" transform="translate(776 2802)"/>
    <path id="solid_envelope" data-name="solid envelope" d="M29.916,71.552a.359.359,0,0,1,.578.28v12.18a2.86,2.86,0,0,1-2.859,2.859H2.859A2.86,2.86,0,0,1,0,84.012V71.838a.356.356,0,0,1,.578-.28c1.334,1.036,3.1,2.353,9.178,6.766,1.257.917,3.377,2.847,5.491,2.835,2.126.018,4.288-1.954,5.5-2.835C26.819,73.911,28.582,72.588,29.916,71.552Zm-14.669,7.7c1.382.024,3.371-1.739,4.372-2.466,7.9-5.736,8.505-6.236,10.328-7.665a1.425,1.425,0,0,0,.548-1.126V66.859A2.86,2.86,0,0,0,27.635,64H2.859A2.86,2.86,0,0,0,0,66.859V67.99a1.434,1.434,0,0,0,.548,1.126c1.823,1.423,2.424,1.93,10.328,7.665C11.876,77.508,13.865,79.271,15.247,79.247Z" transform="translate(789.032 2754.912)" fill="#fff"/>
  </g>
</svg>
