<svg xmlns="http://www.w3.org/2000/svg" width="57.623" height="57.581" viewBox="0 0 57.623 57.581">
  <g id="fb" transform="translate(0 0)">
    <path id="Path_2" data-name="Path 2" d="M757,200.826a27.955,27.955,0,0,1,8.426,20.428A28.679,28.679,0,0,1,716.4,241.512a28.736,28.736,0,0,1-8.6-20.258A28.829,28.829,0,0,1,757,200.826ZM746.357,208.7v-5.916a48.513,48.513,0,0,0-5.107-.3c-3.447,0-5.916,1.277-7.362,3.788a9.221,9.221,0,0,0-1.277,4.894v5.064h-5.7v6.639h5.7v17.023h6.894V222.829h5.745l.851-6.639h-6.6v-3.745a5.968,5.968,0,0,1,.17-1.958,1.8,1.8,0,0,1,.3-.681q.638-1.149,3.32-1.149h3.064Z" transform="translate(-707.8 -192.4)" fill="#3b5998"/>
    <path id="Path_12" data-name="Path 12" d="M772.149,216.3v5.916h-3.064q-2.681,0-3.32,1.149a1.569,1.569,0,0,0-.3.681A5.97,5.97,0,0,0,765.3,226v3.745h6.6l-.851,6.639H765.3v17.066H758.4V236.385h-5.7v-6.639h5.7v-5.064a9.327,9.327,0,0,1,1.277-4.894c1.447-2.511,3.915-3.788,7.362-3.788C768.829,216.043,770.532,216.128,772.149,216.3Z" transform="translate(-733.591 -205.956)" fill="#fff"/>
  </g>
</svg>
