<svg xmlns="http://www.w3.org/2000/svg" width="57.623" height="57.581" viewBox="0 0 57.623 57.581">
  <g id="in" transform="translate(0 0)">
    <path id="Path_66" data-name="Path 66" d="M242.6,200.826a27.955,27.955,0,0,1,8.426,20.428,27.4,27.4,0,0,1-8.512,20.258,27.682,27.682,0,0,1-20.3,8.469A27.291,27.291,0,0,1,202,241.512a28.736,28.736,0,0,1-8.6-20.258,28.829,28.829,0,0,1,49.2-20.428Zm-4.511,35.238v-11.7c0-3.192-.723-5.533-2.213-7.022a7.5,7.5,0,0,0-5.618-2.256,6.133,6.133,0,0,0-4.128,1.149,10.751,10.751,0,0,0-2.043,2.256v-2.894h-6.809v20.47h6.809V223.723a1.457,1.457,0,0,1,.17-.766,4.861,4.861,0,0,1,1.234-1.745,3.259,3.259,0,0,1,2.3-.766,2.716,2.716,0,0,1,2.6,1.319,6.712,6.712,0,0,1,.809,3.4v10.895Zm-25.152-24.386a3.265,3.265,0,0,0,1.107-2.468,3.859,3.859,0,0,0-1.149-2.553,3.774,3.774,0,0,0-2.681-.979,4.137,4.137,0,0,0-2.851.979,3.221,3.221,0,0,0-1.064,2.553,3.34,3.34,0,0,0,1.021,2.468,3.774,3.774,0,0,0,2.809.979A3.906,3.906,0,0,0,212.934,211.679Zm.6,24.386V215.552h-6.852v20.513Z" transform="translate(-193.4 -192.4)" fill="#007bb5"/>
    <path id="Path_74" data-name="Path 74" d="M270.368,254.92v11.7h-6.852V255.686a6.405,6.405,0,0,0-.809-3.4,2.759,2.759,0,0,0-2.6-1.319,3.259,3.259,0,0,0-2.3.766,4.86,4.86,0,0,0-1.234,1.745,1.457,1.457,0,0,0-.17.766v12.384H249.6V246.111h6.809V249c-.043,0-.085.043-.085.128h.085V249a11.912,11.912,0,0,1,2.043-2.256,6.21,6.21,0,0,1,4.128-1.149,7.635,7.635,0,0,1,5.618,2.256C269.645,249.345,270.368,251.686,270.368,254.92Z" transform="translate(-225.682 -222.959)" fill="#fff"/>
    <path id="Path_82" data-name="Path 82" d="M231.288,227.132a3.265,3.265,0,0,1-1.107,2.468,4.581,4.581,0,0,1-5.66,0,3.34,3.34,0,0,1-1.021-2.468,3.281,3.281,0,0,1,1.064-2.553,4.137,4.137,0,0,1,2.851-.979,3.847,3.847,0,0,1,2.681.979A3.46,3.46,0,0,1,231.288,227.132Z" transform="translate(-210.69 -210.322)" fill="#fff"/>
    <rect id="Rectangle_4" data-name="Rectangle 4" width="6.852" height="20.513" transform="translate(13.236 23.151)" fill="#fff"/>
  </g>
</svg>
