<svg id="tw" xmlns="http://www.w3.org/2000/svg" width="57.623" height="57.624" viewBox="0 0 57.623 57.624">
  <path id="Path_1" data-name="Path 1" d="M757,32.826a27.955,27.955,0,0,1,8.426,20.428,27.722,27.722,0,0,1-8.512,20.3,27.682,27.682,0,0,1-20.3,8.469A27.358,27.358,0,0,1,716.4,73.554a28.835,28.835,0,0,1-8.6-20.3,27.845,27.845,0,0,1,8.469-20.343A28.717,28.717,0,0,1,757,32.826ZM754.1,42.359h0a12.379,12.379,0,0,1-4.043,1.149v-.128a7.5,7.5,0,0,0,1.532-1.149,9.115,9.115,0,0,0,1.575-2.724,15.127,15.127,0,0,1-2.937,1.319c-.936.255-1.49.426-1.617.426a7.408,7.408,0,0,0-5.192-2.213,7.191,7.191,0,0,0-7.192,7.15,8.049,8.049,0,0,0,.213,1.617,23.433,23.433,0,0,1-3.149-.383,25.22,25.22,0,0,1-6.894-2.851,22.149,22.149,0,0,1-4.766-4.256,7.218,7.218,0,0,0,.766,8.214,4.457,4.457,0,0,0,1.4,1.277v.043A7.456,7.456,0,0,1,720.652,49a7.177,7.177,0,0,0,2.17,5.192,9.361,9.361,0,0,0,3.49,1.873c0,.043-.255.128-.809.213l-.851.043H724.4a7.191,7.191,0,0,1-1.277-.128,7.281,7.281,0,0,0,6.724,4.979,15.446,15.446,0,0,1-2.043,1.362,14.228,14.228,0,0,1-6.6,1.7c-.808,0-1.447-.043-1.958-.085a19.766,19.766,0,0,0,11.023,3.234,20.2,20.2,0,0,0,13.235-4.809,20.991,20.991,0,0,0,5.916-8.767,19.548,19.548,0,0,0,1.192-6.469V46.1a12.02,12.02,0,0,0,2-1.7C753.209,43.594,753.72,42.913,754.1,42.359Z" transform="translate(-707.8 -24.4)" fill="#00aced"/>
  <path id="Path_7" data-name="Path 7" d="M769.34,62.062h0a12.605,12.605,0,0,1-1.575,2,12.013,12.013,0,0,1-2,1.7V67a19.547,19.547,0,0,1-1.192,6.469,21.4,21.4,0,0,1-5.916,8.767,19.981,19.981,0,0,1-13.235,4.809A19.766,19.766,0,0,1,734.4,83.809c.511.043,1.149.085,1.958.085a14.1,14.1,0,0,0,6.6-1.7A15.458,15.458,0,0,0,745,80.83a7,7,0,0,1-3.745-1.149,7.286,7.286,0,0,1-2.979-3.83,7.192,7.192,0,0,0,1.277.128h.255l.851-.043a2.111,2.111,0,0,0,.809-.213,5.185,5.185,0,0,1-.979-.34,7.5,7.5,0,0,1-2.511-1.532,7.248,7.248,0,0,1-2.17-5.192,7.456,7.456,0,0,0,3.149.851v-.043a4.454,4.454,0,0,1-1.4-1.277,7.512,7.512,0,0,1-1.7-4.766,7.257,7.257,0,0,1,.936-3.447,21.058,21.058,0,0,0,4.767,4.256,23,23,0,0,0,6.894,2.851,23.429,23.429,0,0,0,3.149.383,8.057,8.057,0,0,1-.213-1.617,6.853,6.853,0,0,1,2.17-5.107,7.083,7.083,0,0,1,5.022-2.043,7.408,7.408,0,0,1,5.192,2.213,8.689,8.689,0,0,0,1.617-.426,12.951,12.951,0,0,0,2.937-1.319,9.119,9.119,0,0,1-1.575,2.724,7.5,7.5,0,0,1-1.532,1.149v.085A10.226,10.226,0,0,0,769.34,62.062Z" transform="translate(-723.079 -44.103)" fill="#fff"/>
</svg>
