<svg xmlns="http://www.w3.org/2000/svg" width="57.623" height="57.581" viewBox="0 0 57.623 57.581">
  <g id="wa" transform="translate(0 0)">
    <path id="Path_85" data-name="Path 85" d="M32.725,742.831l.128-.213c.043.085.085.128.17.128,1.192-.426,2.809-.979,4.809-1.617,2.6-.809,4.213-1.319,4.809-1.532a18.524,18.524,0,0,0,8.512,2.213h.511a17.736,17.736,0,0,0,17.193-16.47v-2.171a17.9,17.9,0,0,0-5.192-11.32A17.644,17.644,0,0,0,52.3,706.742H50.088a17.8,17.8,0,0,0-16.6,17.364,18.609,18.609,0,0,0,2.043,8.256,2.272,2.272,0,0,1,.213,1.064,2.964,2.964,0,0,1-.213,1.064C33.746,739.852,32.81,742.618,32.725,742.831Zm38.472-38a27.955,27.955,0,0,1,8.426,20.428,27.56,27.56,0,0,1-8.512,20.258,27.682,27.682,0,0,1-20.3,8.469A27.291,27.291,0,0,1,30.6,745.512,28.736,28.736,0,0,1,22,725.254a27.845,27.845,0,0,1,8.469-20.343A27.585,27.585,0,0,1,50.812,696.4,27.859,27.859,0,0,1,71.2,704.827Z" transform="translate(-22 -696.4)" fill="#12af0a"/>
    <path id="Path_87" data-name="Path 87" d="M83.332,737.285v2.17a17.574,17.574,0,0,1-8.512,13.916,18.2,18.2,0,0,1-8.682,2.553h-.511a18.656,18.656,0,0,1-8.512-2.213c-.638.213-2.213.724-4.809,1.532-2,.638-3.617,1.192-4.809,1.617a.228.228,0,0,1-.17-.128l-.128.213c.043-.213,1.021-2.979,2.851-8.3a3.158,3.158,0,0,0,.213-1.064,3.373,3.373,0,0,0-.213-1.064,18.473,18.473,0,0,1-2.043-8.256,17.485,17.485,0,0,1,5.022-12c2.851-3.107,6.724-4.852,11.576-5.362h2.17a17.723,17.723,0,0,1,16.555,16.385Zm-3.4,5.235a16.3,16.3,0,0,0,.638-4.383,13.7,13.7,0,0,0-3.66-9.235,14.056,14.056,0,0,0-11.32-5.277,10.375,10.375,0,0,0-1.149.043,13.761,13.761,0,0,0-7.405,2.681c-4.171,3.064-6.256,6.979-6.256,11.788a11.46,11.46,0,0,0,.128,1.7,14.929,14.929,0,0,0,1.787,5.66,9.586,9.586,0,0,0,.979,1.575l-.511,1.362c-.809,2.426-1.234,3.745-1.362,4l5.66-1.787a16.277,16.277,0,0,0,6.511,2.383c.553.043,1.064.085,1.617.085a15.3,15.3,0,0,0,6-1.234A14.593,14.593,0,0,0,79.927,742.519Z" transform="translate(-36.475 -710.473)" fill="#fff"/>
    <path id="Path_88" data-name="Path 88" d="M85.391,741.812a16.3,16.3,0,0,1-.638,4.384A15.111,15.111,0,0,1,70.325,756.75c-.511,0-1.064-.043-1.617-.085a16.278,16.278,0,0,1-6.511-2.383l-5.575,1.83c.085-.255.553-1.575,1.362-4l.511-1.362a15.606,15.606,0,0,1-.979-1.575,14.929,14.929,0,0,1-1.787-5.66,11.9,11.9,0,0,1-.128-1.7c0-4.809,2.085-8.724,6.256-11.789a13.887,13.887,0,0,1,7.405-2.681c.383,0,.766-.043,1.149-.043a14.056,14.056,0,0,1,11.32,5.277A13.779,13.779,0,0,1,85.391,741.812Zm-5.958,4.766c0-.17-.043-.3-.043-.468A11.22,11.22,0,0,0,77.432,745a8.174,8.174,0,0,0-2.256-.936h-.043c-.17,0-.511.383-1.107,1.106-.553.724-.936,1.064-1.149,1.107h-.085a5.621,5.621,0,0,1-2.043-.894,10.846,10.846,0,0,1-3.192-2.809,5.6,5.6,0,0,1-1.149-1.915s.255-.383.809-1.064a1.839,1.839,0,0,0,.6-1.192,23.59,23.59,0,0,0-.851-2.256,10.127,10.127,0,0,0-1.064-2,1.727,1.727,0,0,0-.809-.17,3.544,3.544,0,0,0-.936.128c-1.49.383-2.256,1.745-2.256,4.043a9.352,9.352,0,0,0,2.043,4.937,16.579,16.579,0,0,0,6.3,5.66,16.835,16.835,0,0,0,4.511,1.49h.426a5.426,5.426,0,0,0,2.3-.6A3.24,3.24,0,0,0,79.432,746.579Z" transform="translate(-41.301 -714.15)" fill="#12af0a"/>
    <path id="Path_90" data-name="Path 90" d="M87.734,755.186a1.746,1.746,0,0,1,.043.468,3.312,3.312,0,0,1-2,3.107,5.427,5.427,0,0,1-2.3.6h-.426a19.113,19.113,0,0,1-4.511-1.49,16.532,16.532,0,0,1-6.3-5.66,9.352,9.352,0,0,1-2.043-4.937c0-2.3.766-3.66,2.256-4.043a3.546,3.546,0,0,1,.936-.128,1.727,1.727,0,0,1,.809.17,7.217,7.217,0,0,1,1.064,2,19.514,19.514,0,0,1,.851,2.256,2.075,2.075,0,0,1-.6,1.192c-.553.681-.809,1.064-.809,1.064A5.6,5.6,0,0,0,75.86,751.7a10.847,10.847,0,0,0,3.192,2.809,5.622,5.622,0,0,0,2.043.894h.043c.213,0,.6-.383,1.149-1.107.6-.724.936-1.107,1.107-1.107h.043a8.173,8.173,0,0,1,2.256.936A8.693,8.693,0,0,1,87.734,755.186Z" transform="translate(-49.687 -723.225)" fill="#fff"/>
  </g>
</svg>
